M48
; DRILL file {KiCad 9.0.7} date 2026-03-07T17:54:24+1100
; FORMAT={-:-/ absolute / metric / decimal}
; #@! TF.CreationDate,2026-03-07T17:54:24+11:00
; #@! TF.GenerationSoftware,Kicad,Pcbnew,9.0.7
; #@! TF.FileFunction,Plated,1,2,PTH
FMAT,2
METRIC
; #@! TA.AperFunction,Plated,PTH,ViaDrill
T1C0.300
; #@! TA.AperFunction,Plated,PTH,ComponentDrill
T2C0.500
; #@! TA.AperFunction,Plated,PTH,ViaDrill
T3C1.000
; #@! TA.AperFunction,Plated,PTH,ComponentDrill
T4C1.000
; #@! TA.AperFunction,Plated,PTH,ComponentDrill
T5C1.020
%
G90
G05
T1
X113.0Y-123.0
X113.5Y-128.5
X113.6Y-114.5
X114.0Y-111.5
X114.5Y-112.5
X114.5Y-114.1
X115.0Y-130.5
X117.826Y-119.326
X118.5Y-105.5
X118.5Y-109.0
X118.5Y-116.0
X118.5Y-118.0
X119.1Y-107.5
X119.5Y-118.5
X120.0Y-89.0
X124.2Y-99.18
X127.0Y-114.5
X136.5Y-98.5
X138.0Y-115.0
X138.5Y-119.0
X139.5Y-100.0
X139.5Y-106.5
X139.5Y-109.0
X140.0Y-126.0
X140.0Y-130.5
X140.5Y-104.0
X141.0Y-100.5
X141.0Y-112.0
X147.5Y-105.0
X148.0Y-108.5
X148.5Y-98.5
X150.0Y-118.5
X151.0Y-112.0
X153.0Y-93.0
X154.15Y-105.85
X154.15Y-112.4
X155.0Y-107.5
X155.5Y-100.5
X156.0Y-70.5
X157.201Y-77.0
X157.5Y-91.5
X158.0Y-112.5
X158.0Y-115.5
X158.5Y-108.5
X160.0Y-77.0
X160.0Y-93.5
X161.934Y-73.934
X163.5Y-85.5
X164.5Y-101.5
X164.5Y-128.5
X167.0Y-74.0
X167.0Y-134.5
X167.5Y-75.6
X168.0Y-101.0
X168.5Y-69.0
X168.5Y-112.5
X175.0Y-75.0
X175.0Y-77.5
X175.0Y-109.0
X175.5Y-60.5
X176.0Y-74.0
X176.0Y-76.5
X176.5Y-131.0
X177.5Y-121.5
X183.0Y-75.0
X183.0Y-77.0
X184.0Y-74.0
X184.0Y-76.0
X184.5Y-117.5
X185.0Y-128.0
X186.5Y-50.5
X187.5Y-39.0
X192.0Y-44.5
X192.0Y-124.5
X192.5Y-52.5
X196.0Y-39.0
X197.0Y-37.0
X200.0Y-52.5
X200.5Y-37.0
X201.0Y-133.0
X208.5Y-41.5
X225.0Y-36.0
X231.0Y-126.5
X231.5Y-45.0
X239.0Y-53.5
X239.0Y-118.5
X245.5Y-61.5
X246.5Y-111.0
X253.0Y-72.5
X253.5Y-102.5
X261.0Y-85.5
X261.5Y-94.0
X262.0Y-76.5
T2
X115.0Y-115.5
X115.0Y-116.5
X115.0Y-117.5
X115.0Y-118.5
X115.0Y-119.5
X115.0Y-120.5
X115.0Y-121.5
X115.0Y-122.5
X115.0Y-123.5
X115.0Y-124.5
X115.0Y-125.5
X115.0Y-126.5
X115.0Y-127.5
X115.0Y-128.5
X115.0Y-129.5
X116.0Y-115.5
X116.0Y-116.5
X116.0Y-117.5
X116.0Y-118.5
X116.0Y-119.5
X116.0Y-120.5
X116.0Y-121.5
X116.0Y-122.5
X116.0Y-123.5
X116.0Y-124.5
X116.0Y-125.5
X116.0Y-126.5
X116.0Y-127.5
X116.0Y-128.5
X116.0Y-129.5
T3
X156.0Y-80.0
X156.0Y-89.0
X156.0Y-96.5
X162.0Y-70.5
X164.0Y-108.0
X169.75Y-62.75
X178.5Y-54.0
X186.0Y-46.5
X188.5Y-128.0
X196.5Y-137.5
X197.5Y-40.5
T4
X159.0Y-53.5
X164.0Y-53.5
T5
G00X155.5Y-121.0
M15
G01X158.5Y-121.0
M16
G05
G00X155.5Y-126.18
M15
G01X158.5Y-126.18
M16
G05
M30
