G04 #@! TF.GenerationSoftware,KiCad,Pcbnew,9.0.7*
G04 #@! TF.CreationDate,2026-03-07T17:54:24+11:00*
G04 #@! TF.ProjectId,ReactorConsole,52656163-746f-4724-936f-6e736f6c652e,rev?*
G04 #@! TF.SameCoordinates,Original*
G04 #@! TF.FileFunction,Paste,Top*
G04 #@! TF.FilePolarity,Positive*
%FSLAX46Y46*%
G04 Gerber Fmt 4.6, Leading zero omitted, Abs format (unit mm)*
G04 Created by KiCad (PCBNEW 9.0.7) date 2026-03-07 17:54:24*
%MOMM*%
%LPD*%
G01*
G04 APERTURE LIST*
G04 Aperture macros list*
%AMRoundRect*
0 Rectangle with rounded corners*
0 $1 Rounding radius*
0 $2 $3 $4 $5 $6 $7 $8 $9 X,Y pos of 4 corners*
0 Add a 4 corners polygon primitive as box body*
4,1,4,$2,$3,$4,$5,$6,$7,$8,$9,$2,$3,0*
0 Add four circle primitives for the rounded corners*
1,1,$1+$1,$2,$3*
1,1,$1+$1,$4,$5*
1,1,$1+$1,$6,$7*
1,1,$1+$1,$8,$9*
0 Add four rect primitives between the rounded corners*
20,1,$1+$1,$2,$3,$4,$5,0*
20,1,$1+$1,$4,$5,$6,$7,0*
20,1,$1+$1,$6,$7,$8,$9,0*
20,1,$1+$1,$8,$9,$2,$3,0*%
G04 Aperture macros list end*
%ADD10R,1.000000X1.500000*%
%ADD11RoundRect,0.225000X-0.250000X0.225000X-0.250000X-0.225000X0.250000X-0.225000X0.250000X0.225000X0*%
%ADD12RoundRect,0.225000X0.250000X-0.225000X0.250000X0.225000X-0.250000X0.225000X-0.250000X-0.225000X0*%
%ADD13R,0.900000X1.000000*%
%ADD14RoundRect,0.250000X-0.830000X-0.310000X0.830000X-0.310000X0.830000X0.310000X-0.830000X0.310000X0*%
%ADD15RoundRect,0.200000X-0.200000X-0.275000X0.200000X-0.275000X0.200000X0.275000X-0.200000X0.275000X0*%
%ADD16RoundRect,0.250000X0.310000X-0.830000X0.310000X0.830000X-0.310000X0.830000X-0.310000X-0.830000X0*%
%ADD17R,3.800000X2.200000*%
%ADD18O,1.100000X1.800000*%
%ADD19O,1.050000X1.450000*%
%ADD20RoundRect,0.200000X0.587400X0.587400X-0.587400X0.587400X-0.587400X-0.587400X0.587400X-0.587400X0*%
%ADD21C,1.574800*%
%ADD22RoundRect,0.300000X0.450000X0.450000X-0.450000X0.450000X-0.450000X-0.450000X0.450000X-0.450000X0*%
G04 APERTURE END LIST*
D10*
G04 #@! TO.C,D36*
X233840000Y-81400000D03*
X237040000Y-81400000D03*
X237040000Y-76500000D03*
X233840000Y-76500000D03*
G04 #@! TD*
D11*
G04 #@! TO.C,C16*
X240600000Y-118225000D03*
X240600000Y-119775000D03*
G04 #@! TD*
D10*
G04 #@! TO.C,D38*
X248700000Y-81400000D03*
X251900000Y-81400000D03*
X251900000Y-76500000D03*
X248700000Y-76500000D03*
G04 #@! TD*
G04 #@! TO.C,D5*
X195000000Y-89500000D03*
X198200000Y-89500000D03*
X198200000Y-84600000D03*
X195000000Y-84600000D03*
G04 #@! TD*
G04 #@! TO.C,D148*
X194560000Y-49900000D03*
X197760000Y-49900000D03*
X197760000Y-45000000D03*
X194560000Y-45000000D03*
G04 #@! TD*
D12*
G04 #@! TO.C,C11*
X183260000Y-119875000D03*
X183260000Y-118325000D03*
G04 #@! TD*
D10*
G04 #@! TO.C,D3*
X178020000Y-89900000D03*
X181220000Y-89900000D03*
X181220000Y-85000000D03*
X178020000Y-85000000D03*
G04 #@! TD*
G04 #@! TO.C,D114*
X233540000Y-73400000D03*
X236740000Y-73400000D03*
X236740000Y-68500000D03*
X233540000Y-68500000D03*
G04 #@! TD*
D11*
G04 #@! TO.C,C22*
X255220000Y-70000000D03*
X255220000Y-71550000D03*
G04 #@! TD*
D10*
G04 #@! TO.C,D25*
X248520000Y-97450000D03*
X251720000Y-97450000D03*
X251720000Y-92550000D03*
X248520000Y-92550000D03*
G04 #@! TD*
G04 #@! TO.C,D26*
X255920000Y-97450000D03*
X259120000Y-97450000D03*
X259120000Y-92550000D03*
X255920000Y-92550000D03*
G04 #@! TD*
G04 #@! TO.C,D115*
X240880000Y-73400000D03*
X244080000Y-73400000D03*
X244080000Y-68500000D03*
X240880000Y-68500000D03*
G04 #@! TD*
G04 #@! TO.C,D56*
X186460000Y-113550000D03*
X189660000Y-113550000D03*
X189660000Y-108650000D03*
X186460000Y-108650000D03*
G04 #@! TD*
D12*
G04 #@! TO.C,C1*
X158500000Y-80050000D03*
X158500000Y-78500000D03*
G04 #@! TD*
D10*
G04 #@! TO.C,D4*
X186640000Y-89500000D03*
X189840000Y-89500000D03*
X189840000Y-84600000D03*
X186640000Y-84600000D03*
G04 #@! TD*
G04 #@! TO.C,D139*
X225760000Y-57400000D03*
X228960000Y-57400000D03*
X228960000Y-52500000D03*
X225760000Y-52500000D03*
G04 #@! TD*
G04 #@! TO.C,D63*
X240740000Y-113500000D03*
X243940000Y-113500000D03*
X243940000Y-108600000D03*
X240740000Y-108600000D03*
G04 #@! TD*
D13*
G04 #@! TO.C,SW5*
X156450000Y-112400000D03*
X160550000Y-112400000D03*
X156450000Y-114000000D03*
X160550000Y-114000000D03*
G04 #@! TD*
D10*
G04 #@! TO.C,D150*
X210380000Y-49800000D03*
X213580000Y-49800000D03*
X213580000Y-44900000D03*
X210380000Y-44900000D03*
G04 #@! TD*
G04 #@! TO.C,D42*
X177860000Y-105900000D03*
X181060000Y-105900000D03*
X181060000Y-101000000D03*
X177860000Y-101000000D03*
G04 #@! TD*
G04 #@! TO.C,D48*
X225880000Y-105400000D03*
X229080000Y-105400000D03*
X229080000Y-100500000D03*
X225880000Y-100500000D03*
G04 #@! TD*
G04 #@! TO.C,D60*
X218360000Y-113500000D03*
X221560000Y-113500000D03*
X221560000Y-108600000D03*
X218360000Y-108600000D03*
G04 #@! TD*
G04 #@! TO.C,D99*
X218840000Y-138000000D03*
X222040000Y-138000000D03*
X222040000Y-133100000D03*
X218840000Y-133100000D03*
G04 #@! TD*
D12*
G04 #@! TO.C,C9*
X167000000Y-104500000D03*
X167000000Y-102950000D03*
G04 #@! TD*
D13*
G04 #@! TO.C,SW6*
X156500000Y-108400000D03*
X160600000Y-108400000D03*
X156500000Y-110000000D03*
X160600000Y-110000000D03*
G04 #@! TD*
D10*
G04 #@! TO.C,D58*
X202560000Y-113550000D03*
X205760000Y-113550000D03*
X205760000Y-108650000D03*
X202560000Y-108650000D03*
G04 #@! TD*
G04 #@! TO.C,D71*
X202600000Y-121550000D03*
X205800000Y-121550000D03*
X205800000Y-116650000D03*
X202600000Y-116650000D03*
G04 #@! TD*
G04 #@! TO.C,D152*
X225740000Y-49800000D03*
X228940000Y-49800000D03*
X228940000Y-44900000D03*
X225740000Y-44900000D03*
G04 #@! TD*
G04 #@! TO.C,D1*
X162020000Y-89900000D03*
X165220000Y-89900000D03*
X165220000Y-85000000D03*
X162020000Y-85000000D03*
G04 #@! TD*
G04 #@! TO.C,D111*
X210660000Y-73400000D03*
X213860000Y-73400000D03*
X213860000Y-68500000D03*
X210660000Y-68500000D03*
G04 #@! TD*
G04 #@! TO.C,D16*
X178080000Y-97900000D03*
X181280000Y-97900000D03*
X181280000Y-93000000D03*
X178080000Y-93000000D03*
G04 #@! TD*
G04 #@! TO.C,D123*
X202240000Y-65500000D03*
X205440000Y-65500000D03*
X205440000Y-60600000D03*
X202240000Y-60600000D03*
G04 #@! TD*
G04 #@! TO.C,D18*
X195060000Y-97500000D03*
X198260000Y-97500000D03*
X198260000Y-92600000D03*
X195060000Y-92600000D03*
G04 #@! TD*
G04 #@! TO.C,D98*
X211000000Y-138000000D03*
X214200000Y-138000000D03*
X214200000Y-133100000D03*
X211000000Y-133100000D03*
G04 #@! TD*
G04 #@! TO.C,D70*
X194860000Y-121550000D03*
X198060000Y-121550000D03*
X198060000Y-116650000D03*
X194860000Y-116650000D03*
G04 #@! TD*
G04 #@! TO.C,D84*
X202620000Y-129600000D03*
X205820000Y-129600000D03*
X205820000Y-124700000D03*
X202620000Y-124700000D03*
G04 #@! TD*
G04 #@! TO.C,D55*
X177840000Y-113950000D03*
X181040000Y-113950000D03*
X181040000Y-109050000D03*
X177840000Y-109050000D03*
G04 #@! TD*
G04 #@! TO.C,D11*
X241040000Y-89400000D03*
X244240000Y-89400000D03*
X244240000Y-84500000D03*
X241040000Y-84500000D03*
G04 #@! TD*
G04 #@! TO.C,D19*
X202800000Y-97500000D03*
X206000000Y-97500000D03*
X206000000Y-92600000D03*
X202800000Y-92600000D03*
G04 #@! TD*
G04 #@! TO.C,D97*
X202920000Y-138100000D03*
X206120000Y-138100000D03*
X206120000Y-133200000D03*
X202920000Y-133200000D03*
G04 #@! TD*
G04 #@! TO.C,D2*
X169860000Y-89900000D03*
X173060000Y-89900000D03*
X173060000Y-85000000D03*
X169860000Y-85000000D03*
G04 #@! TD*
G04 #@! TO.C,D137*
X210680000Y-57400000D03*
X213880000Y-57400000D03*
X213880000Y-52500000D03*
X210680000Y-52500000D03*
G04 #@! TD*
G04 #@! TO.C,D62*
X233400000Y-113500000D03*
X236600000Y-113500000D03*
X236600000Y-108600000D03*
X233400000Y-108600000D03*
G04 #@! TD*
D11*
G04 #@! TO.C,C20*
X263000000Y-86725000D03*
X263000000Y-88275000D03*
G04 #@! TD*
D10*
G04 #@! TO.C,D43*
X186480000Y-105500000D03*
X189680000Y-105500000D03*
X189680000Y-100600000D03*
X186480000Y-100600000D03*
G04 #@! TD*
G04 #@! TO.C,D37*
X241180000Y-81400000D03*
X244380000Y-81400000D03*
X244380000Y-76500000D03*
X241180000Y-76500000D03*
G04 #@! TD*
G04 #@! TO.C,D164*
X218420000Y-41800000D03*
X221620000Y-41800000D03*
X221620000Y-36900000D03*
X218420000Y-36900000D03*
G04 #@! TD*
G04 #@! TO.C,D35*
X226320000Y-81400000D03*
X229520000Y-81400000D03*
X229520000Y-76500000D03*
X226320000Y-76500000D03*
G04 #@! TD*
G04 #@! TO.C,D109*
X194840000Y-73500000D03*
X198040000Y-73500000D03*
X198040000Y-68600000D03*
X194840000Y-68600000D03*
G04 #@! TD*
G04 #@! TO.C,D116*
X248400000Y-73400000D03*
X251600000Y-73400000D03*
X251600000Y-68500000D03*
X248400000Y-68500000D03*
G04 #@! TD*
G04 #@! TO.C,D151*
X218220000Y-49800000D03*
X221420000Y-49800000D03*
X221420000Y-44900000D03*
X218220000Y-44900000D03*
G04 #@! TD*
G04 #@! TO.C,D69*
X186500000Y-121550000D03*
X189700000Y-121550000D03*
X189700000Y-116650000D03*
X186500000Y-116650000D03*
G04 #@! TD*
D11*
G04 #@! TO.C,C25*
X232700000Y-46725000D03*
X232700000Y-48275000D03*
G04 #@! TD*
D10*
G04 #@! TO.C,D17*
X186700000Y-97500000D03*
X189900000Y-97500000D03*
X189900000Y-92600000D03*
X186700000Y-92600000D03*
G04 #@! TD*
G04 #@! TO.C,D127*
X233200000Y-65400000D03*
X236400000Y-65400000D03*
X236400000Y-60500000D03*
X233200000Y-60500000D03*
G04 #@! TD*
D11*
G04 #@! TO.C,C14*
X226500000Y-134950000D03*
X226500000Y-136500000D03*
G04 #@! TD*
D10*
G04 #@! TO.C,D34*
X218800000Y-81400000D03*
X222000000Y-81400000D03*
X222000000Y-76500000D03*
X218800000Y-76500000D03*
G04 #@! TD*
D11*
G04 #@! TO.C,C19*
X263000000Y-94450000D03*
X263000000Y-96000000D03*
G04 #@! TD*
D10*
G04 #@! TO.C,D13*
X255680000Y-89400000D03*
X258880000Y-89400000D03*
X258880000Y-84500000D03*
X255680000Y-84500000D03*
G04 #@! TD*
G04 #@! TO.C,D14*
X162080000Y-97900000D03*
X165280000Y-97900000D03*
X165280000Y-93000000D03*
X162080000Y-93000000D03*
G04 #@! TD*
G04 #@! TO.C,D121*
X186440000Y-65500000D03*
X189640000Y-65500000D03*
X189640000Y-60600000D03*
X186440000Y-60600000D03*
G04 #@! TD*
G04 #@! TO.C,D113*
X226020000Y-73400000D03*
X229220000Y-73400000D03*
X229220000Y-68500000D03*
X226020000Y-68500000D03*
G04 #@! TD*
G04 #@! TO.C,D138*
X218520000Y-57400000D03*
X221720000Y-57400000D03*
X221720000Y-52500000D03*
X218520000Y-52500000D03*
G04 #@! TD*
D12*
G04 #@! TO.C,C12*
X191500000Y-127875000D03*
X191500000Y-126325000D03*
G04 #@! TD*
D14*
G04 #@! TO.C,SW8*
X169770000Y-128205000D03*
X176500000Y-128205000D03*
G04 #@! TD*
D10*
G04 #@! TO.C,D85*
X210700000Y-129500000D03*
X213900000Y-129500000D03*
X213900000Y-124600000D03*
X210700000Y-124600000D03*
G04 #@! TD*
G04 #@! TO.C,D39*
X256100000Y-81400000D03*
X259300000Y-81400000D03*
X259300000Y-76500000D03*
X256100000Y-76500000D03*
G04 #@! TD*
D11*
G04 #@! TO.C,C21*
X263000000Y-78225000D03*
X263000000Y-79775000D03*
G04 #@! TD*
D13*
G04 #@! TO.C,SW3*
X150050000Y-112400000D03*
X154150000Y-112400000D03*
X150050000Y-114000000D03*
X154150000Y-114000000D03*
G04 #@! TD*
D10*
G04 #@! TO.C,D75*
X233560000Y-121450000D03*
X236760000Y-121450000D03*
X236760000Y-116550000D03*
X233560000Y-116550000D03*
G04 #@! TD*
G04 #@! TO.C,D112*
X218500000Y-73400000D03*
X221700000Y-73400000D03*
X221700000Y-68500000D03*
X218500000Y-68500000D03*
G04 #@! TD*
G04 #@! TO.C,D126*
X225680000Y-65400000D03*
X228880000Y-65400000D03*
X228880000Y-60500000D03*
X225680000Y-60500000D03*
G04 #@! TD*
G04 #@! TO.C,D31*
X195180000Y-81500000D03*
X198380000Y-81500000D03*
X198380000Y-76600000D03*
X195180000Y-76600000D03*
G04 #@! TD*
G04 #@! TO.C,D73*
X218520000Y-121450000D03*
X221720000Y-121450000D03*
X221720000Y-116550000D03*
X218520000Y-116550000D03*
G04 #@! TD*
D13*
G04 #@! TO.C,SW2*
X150050000Y-108400000D03*
X154150000Y-108400000D03*
X150050000Y-110000000D03*
X154150000Y-110000000D03*
G04 #@! TD*
D10*
G04 #@! TO.C,D51*
X248260000Y-105400000D03*
X251460000Y-105400000D03*
X251460000Y-100500000D03*
X248260000Y-100500000D03*
G04 #@! TD*
D11*
G04 #@! TO.C,C23*
X247320000Y-62000000D03*
X247320000Y-63550000D03*
G04 #@! TD*
G04 #@! TO.C,C17*
X248320000Y-110450000D03*
X248320000Y-112000000D03*
G04 #@! TD*
D10*
G04 #@! TO.C,D87*
X226060000Y-129500000D03*
X229260000Y-129500000D03*
X229260000Y-124600000D03*
X226060000Y-124600000D03*
G04 #@! TD*
G04 #@! TO.C,D44*
X194840000Y-105500000D03*
X198040000Y-105500000D03*
X198040000Y-100600000D03*
X194840000Y-100600000D03*
G04 #@! TD*
G04 #@! TO.C,D106*
X169780000Y-73900000D03*
X172980000Y-73900000D03*
X172980000Y-69000000D03*
X169780000Y-69000000D03*
G04 #@! TD*
G04 #@! TO.C,D21*
X218720000Y-97400000D03*
X221920000Y-97400000D03*
X221920000Y-92500000D03*
X218720000Y-92500000D03*
G04 #@! TD*
G04 #@! TO.C,D29*
X178200000Y-81900000D03*
X181400000Y-81900000D03*
X181400000Y-77000000D03*
X178200000Y-77000000D03*
G04 #@! TD*
D15*
G04 #@! TO.C,R1*
X191350000Y-39100000D03*
X193000000Y-39100000D03*
G04 #@! TD*
D10*
G04 #@! TO.C,D72*
X210680000Y-121450000D03*
X213880000Y-121450000D03*
X213880000Y-116550000D03*
X210680000Y-116550000D03*
G04 #@! TD*
G04 #@! TO.C,D163*
X210580000Y-41800000D03*
X213780000Y-41800000D03*
X213780000Y-36900000D03*
X210580000Y-36900000D03*
G04 #@! TD*
G04 #@! TO.C,D107*
X177940000Y-73900000D03*
X181140000Y-73900000D03*
X181140000Y-69000000D03*
X177940000Y-69000000D03*
G04 #@! TD*
G04 #@! TO.C,D86*
X218540000Y-129500000D03*
X221740000Y-129500000D03*
X221740000Y-124600000D03*
X218540000Y-124600000D03*
G04 #@! TD*
G04 #@! TO.C,D7*
X210820000Y-89400000D03*
X214020000Y-89400000D03*
X214020000Y-84500000D03*
X210820000Y-84500000D03*
G04 #@! TD*
D12*
G04 #@! TO.C,C10*
X174260000Y-112275000D03*
X174260000Y-110725000D03*
G04 #@! TD*
G04 #@! TO.C,C2*
X167000000Y-71775000D03*
X167000000Y-70225000D03*
G04 #@! TD*
D10*
G04 #@! TO.C,D22*
X226240000Y-97400000D03*
X229440000Y-97400000D03*
X229440000Y-92500000D03*
X226240000Y-92500000D03*
G04 #@! TD*
G04 #@! TO.C,D140*
X233280000Y-57400000D03*
X236480000Y-57400000D03*
X236480000Y-52500000D03*
X233280000Y-52500000D03*
G04 #@! TD*
G04 #@! TO.C,D125*
X218160000Y-65400000D03*
X221360000Y-65400000D03*
X221360000Y-60500000D03*
X218160000Y-60500000D03*
G04 #@! TD*
G04 #@! TO.C,D23*
X233660000Y-97450000D03*
X236860000Y-97450000D03*
X236860000Y-92550000D03*
X233660000Y-92550000D03*
G04 #@! TD*
D12*
G04 #@! TO.C,C13*
X199420000Y-136375000D03*
X199420000Y-134825000D03*
G04 #@! TD*
D10*
G04 #@! TO.C,D27*
X162200000Y-81900000D03*
X165400000Y-81900000D03*
X165400000Y-77000000D03*
X162200000Y-77000000D03*
G04 #@! TD*
G04 #@! TO.C,D108*
X186560000Y-73500000D03*
X189760000Y-73500000D03*
X189760000Y-68600000D03*
X186560000Y-68600000D03*
G04 #@! TD*
G04 #@! TO.C,D59*
X210640000Y-113450000D03*
X213840000Y-113450000D03*
X213840000Y-108550000D03*
X210640000Y-108550000D03*
G04 #@! TD*
G04 #@! TO.C,D149*
X202300000Y-49900000D03*
X205500000Y-49900000D03*
X205500000Y-45000000D03*
X202300000Y-45000000D03*
G04 #@! TD*
D12*
G04 #@! TO.C,C5*
X191000000Y-48375000D03*
X191000000Y-46825000D03*
G04 #@! TD*
D14*
G04 #@! TO.C,SW9*
X169770000Y-134000000D03*
X176500000Y-134000000D03*
G04 #@! TD*
D10*
G04 #@! TO.C,D32*
X202920000Y-81500000D03*
X206120000Y-81500000D03*
X206120000Y-76600000D03*
X202920000Y-76600000D03*
G04 #@! TD*
G04 #@! TO.C,D124*
X210300000Y-65500000D03*
X213500000Y-65500000D03*
X213500000Y-60600000D03*
X210300000Y-60600000D03*
G04 #@! TD*
D11*
G04 #@! TO.C,C18*
X255220000Y-102225000D03*
X255220000Y-103775000D03*
G04 #@! TD*
D10*
G04 #@! TO.C,D61*
X225880000Y-113500000D03*
X229080000Y-113500000D03*
X229080000Y-108600000D03*
X225880000Y-108600000D03*
G04 #@! TD*
D12*
G04 #@! TO.C,C3*
X174260000Y-64550000D03*
X174260000Y-63000000D03*
G04 #@! TD*
D10*
G04 #@! TO.C,D128*
X240540000Y-65400000D03*
X243740000Y-65400000D03*
X243740000Y-60500000D03*
X240540000Y-60500000D03*
G04 #@! TD*
G04 #@! TO.C,D33*
X211000000Y-81400000D03*
X214200000Y-81400000D03*
X214200000Y-76500000D03*
X211000000Y-76500000D03*
G04 #@! TD*
G04 #@! TO.C,D8*
X218660000Y-89400000D03*
X221860000Y-89400000D03*
X221860000Y-84500000D03*
X218660000Y-84500000D03*
G04 #@! TD*
G04 #@! TO.C,D9*
X226180000Y-89400000D03*
X229380000Y-89400000D03*
X229380000Y-84500000D03*
X226180000Y-84500000D03*
G04 #@! TD*
G04 #@! TO.C,D122*
X194800000Y-65500000D03*
X198000000Y-65500000D03*
X198000000Y-60600000D03*
X194800000Y-60600000D03*
G04 #@! TD*
G04 #@! TO.C,D12*
X248280000Y-89400000D03*
X251480000Y-89400000D03*
X251480000Y-84500000D03*
X248280000Y-84500000D03*
G04 #@! TD*
D12*
G04 #@! TO.C,C4*
X182760000Y-55650000D03*
X182760000Y-54100000D03*
G04 #@! TD*
D10*
G04 #@! TO.C,D41*
X169700000Y-105900000D03*
X172900000Y-105900000D03*
X172900000Y-101000000D03*
X169700000Y-101000000D03*
G04 #@! TD*
G04 #@! TO.C,D83*
X194880000Y-129600000D03*
X198080000Y-129600000D03*
X198080000Y-124700000D03*
X194880000Y-124700000D03*
G04 #@! TD*
G04 #@! TO.C,D15*
X169920000Y-97900000D03*
X173120000Y-97900000D03*
X173120000Y-93000000D03*
X169920000Y-93000000D03*
G04 #@! TD*
D11*
G04 #@! TO.C,C24*
X240100000Y-54500000D03*
X240100000Y-56050000D03*
G04 #@! TD*
D10*
G04 #@! TO.C,D57*
X194820000Y-113550000D03*
X198020000Y-113550000D03*
X198020000Y-108650000D03*
X194820000Y-108650000D03*
G04 #@! TD*
G04 #@! TO.C,D30*
X186820000Y-81500000D03*
X190020000Y-81500000D03*
X190020000Y-76600000D03*
X186820000Y-76600000D03*
G04 #@! TD*
G04 #@! TO.C,D28*
X170040000Y-81900000D03*
X173240000Y-81900000D03*
X173240000Y-77000000D03*
X170040000Y-77000000D03*
G04 #@! TD*
D11*
G04 #@! TO.C,C15*
X233200000Y-126225000D03*
X233200000Y-127775000D03*
G04 #@! TD*
D12*
G04 #@! TO.C,C6*
X199120000Y-40100000D03*
X199120000Y-38550000D03*
G04 #@! TD*
D10*
G04 #@! TO.C,D20*
X210880000Y-97400000D03*
X214080000Y-97400000D03*
X214080000Y-92500000D03*
X210880000Y-92500000D03*
G04 #@! TD*
G04 #@! TO.C,D10*
X233700000Y-89400000D03*
X236900000Y-89400000D03*
X236900000Y-84500000D03*
X233700000Y-84500000D03*
G04 #@! TD*
D11*
G04 #@! TO.C,C26*
X226200000Y-38450000D03*
X226200000Y-40000000D03*
G04 #@! TD*
D10*
G04 #@! TO.C,D74*
X226040000Y-121450000D03*
X229240000Y-121450000D03*
X229240000Y-116550000D03*
X226040000Y-116550000D03*
G04 #@! TD*
G04 #@! TO.C,D120*
X177820000Y-65900000D03*
X181020000Y-65900000D03*
X181020000Y-61000000D03*
X177820000Y-61000000D03*
G04 #@! TD*
D13*
G04 #@! TO.C,SW4*
X156450000Y-104200000D03*
X160550000Y-104200000D03*
X156450000Y-105800000D03*
X160550000Y-105800000D03*
G04 #@! TD*
D10*
G04 #@! TO.C,D6*
X202740000Y-89500000D03*
X205940000Y-89500000D03*
X205940000Y-84600000D03*
X202740000Y-84600000D03*
G04 #@! TD*
D16*
G04 #@! TO.C,SW7*
X182000000Y-134275000D03*
X182000000Y-127545000D03*
G04 #@! TD*
D10*
G04 #@! TO.C,D47*
X218360000Y-105400000D03*
X221560000Y-105400000D03*
X221560000Y-100500000D03*
X218360000Y-100500000D03*
G04 #@! TD*
G04 #@! TO.C,D45*
X202580000Y-105500000D03*
X205780000Y-105500000D03*
X205780000Y-100600000D03*
X202580000Y-100600000D03*
G04 #@! TD*
G04 #@! TO.C,D24*
X241000000Y-97450000D03*
X244200000Y-97450000D03*
X244200000Y-92550000D03*
X241000000Y-92550000D03*
G04 #@! TD*
G04 #@! TO.C,D49*
X233400000Y-105400000D03*
X236600000Y-105400000D03*
X236600000Y-100500000D03*
X233400000Y-100500000D03*
G04 #@! TD*
G04 #@! TO.C,D135*
X194860000Y-57500000D03*
X198060000Y-57500000D03*
X198060000Y-52600000D03*
X194860000Y-52600000D03*
G04 #@! TD*
G04 #@! TO.C,D50*
X240740000Y-105400000D03*
X243940000Y-105400000D03*
X243940000Y-100500000D03*
X240740000Y-100500000D03*
G04 #@! TD*
D12*
G04 #@! TO.C,C7*
X158500000Y-88275000D03*
X158500000Y-86725000D03*
G04 #@! TD*
D17*
G04 #@! TO.C,A1*
X143580000Y-137280000D03*
X143580000Y-134740000D03*
X143580000Y-132200000D03*
X143580000Y-129660000D03*
X143580000Y-127120000D03*
X143580000Y-124580000D03*
X143580000Y-122040000D03*
X143580000Y-119500000D03*
X143580000Y-116960000D03*
X143580000Y-114420000D03*
X143580000Y-111880000D03*
X143580000Y-109340000D03*
X143580000Y-106800000D03*
X143580000Y-104260000D03*
X143580000Y-101720000D03*
X143580000Y-99180000D03*
X143580000Y-96640000D03*
X143580000Y-94100000D03*
X143580000Y-91560000D03*
X143580000Y-89020000D03*
D18*
X136615000Y-137150000D03*
D19*
X136315000Y-134120000D03*
X131465000Y-134120000D03*
D18*
X131165000Y-137150000D03*
D17*
X124200000Y-137280000D03*
X124200000Y-134740000D03*
X124200000Y-132200000D03*
X124200000Y-129660000D03*
X124200000Y-127120000D03*
X124200000Y-124580000D03*
X124200000Y-122040000D03*
X124200000Y-119500000D03*
X124200000Y-116960000D03*
X124200000Y-114420000D03*
X124200000Y-111880000D03*
X124200000Y-109340000D03*
X124200000Y-106800000D03*
X124200000Y-104260000D03*
X124200000Y-101720000D03*
X124200000Y-99180000D03*
X124200000Y-96640000D03*
X124200000Y-94100000D03*
X124200000Y-91560000D03*
X124200000Y-89020000D03*
D20*
X133305900Y-107450000D03*
D21*
X130765900Y-107450000D03*
X128225900Y-107450000D03*
D22*
X133890000Y-134150000D03*
X132890000Y-137450000D03*
X134890000Y-137450000D03*
X136390000Y-129150000D03*
X136390000Y-126650000D03*
X136390000Y-124150000D03*
G04 #@! TD*
D10*
G04 #@! TO.C,D162*
X202500000Y-41900000D03*
X205700000Y-41900000D03*
X205700000Y-37000000D03*
X202500000Y-37000000D03*
G04 #@! TD*
D12*
G04 #@! TO.C,C8*
X158500000Y-96275000D03*
X158500000Y-94725000D03*
G04 #@! TD*
D10*
G04 #@! TO.C,D110*
X202580000Y-73500000D03*
X205780000Y-73500000D03*
X205780000Y-68600000D03*
X202580000Y-68600000D03*
G04 #@! TD*
D13*
G04 #@! TO.C,SW1*
X150050000Y-104250000D03*
X154150000Y-104250000D03*
X150050000Y-105850000D03*
X154150000Y-105850000D03*
G04 #@! TD*
D10*
G04 #@! TO.C,D46*
X210520000Y-105400000D03*
X213720000Y-105400000D03*
X213720000Y-100500000D03*
X210520000Y-100500000D03*
G04 #@! TD*
G04 #@! TO.C,D136*
X202600000Y-57500000D03*
X205800000Y-57500000D03*
X205800000Y-52600000D03*
X202600000Y-52600000D03*
G04 #@! TD*
G04 #@! TO.C,D134*
X186500000Y-57500000D03*
X189700000Y-57500000D03*
X189700000Y-52600000D03*
X186500000Y-52600000D03*
G04 #@! TD*
M02*
