%TF.GenerationSoftware,KiCad,Pcbnew,9.0.7*%
%TF.CreationDate,2026-03-07T17:54:24+11:00*%
%TF.ProjectId,ReactorConsole,52656163-746f-4724-936f-6e736f6c652e,rev?*%
%TF.SameCoordinates,Original*%
%TF.FileFunction,Drillmap*%
%TF.FilePolarity,Positive*%
%FSLAX45Y45*%
G04 Gerber Fmt 4.5, Leading zero omitted, Abs format (unit mm)*
G04 Created by KiCad (PCBNEW 9.0.7) date 2026-03-07 17:54:24*
%MOMM*%
%LPD*%
G01*
G04 APERTURE LIST*
%ADD10C,0.050000*%
%ADD11C,0.120000*%
%ADD12C,0.200000*%
%ADD13C,0.100000*%
%ADD14C,0.102000*%
G04 APERTURE END LIST*
D10*
X11150000Y-3350000D02*
G75*
G02*
X11250000Y-3250000I100000J0D01*
G01*
X11250000Y-14100000D02*
G75*
G02*
X11150000Y-14000000I0J100000D01*
G01*
X26800000Y-3250000D02*
G75*
G02*
X26900000Y-3350000I0J-100000D01*
G01*
X26900000Y-14000000D02*
G75*
G02*
X26800000Y-14100000I-100000J0D01*
G01*
X11250000Y-3250000D02*
X26800000Y-3250000D01*
X11150000Y-14000000D02*
X11150000Y-3350000D01*
X26900000Y-3350000D02*
X26900000Y-14000000D01*
X26800000Y-14100000D02*
X11250000Y-14100000D01*
D11*
X14800000Y-13967000D02*
X16600000Y-13967000D01*
D12*
D13*
X11285000Y-12285000D02*
X11315000Y-12315000D01*
X11315000Y-12285000D02*
X11285000Y-12315000D01*
X11335000Y-12835000D02*
X11365000Y-12865000D01*
X11365000Y-12835000D02*
X11335000Y-12865000D01*
X11345000Y-11435000D02*
X11375000Y-11465000D01*
X11375000Y-11435000D02*
X11345000Y-11465000D01*
X11385000Y-11135000D02*
X11415000Y-11165000D01*
X11415000Y-11135000D02*
X11385000Y-11165000D01*
X11435000Y-11235000D02*
X11465000Y-11265000D01*
X11465000Y-11235000D02*
X11435000Y-11265000D01*
X11435000Y-11395000D02*
X11465000Y-11425000D01*
X11465000Y-11395000D02*
X11435000Y-11425000D01*
X11485000Y-13035000D02*
X11515000Y-13065000D01*
X11515000Y-13035000D02*
X11485000Y-13065000D01*
X11767573Y-11917573D02*
X11797573Y-11947573D01*
X11797573Y-11917573D02*
X11767573Y-11947573D01*
X11835000Y-10535000D02*
X11865000Y-10565000D01*
X11865000Y-10535000D02*
X11835000Y-10565000D01*
X11835000Y-10885000D02*
X11865000Y-10915000D01*
X11865000Y-10885000D02*
X11835000Y-10915000D01*
X11835000Y-11585000D02*
X11865000Y-11615000D01*
X11865000Y-11585000D02*
X11835000Y-11615000D01*
X11835000Y-11785000D02*
X11865000Y-11815000D01*
X11865000Y-11785000D02*
X11835000Y-11815000D01*
X11895000Y-10735000D02*
X11925000Y-10765000D01*
X11925000Y-10735000D02*
X11895000Y-10765000D01*
X11935000Y-11835000D02*
X11965000Y-11865000D01*
X11965000Y-11835000D02*
X11935000Y-11865000D01*
X11985000Y-8885000D02*
X12015000Y-8915000D01*
X12015000Y-8885000D02*
X11985000Y-8915000D01*
X12405000Y-9903000D02*
X12435000Y-9933000D01*
X12435000Y-9903000D02*
X12405000Y-9933000D01*
X12685000Y-11435000D02*
X12715000Y-11465000D01*
X12715000Y-11435000D02*
X12685000Y-11465000D01*
X13635000Y-9835000D02*
X13665000Y-9865000D01*
X13665000Y-9835000D02*
X13635000Y-9865000D01*
X13785000Y-11485000D02*
X13815000Y-11515000D01*
X13815000Y-11485000D02*
X13785000Y-11515000D01*
X13835000Y-11885000D02*
X13865000Y-11915000D01*
X13865000Y-11885000D02*
X13835000Y-11915000D01*
X13935000Y-9985000D02*
X13965000Y-10015000D01*
X13965000Y-9985000D02*
X13935000Y-10015000D01*
X13935000Y-10635000D02*
X13965000Y-10665000D01*
X13965000Y-10635000D02*
X13935000Y-10665000D01*
X13935000Y-10885000D02*
X13965000Y-10915000D01*
X13965000Y-10885000D02*
X13935000Y-10915000D01*
X13985000Y-12585000D02*
X14015000Y-12615000D01*
X14015000Y-12585000D02*
X13985000Y-12615000D01*
X13985000Y-13035000D02*
X14015000Y-13065000D01*
X14015000Y-13035000D02*
X13985000Y-13065000D01*
X14035000Y-10385000D02*
X14065000Y-10415000D01*
X14065000Y-10385000D02*
X14035000Y-10415000D01*
X14085000Y-10035000D02*
X14115000Y-10065000D01*
X14115000Y-10035000D02*
X14085000Y-10065000D01*
X14085000Y-11185000D02*
X14115000Y-11215000D01*
X14115000Y-11185000D02*
X14085000Y-11215000D01*
X14735000Y-10485000D02*
X14765000Y-10515000D01*
X14765000Y-10485000D02*
X14735000Y-10515000D01*
X14785000Y-10835000D02*
X14815000Y-10865000D01*
X14815000Y-10835000D02*
X14785000Y-10865000D01*
X14835000Y-9835000D02*
X14865000Y-9865000D01*
X14865000Y-9835000D02*
X14835000Y-9865000D01*
X14985000Y-11835000D02*
X15015000Y-11865000D01*
X15015000Y-11835000D02*
X14985000Y-11865000D01*
X15085000Y-11185000D02*
X15115000Y-11215000D01*
X15115000Y-11185000D02*
X15085000Y-11215000D01*
X15285000Y-9285000D02*
X15315000Y-9315000D01*
X15315000Y-9285000D02*
X15285000Y-9315000D01*
X15400000Y-10570000D02*
X15430000Y-10600000D01*
X15430000Y-10570000D02*
X15400000Y-10600000D01*
X15400000Y-11225000D02*
X15430000Y-11255000D01*
X15430000Y-11225000D02*
X15400000Y-11255000D01*
X15485000Y-10735000D02*
X15515000Y-10765000D01*
X15515000Y-10735000D02*
X15485000Y-10765000D01*
X15535000Y-10035000D02*
X15565000Y-10065000D01*
X15565000Y-10035000D02*
X15535000Y-10065000D01*
X15585000Y-7035000D02*
X15615000Y-7065000D01*
X15615000Y-7035000D02*
X15585000Y-7065000D01*
X15705100Y-7685000D02*
X15735100Y-7715000D01*
X15735100Y-7685000D02*
X15705100Y-7715000D01*
X15735000Y-9135000D02*
X15765000Y-9165000D01*
X15765000Y-9135000D02*
X15735000Y-9165000D01*
X15785000Y-11235000D02*
X15815000Y-11265000D01*
X15815000Y-11235000D02*
X15785000Y-11265000D01*
X15785000Y-11535000D02*
X15815000Y-11565000D01*
X15815000Y-11535000D02*
X15785000Y-11565000D01*
X15835000Y-10835000D02*
X15865000Y-10865000D01*
X15865000Y-10835000D02*
X15835000Y-10865000D01*
X15985000Y-7685000D02*
X16015000Y-7715000D01*
X16015000Y-7685000D02*
X15985000Y-7715000D01*
X15985000Y-9335000D02*
X16015000Y-9365000D01*
X16015000Y-9335000D02*
X15985000Y-9365000D01*
X16178361Y-7378361D02*
X16208361Y-7408361D01*
X16208361Y-7378361D02*
X16178361Y-7408361D01*
X16335000Y-8535000D02*
X16365000Y-8565000D01*
X16365000Y-8535000D02*
X16335000Y-8565000D01*
X16435000Y-10135000D02*
X16465000Y-10165000D01*
X16465000Y-10135000D02*
X16435000Y-10165000D01*
X16435000Y-12835000D02*
X16465000Y-12865000D01*
X16465000Y-12835000D02*
X16435000Y-12865000D01*
X16685000Y-7385000D02*
X16715000Y-7415000D01*
X16715000Y-7385000D02*
X16685000Y-7415000D01*
X16685000Y-13435000D02*
X16715000Y-13465000D01*
X16715000Y-13435000D02*
X16685000Y-13465000D01*
X16735000Y-7545000D02*
X16765000Y-7575000D01*
X16765000Y-7545000D02*
X16735000Y-7575000D01*
X16785000Y-10085000D02*
X16815000Y-10115000D01*
X16815000Y-10085000D02*
X16785000Y-10115000D01*
X16835000Y-6885000D02*
X16865000Y-6915000D01*
X16865000Y-6885000D02*
X16835000Y-6915000D01*
X16835000Y-11235000D02*
X16865000Y-11265000D01*
X16865000Y-11235000D02*
X16835000Y-11265000D01*
X17485000Y-7485000D02*
X17515000Y-7515000D01*
X17515000Y-7485000D02*
X17485000Y-7515000D01*
X17485000Y-7735000D02*
X17515000Y-7765000D01*
X17515000Y-7735000D02*
X17485000Y-7765000D01*
X17485000Y-10885000D02*
X17515000Y-10915000D01*
X17515000Y-10885000D02*
X17485000Y-10915000D01*
X17535000Y-6035000D02*
X17565000Y-6065000D01*
X17565000Y-6035000D02*
X17535000Y-6065000D01*
X17585000Y-7385000D02*
X17615000Y-7415000D01*
X17615000Y-7385000D02*
X17585000Y-7415000D01*
X17585000Y-7635000D02*
X17615000Y-7665000D01*
X17615000Y-7635000D02*
X17585000Y-7665000D01*
X17635000Y-13085000D02*
X17665000Y-13115000D01*
X17665000Y-13085000D02*
X17635000Y-13115000D01*
X17735000Y-12135000D02*
X17765000Y-12165000D01*
X17765000Y-12135000D02*
X17735000Y-12165000D01*
X18285000Y-7485000D02*
X18315000Y-7515000D01*
X18315000Y-7485000D02*
X18285000Y-7515000D01*
X18285000Y-7685000D02*
X18315000Y-7715000D01*
X18315000Y-7685000D02*
X18285000Y-7715000D01*
X18385000Y-7385000D02*
X18415000Y-7415000D01*
X18415000Y-7385000D02*
X18385000Y-7415000D01*
X18385000Y-7585000D02*
X18415000Y-7615000D01*
X18415000Y-7585000D02*
X18385000Y-7615000D01*
X18435000Y-11735000D02*
X18465000Y-11765000D01*
X18465000Y-11735000D02*
X18435000Y-11765000D01*
X18485000Y-12785000D02*
X18515000Y-12815000D01*
X18515000Y-12785000D02*
X18485000Y-12815000D01*
X18635000Y-5035000D02*
X18665000Y-5065000D01*
X18665000Y-5035000D02*
X18635000Y-5065000D01*
X18735000Y-3885000D02*
X18765000Y-3915000D01*
X18765000Y-3885000D02*
X18735000Y-3915000D01*
X19185000Y-4435000D02*
X19215000Y-4465000D01*
X19215000Y-4435000D02*
X19185000Y-4465000D01*
X19185000Y-12435000D02*
X19215000Y-12465000D01*
X19215000Y-12435000D02*
X19185000Y-12465000D01*
X19235000Y-5235000D02*
X19265000Y-5265000D01*
X19265000Y-5235000D02*
X19235000Y-5265000D01*
X19585000Y-3885000D02*
X19615000Y-3915000D01*
X19615000Y-3885000D02*
X19585000Y-3915000D01*
X19685000Y-3685000D02*
X19715000Y-3715000D01*
X19715000Y-3685000D02*
X19685000Y-3715000D01*
X19985000Y-5235000D02*
X20015000Y-5265000D01*
X20015000Y-5235000D02*
X19985000Y-5265000D01*
X20035000Y-3685000D02*
X20065000Y-3715000D01*
X20065000Y-3685000D02*
X20035000Y-3715000D01*
X20085000Y-13285000D02*
X20115000Y-13315000D01*
X20115000Y-13285000D02*
X20085000Y-13315000D01*
X20835000Y-4135000D02*
X20865000Y-4165000D01*
X20865000Y-4135000D02*
X20835000Y-4165000D01*
X22485000Y-3585000D02*
X22515000Y-3615000D01*
X22515000Y-3585000D02*
X22485000Y-3615000D01*
X23085000Y-12635000D02*
X23115000Y-12665000D01*
X23115000Y-12635000D02*
X23085000Y-12665000D01*
X23135000Y-4485000D02*
X23165000Y-4515000D01*
X23165000Y-4485000D02*
X23135000Y-4515000D01*
X23885000Y-5335000D02*
X23915000Y-5365000D01*
X23915000Y-5335000D02*
X23885000Y-5365000D01*
X23885000Y-11835000D02*
X23915000Y-11865000D01*
X23915000Y-11835000D02*
X23885000Y-11865000D01*
X24535000Y-6135000D02*
X24565000Y-6165000D01*
X24565000Y-6135000D02*
X24535000Y-6165000D01*
X24635000Y-11085000D02*
X24665000Y-11115000D01*
X24665000Y-11085000D02*
X24635000Y-11115000D01*
X25285000Y-7235000D02*
X25315000Y-7265000D01*
X25315000Y-7235000D02*
X25285000Y-7265000D01*
X25335000Y-10235000D02*
X25365000Y-10265000D01*
X25365000Y-10235000D02*
X25335000Y-10265000D01*
X26085000Y-8535000D02*
X26115000Y-8565000D01*
X26115000Y-8535000D02*
X26085000Y-8565000D01*
X26135000Y-9385000D02*
X26165000Y-9415000D01*
X26165000Y-9385000D02*
X26135000Y-9415000D01*
X26185000Y-7635000D02*
X26215000Y-7665000D01*
X26215000Y-7635000D02*
X26185000Y-7665000D01*
X11525000Y-11550000D02*
G75*
G02*
X11475000Y-11550000I-25000J0D01*
G01*
X11475000Y-11550000D02*
G75*
G02*
X11525000Y-11550000I25000J0D01*
G01*
X11525000Y-11650000D02*
G75*
G02*
X11475000Y-11650000I-25000J0D01*
G01*
X11475000Y-11650000D02*
G75*
G02*
X11525000Y-11650000I25000J0D01*
G01*
X11525000Y-11750000D02*
G75*
G02*
X11475000Y-11750000I-25000J0D01*
G01*
X11475000Y-11750000D02*
G75*
G02*
X11525000Y-11750000I25000J0D01*
G01*
X11525000Y-11850000D02*
G75*
G02*
X11475000Y-11850000I-25000J0D01*
G01*
X11475000Y-11850000D02*
G75*
G02*
X11525000Y-11850000I25000J0D01*
G01*
X11525000Y-11950000D02*
G75*
G02*
X11475000Y-11950000I-25000J0D01*
G01*
X11475000Y-11950000D02*
G75*
G02*
X11525000Y-11950000I25000J0D01*
G01*
X11525000Y-12050000D02*
G75*
G02*
X11475000Y-12050000I-25000J0D01*
G01*
X11475000Y-12050000D02*
G75*
G02*
X11525000Y-12050000I25000J0D01*
G01*
X11525000Y-12150000D02*
G75*
G02*
X11475000Y-12150000I-25000J0D01*
G01*
X11475000Y-12150000D02*
G75*
G02*
X11525000Y-12150000I25000J0D01*
G01*
X11525000Y-12250000D02*
G75*
G02*
X11475000Y-12250000I-25000J0D01*
G01*
X11475000Y-12250000D02*
G75*
G02*
X11525000Y-12250000I25000J0D01*
G01*
X11525000Y-12350000D02*
G75*
G02*
X11475000Y-12350000I-25000J0D01*
G01*
X11475000Y-12350000D02*
G75*
G02*
X11525000Y-12350000I25000J0D01*
G01*
X11525000Y-12450000D02*
G75*
G02*
X11475000Y-12450000I-25000J0D01*
G01*
X11475000Y-12450000D02*
G75*
G02*
X11525000Y-12450000I25000J0D01*
G01*
X11525000Y-12550000D02*
G75*
G02*
X11475000Y-12550000I-25000J0D01*
G01*
X11475000Y-12550000D02*
G75*
G02*
X11525000Y-12550000I25000J0D01*
G01*
X11525000Y-12650000D02*
G75*
G02*
X11475000Y-12650000I-25000J0D01*
G01*
X11475000Y-12650000D02*
G75*
G02*
X11525000Y-12650000I25000J0D01*
G01*
X11525000Y-12750000D02*
G75*
G02*
X11475000Y-12750000I-25000J0D01*
G01*
X11475000Y-12750000D02*
G75*
G02*
X11525000Y-12750000I25000J0D01*
G01*
X11525000Y-12850000D02*
G75*
G02*
X11475000Y-12850000I-25000J0D01*
G01*
X11475000Y-12850000D02*
G75*
G02*
X11525000Y-12850000I25000J0D01*
G01*
X11525000Y-12950000D02*
G75*
G02*
X11475000Y-12950000I-25000J0D01*
G01*
X11475000Y-12950000D02*
G75*
G02*
X11525000Y-12950000I25000J0D01*
G01*
X11625000Y-11550000D02*
G75*
G02*
X11575000Y-11550000I-25000J0D01*
G01*
X11575000Y-11550000D02*
G75*
G02*
X11625000Y-11550000I25000J0D01*
G01*
X11625000Y-11650000D02*
G75*
G02*
X11575000Y-11650000I-25000J0D01*
G01*
X11575000Y-11650000D02*
G75*
G02*
X11625000Y-11650000I25000J0D01*
G01*
X11625000Y-11750000D02*
G75*
G02*
X11575000Y-11750000I-25000J0D01*
G01*
X11575000Y-11750000D02*
G75*
G02*
X11625000Y-11750000I25000J0D01*
G01*
X11625000Y-11850000D02*
G75*
G02*
X11575000Y-11850000I-25000J0D01*
G01*
X11575000Y-11850000D02*
G75*
G02*
X11625000Y-11850000I25000J0D01*
G01*
X11625000Y-11950000D02*
G75*
G02*
X11575000Y-11950000I-25000J0D01*
G01*
X11575000Y-11950000D02*
G75*
G02*
X11625000Y-11950000I25000J0D01*
G01*
X11625000Y-12050000D02*
G75*
G02*
X11575000Y-12050000I-25000J0D01*
G01*
X11575000Y-12050000D02*
G75*
G02*
X11625000Y-12050000I25000J0D01*
G01*
X11625000Y-12150000D02*
G75*
G02*
X11575000Y-12150000I-25000J0D01*
G01*
X11575000Y-12150000D02*
G75*
G02*
X11625000Y-12150000I25000J0D01*
G01*
X11625000Y-12250000D02*
G75*
G02*
X11575000Y-12250000I-25000J0D01*
G01*
X11575000Y-12250000D02*
G75*
G02*
X11625000Y-12250000I25000J0D01*
G01*
X11625000Y-12350000D02*
G75*
G02*
X11575000Y-12350000I-25000J0D01*
G01*
X11575000Y-12350000D02*
G75*
G02*
X11625000Y-12350000I25000J0D01*
G01*
X11625000Y-12450000D02*
G75*
G02*
X11575000Y-12450000I-25000J0D01*
G01*
X11575000Y-12450000D02*
G75*
G02*
X11625000Y-12450000I25000J0D01*
G01*
X11625000Y-12550000D02*
G75*
G02*
X11575000Y-12550000I-25000J0D01*
G01*
X11575000Y-12550000D02*
G75*
G02*
X11625000Y-12550000I25000J0D01*
G01*
X11625000Y-12650000D02*
G75*
G02*
X11575000Y-12650000I-25000J0D01*
G01*
X11575000Y-12650000D02*
G75*
G02*
X11625000Y-12650000I25000J0D01*
G01*
X11625000Y-12750000D02*
G75*
G02*
X11575000Y-12750000I-25000J0D01*
G01*
X11575000Y-12750000D02*
G75*
G02*
X11625000Y-12750000I25000J0D01*
G01*
X11625000Y-12850000D02*
G75*
G02*
X11575000Y-12850000I-25000J0D01*
G01*
X11575000Y-12850000D02*
G75*
G02*
X11625000Y-12850000I25000J0D01*
G01*
X11625000Y-12950000D02*
G75*
G02*
X11575000Y-12950000I-25000J0D01*
G01*
X11575000Y-12950000D02*
G75*
G02*
X11625000Y-12950000I25000J0D01*
G01*
X15600000Y-7950000D02*
X15600000Y-8050000D01*
X15550000Y-8000000D02*
X15650000Y-8000000D01*
X15600000Y-8850000D02*
X15600000Y-8950000D01*
X15550000Y-8900000D02*
X15650000Y-8900000D01*
X15600000Y-9600000D02*
X15600000Y-9700000D01*
X15550000Y-9650000D02*
X15650000Y-9650000D01*
X16200000Y-7000000D02*
X16200000Y-7100000D01*
X16150000Y-7050000D02*
X16250000Y-7050000D01*
X16400000Y-10750000D02*
X16400000Y-10850000D01*
X16350000Y-10800000D02*
X16450000Y-10800000D01*
X16975000Y-6225000D02*
X16975000Y-6325000D01*
X16925000Y-6275000D02*
X17025000Y-6275000D01*
X17850000Y-5350000D02*
X17850000Y-5450000D01*
X17800000Y-5400000D02*
X17900000Y-5400000D01*
X18600000Y-4600000D02*
X18600000Y-4700000D01*
X18550000Y-4650000D02*
X18650000Y-4650000D01*
X18850000Y-12750000D02*
X18850000Y-12850000D01*
X18800000Y-12800000D02*
X18900000Y-12800000D01*
X19650000Y-13700000D02*
X19650000Y-13800000D01*
X19600000Y-13750000D02*
X19700000Y-13750000D01*
X19750000Y-4000000D02*
X19750000Y-4100000D01*
X19700000Y-4050000D02*
X19800000Y-4050000D01*
X15935356Y-5385356D02*
X15935356Y-5314644D01*
X15864644Y-5314644D01*
X15864644Y-5385356D01*
X15935356Y-5385356D01*
X16435356Y-5385356D02*
X16435356Y-5314644D01*
X16364644Y-5314644D01*
X16364644Y-5385356D01*
X16435356Y-5385356D01*
D14*
X15700000Y-12151000D02*
X15751000Y-12100000D01*
X15700000Y-12049000D01*
X15649000Y-12100000D01*
X15700000Y-12151000D01*
D13*
X15550000Y-12151000D02*
X15850000Y-12151000D01*
X15850000Y-12049000D02*
G75*
G02*
X15850000Y-12151000I0J-51000D01*
G01*
X15850000Y-12049000D02*
X15550000Y-12049000D01*
X15550000Y-12049000D02*
G75*
G03*
X15550000Y-12151000I0J-51000D01*
G01*
D14*
X15700000Y-12669000D02*
X15751000Y-12618000D01*
X15700000Y-12567000D01*
X15649000Y-12618000D01*
X15700000Y-12669000D01*
D13*
X15550000Y-12669000D02*
X15850000Y-12669000D01*
X15850000Y-12567000D02*
G75*
G02*
X15850000Y-12669000I0J-51000D01*
G01*
X15850000Y-12567000D02*
X15550000Y-12567000D01*
X15550000Y-12567000D02*
G75*
G03*
X15550000Y-12669000I0J-51000D01*
G01*
D12*
X11408277Y-14413984D02*
X11408277Y-14213984D01*
X11408277Y-14213984D02*
X11455896Y-14213984D01*
X11455896Y-14213984D02*
X11484467Y-14223508D01*
X11484467Y-14223508D02*
X11503515Y-14242555D01*
X11503515Y-14242555D02*
X11513039Y-14261603D01*
X11513039Y-14261603D02*
X11522562Y-14299698D01*
X11522562Y-14299698D02*
X11522562Y-14328269D01*
X11522562Y-14328269D02*
X11513039Y-14366365D01*
X11513039Y-14366365D02*
X11503515Y-14385412D01*
X11503515Y-14385412D02*
X11484467Y-14404460D01*
X11484467Y-14404460D02*
X11455896Y-14413984D01*
X11455896Y-14413984D02*
X11408277Y-14413984D01*
X11608277Y-14413984D02*
X11608277Y-14280650D01*
X11608277Y-14318746D02*
X11617801Y-14299698D01*
X11617801Y-14299698D02*
X11627324Y-14290174D01*
X11627324Y-14290174D02*
X11646372Y-14280650D01*
X11646372Y-14280650D02*
X11665420Y-14280650D01*
X11732086Y-14413984D02*
X11732086Y-14280650D01*
X11732086Y-14213984D02*
X11722562Y-14223508D01*
X11722562Y-14223508D02*
X11732086Y-14233031D01*
X11732086Y-14233031D02*
X11741610Y-14223508D01*
X11741610Y-14223508D02*
X11732086Y-14213984D01*
X11732086Y-14213984D02*
X11732086Y-14233031D01*
X11855896Y-14413984D02*
X11836848Y-14404460D01*
X11836848Y-14404460D02*
X11827324Y-14385412D01*
X11827324Y-14385412D02*
X11827324Y-14213984D01*
X11960658Y-14413984D02*
X11941610Y-14404460D01*
X11941610Y-14404460D02*
X11932086Y-14385412D01*
X11932086Y-14385412D02*
X11932086Y-14213984D01*
X12189229Y-14413984D02*
X12189229Y-14213984D01*
X12189229Y-14213984D02*
X12255896Y-14356841D01*
X12255896Y-14356841D02*
X12322562Y-14213984D01*
X12322562Y-14213984D02*
X12322562Y-14413984D01*
X12503515Y-14413984D02*
X12503515Y-14309222D01*
X12503515Y-14309222D02*
X12493991Y-14290174D01*
X12493991Y-14290174D02*
X12474943Y-14280650D01*
X12474943Y-14280650D02*
X12436848Y-14280650D01*
X12436848Y-14280650D02*
X12417801Y-14290174D01*
X12503515Y-14404460D02*
X12484467Y-14413984D01*
X12484467Y-14413984D02*
X12436848Y-14413984D01*
X12436848Y-14413984D02*
X12417801Y-14404460D01*
X12417801Y-14404460D02*
X12408277Y-14385412D01*
X12408277Y-14385412D02*
X12408277Y-14366365D01*
X12408277Y-14366365D02*
X12417801Y-14347317D01*
X12417801Y-14347317D02*
X12436848Y-14337793D01*
X12436848Y-14337793D02*
X12484467Y-14337793D01*
X12484467Y-14337793D02*
X12503515Y-14328269D01*
X12598753Y-14280650D02*
X12598753Y-14480650D01*
X12598753Y-14290174D02*
X12617801Y-14280650D01*
X12617801Y-14280650D02*
X12655896Y-14280650D01*
X12655896Y-14280650D02*
X12674943Y-14290174D01*
X12674943Y-14290174D02*
X12684467Y-14299698D01*
X12684467Y-14299698D02*
X12693991Y-14318746D01*
X12693991Y-14318746D02*
X12693991Y-14375888D01*
X12693991Y-14375888D02*
X12684467Y-14394936D01*
X12684467Y-14394936D02*
X12674943Y-14404460D01*
X12674943Y-14404460D02*
X12655896Y-14413984D01*
X12655896Y-14413984D02*
X12617801Y-14413984D01*
X12617801Y-14413984D02*
X12598753Y-14404460D01*
X12779705Y-14394936D02*
X12789229Y-14404460D01*
X12789229Y-14404460D02*
X12779705Y-14413984D01*
X12779705Y-14413984D02*
X12770182Y-14404460D01*
X12770182Y-14404460D02*
X12779705Y-14394936D01*
X12779705Y-14394936D02*
X12779705Y-14413984D01*
X12779705Y-14290174D02*
X12789229Y-14299698D01*
X12789229Y-14299698D02*
X12779705Y-14309222D01*
X12779705Y-14309222D02*
X12770182Y-14299698D01*
X12770182Y-14299698D02*
X12779705Y-14290174D01*
X12779705Y-14290174D02*
X12779705Y-14309222D01*
D13*
X11117500Y-14727500D02*
X11147500Y-14757500D01*
X11147500Y-14727500D02*
X11117500Y-14757500D01*
D12*
X11446372Y-14633984D02*
X11465420Y-14633984D01*
X11465420Y-14633984D02*
X11484467Y-14643508D01*
X11484467Y-14643508D02*
X11493991Y-14653031D01*
X11493991Y-14653031D02*
X11503515Y-14672079D01*
X11503515Y-14672079D02*
X11513039Y-14710174D01*
X11513039Y-14710174D02*
X11513039Y-14757793D01*
X11513039Y-14757793D02*
X11503515Y-14795888D01*
X11503515Y-14795888D02*
X11493991Y-14814936D01*
X11493991Y-14814936D02*
X11484467Y-14824460D01*
X11484467Y-14824460D02*
X11465420Y-14833984D01*
X11465420Y-14833984D02*
X11446372Y-14833984D01*
X11446372Y-14833984D02*
X11427324Y-14824460D01*
X11427324Y-14824460D02*
X11417801Y-14814936D01*
X11417801Y-14814936D02*
X11408277Y-14795888D01*
X11408277Y-14795888D02*
X11398753Y-14757793D01*
X11398753Y-14757793D02*
X11398753Y-14710174D01*
X11398753Y-14710174D02*
X11408277Y-14672079D01*
X11408277Y-14672079D02*
X11417801Y-14653031D01*
X11417801Y-14653031D02*
X11427324Y-14643508D01*
X11427324Y-14643508D02*
X11446372Y-14633984D01*
X11598753Y-14814936D02*
X11608277Y-14824460D01*
X11608277Y-14824460D02*
X11598753Y-14833984D01*
X11598753Y-14833984D02*
X11589229Y-14824460D01*
X11589229Y-14824460D02*
X11598753Y-14814936D01*
X11598753Y-14814936D02*
X11598753Y-14833984D01*
X11674943Y-14633984D02*
X11798753Y-14633984D01*
X11798753Y-14633984D02*
X11732086Y-14710174D01*
X11732086Y-14710174D02*
X11760658Y-14710174D01*
X11760658Y-14710174D02*
X11779705Y-14719698D01*
X11779705Y-14719698D02*
X11789229Y-14729222D01*
X11789229Y-14729222D02*
X11798753Y-14748269D01*
X11798753Y-14748269D02*
X11798753Y-14795888D01*
X11798753Y-14795888D02*
X11789229Y-14814936D01*
X11789229Y-14814936D02*
X11779705Y-14824460D01*
X11779705Y-14824460D02*
X11760658Y-14833984D01*
X11760658Y-14833984D02*
X11703515Y-14833984D01*
X11703515Y-14833984D02*
X11684467Y-14824460D01*
X11684467Y-14824460D02*
X11674943Y-14814936D01*
X11922562Y-14633984D02*
X11941610Y-14633984D01*
X11941610Y-14633984D02*
X11960658Y-14643508D01*
X11960658Y-14643508D02*
X11970182Y-14653031D01*
X11970182Y-14653031D02*
X11979705Y-14672079D01*
X11979705Y-14672079D02*
X11989229Y-14710174D01*
X11989229Y-14710174D02*
X11989229Y-14757793D01*
X11989229Y-14757793D02*
X11979705Y-14795888D01*
X11979705Y-14795888D02*
X11970182Y-14814936D01*
X11970182Y-14814936D02*
X11960658Y-14824460D01*
X11960658Y-14824460D02*
X11941610Y-14833984D01*
X11941610Y-14833984D02*
X11922562Y-14833984D01*
X11922562Y-14833984D02*
X11903515Y-14824460D01*
X11903515Y-14824460D02*
X11893991Y-14814936D01*
X11893991Y-14814936D02*
X11884467Y-14795888D01*
X11884467Y-14795888D02*
X11874943Y-14757793D01*
X11874943Y-14757793D02*
X11874943Y-14710174D01*
X11874943Y-14710174D02*
X11884467Y-14672079D01*
X11884467Y-14672079D02*
X11893991Y-14653031D01*
X11893991Y-14653031D02*
X11903515Y-14643508D01*
X11903515Y-14643508D02*
X11922562Y-14633984D01*
X12113039Y-14633984D02*
X12132086Y-14633984D01*
X12132086Y-14633984D02*
X12151134Y-14643508D01*
X12151134Y-14643508D02*
X12160658Y-14653031D01*
X12160658Y-14653031D02*
X12170182Y-14672079D01*
X12170182Y-14672079D02*
X12179705Y-14710174D01*
X12179705Y-14710174D02*
X12179705Y-14757793D01*
X12179705Y-14757793D02*
X12170182Y-14795888D01*
X12170182Y-14795888D02*
X12160658Y-14814936D01*
X12160658Y-14814936D02*
X12151134Y-14824460D01*
X12151134Y-14824460D02*
X12132086Y-14833984D01*
X12132086Y-14833984D02*
X12113039Y-14833984D01*
X12113039Y-14833984D02*
X12093991Y-14824460D01*
X12093991Y-14824460D02*
X12084467Y-14814936D01*
X12084467Y-14814936D02*
X12074943Y-14795888D01*
X12074943Y-14795888D02*
X12065420Y-14757793D01*
X12065420Y-14757793D02*
X12065420Y-14710174D01*
X12065420Y-14710174D02*
X12074943Y-14672079D01*
X12074943Y-14672079D02*
X12084467Y-14653031D01*
X12084467Y-14653031D02*
X12093991Y-14643508D01*
X12093991Y-14643508D02*
X12113039Y-14633984D01*
X12265420Y-14833984D02*
X12265420Y-14700650D01*
X12265420Y-14719698D02*
X12274943Y-14710174D01*
X12274943Y-14710174D02*
X12293991Y-14700650D01*
X12293991Y-14700650D02*
X12322563Y-14700650D01*
X12322563Y-14700650D02*
X12341610Y-14710174D01*
X12341610Y-14710174D02*
X12351134Y-14729222D01*
X12351134Y-14729222D02*
X12351134Y-14833984D01*
X12351134Y-14729222D02*
X12360658Y-14710174D01*
X12360658Y-14710174D02*
X12379705Y-14700650D01*
X12379705Y-14700650D02*
X12408277Y-14700650D01*
X12408277Y-14700650D02*
X12427324Y-14710174D01*
X12427324Y-14710174D02*
X12436848Y-14729222D01*
X12436848Y-14729222D02*
X12436848Y-14833984D01*
X12532086Y-14833984D02*
X12532086Y-14700650D01*
X12532086Y-14719698D02*
X12541610Y-14710174D01*
X12541610Y-14710174D02*
X12560658Y-14700650D01*
X12560658Y-14700650D02*
X12589229Y-14700650D01*
X12589229Y-14700650D02*
X12608277Y-14710174D01*
X12608277Y-14710174D02*
X12617801Y-14729222D01*
X12617801Y-14729222D02*
X12617801Y-14833984D01*
X12617801Y-14729222D02*
X12627324Y-14710174D01*
X12627324Y-14710174D02*
X12646372Y-14700650D01*
X12646372Y-14700650D02*
X12674943Y-14700650D01*
X12674943Y-14700650D02*
X12693991Y-14710174D01*
X12693991Y-14710174D02*
X12703515Y-14729222D01*
X12703515Y-14729222D02*
X12703515Y-14833984D01*
X13093991Y-14624460D02*
X12922563Y-14881603D01*
X13351134Y-14633984D02*
X13370182Y-14633984D01*
X13370182Y-14633984D02*
X13389229Y-14643508D01*
X13389229Y-14643508D02*
X13398753Y-14653031D01*
X13398753Y-14653031D02*
X13408277Y-14672079D01*
X13408277Y-14672079D02*
X13417801Y-14710174D01*
X13417801Y-14710174D02*
X13417801Y-14757793D01*
X13417801Y-14757793D02*
X13408277Y-14795888D01*
X13408277Y-14795888D02*
X13398753Y-14814936D01*
X13398753Y-14814936D02*
X13389229Y-14824460D01*
X13389229Y-14824460D02*
X13370182Y-14833984D01*
X13370182Y-14833984D02*
X13351134Y-14833984D01*
X13351134Y-14833984D02*
X13332086Y-14824460D01*
X13332086Y-14824460D02*
X13322563Y-14814936D01*
X13322563Y-14814936D02*
X13313039Y-14795888D01*
X13313039Y-14795888D02*
X13303515Y-14757793D01*
X13303515Y-14757793D02*
X13303515Y-14710174D01*
X13303515Y-14710174D02*
X13313039Y-14672079D01*
X13313039Y-14672079D02*
X13322563Y-14653031D01*
X13322563Y-14653031D02*
X13332086Y-14643508D01*
X13332086Y-14643508D02*
X13351134Y-14633984D01*
X13503515Y-14814936D02*
X13513039Y-14824460D01*
X13513039Y-14824460D02*
X13503515Y-14833984D01*
X13503515Y-14833984D02*
X13493991Y-14824460D01*
X13493991Y-14824460D02*
X13503515Y-14814936D01*
X13503515Y-14814936D02*
X13503515Y-14833984D01*
X13636848Y-14633984D02*
X13655896Y-14633984D01*
X13655896Y-14633984D02*
X13674944Y-14643508D01*
X13674944Y-14643508D02*
X13684467Y-14653031D01*
X13684467Y-14653031D02*
X13693991Y-14672079D01*
X13693991Y-14672079D02*
X13703515Y-14710174D01*
X13703515Y-14710174D02*
X13703515Y-14757793D01*
X13703515Y-14757793D02*
X13693991Y-14795888D01*
X13693991Y-14795888D02*
X13684467Y-14814936D01*
X13684467Y-14814936D02*
X13674944Y-14824460D01*
X13674944Y-14824460D02*
X13655896Y-14833984D01*
X13655896Y-14833984D02*
X13636848Y-14833984D01*
X13636848Y-14833984D02*
X13617801Y-14824460D01*
X13617801Y-14824460D02*
X13608277Y-14814936D01*
X13608277Y-14814936D02*
X13598753Y-14795888D01*
X13598753Y-14795888D02*
X13589229Y-14757793D01*
X13589229Y-14757793D02*
X13589229Y-14710174D01*
X13589229Y-14710174D02*
X13598753Y-14672079D01*
X13598753Y-14672079D02*
X13608277Y-14653031D01*
X13608277Y-14653031D02*
X13617801Y-14643508D01*
X13617801Y-14643508D02*
X13636848Y-14633984D01*
X13893991Y-14833984D02*
X13779706Y-14833984D01*
X13836848Y-14833984D02*
X13836848Y-14633984D01*
X13836848Y-14633984D02*
X13817801Y-14662555D01*
X13817801Y-14662555D02*
X13798753Y-14681603D01*
X13798753Y-14681603D02*
X13779706Y-14691127D01*
X14084467Y-14833984D02*
X13970182Y-14833984D01*
X14027325Y-14833984D02*
X14027325Y-14633984D01*
X14027325Y-14633984D02*
X14008277Y-14662555D01*
X14008277Y-14662555D02*
X13989229Y-14681603D01*
X13989229Y-14681603D02*
X13970182Y-14691127D01*
X14198753Y-14719698D02*
X14179706Y-14710174D01*
X14179706Y-14710174D02*
X14170182Y-14700650D01*
X14170182Y-14700650D02*
X14160658Y-14681603D01*
X14160658Y-14681603D02*
X14160658Y-14672079D01*
X14160658Y-14672079D02*
X14170182Y-14653031D01*
X14170182Y-14653031D02*
X14179706Y-14643508D01*
X14179706Y-14643508D02*
X14198753Y-14633984D01*
X14198753Y-14633984D02*
X14236848Y-14633984D01*
X14236848Y-14633984D02*
X14255896Y-14643508D01*
X14255896Y-14643508D02*
X14265420Y-14653031D01*
X14265420Y-14653031D02*
X14274944Y-14672079D01*
X14274944Y-14672079D02*
X14274944Y-14681603D01*
X14274944Y-14681603D02*
X14265420Y-14700650D01*
X14265420Y-14700650D02*
X14255896Y-14710174D01*
X14255896Y-14710174D02*
X14236848Y-14719698D01*
X14236848Y-14719698D02*
X14198753Y-14719698D01*
X14198753Y-14719698D02*
X14179706Y-14729222D01*
X14179706Y-14729222D02*
X14170182Y-14738746D01*
X14170182Y-14738746D02*
X14160658Y-14757793D01*
X14160658Y-14757793D02*
X14160658Y-14795888D01*
X14160658Y-14795888D02*
X14170182Y-14814936D01*
X14170182Y-14814936D02*
X14179706Y-14824460D01*
X14179706Y-14824460D02*
X14198753Y-14833984D01*
X14198753Y-14833984D02*
X14236848Y-14833984D01*
X14236848Y-14833984D02*
X14255896Y-14824460D01*
X14255896Y-14824460D02*
X14265420Y-14814936D01*
X14265420Y-14814936D02*
X14274944Y-14795888D01*
X14274944Y-14795888D02*
X14274944Y-14757793D01*
X14274944Y-14757793D02*
X14265420Y-14738746D01*
X14265420Y-14738746D02*
X14255896Y-14729222D01*
X14255896Y-14729222D02*
X14236848Y-14719698D01*
X14351134Y-14633984D02*
X14351134Y-14672079D01*
X14427325Y-14633984D02*
X14427325Y-14672079D01*
X14722563Y-14910174D02*
X14713039Y-14900650D01*
X14713039Y-14900650D02*
X14693991Y-14872079D01*
X14693991Y-14872079D02*
X14684468Y-14853031D01*
X14684468Y-14853031D02*
X14674944Y-14824460D01*
X14674944Y-14824460D02*
X14665420Y-14776841D01*
X14665420Y-14776841D02*
X14665420Y-14738746D01*
X14665420Y-14738746D02*
X14674944Y-14691127D01*
X14674944Y-14691127D02*
X14684468Y-14662555D01*
X14684468Y-14662555D02*
X14693991Y-14643508D01*
X14693991Y-14643508D02*
X14713039Y-14614936D01*
X14713039Y-14614936D02*
X14722563Y-14605412D01*
X14808277Y-14833984D02*
X14846372Y-14833984D01*
X14846372Y-14833984D02*
X14865420Y-14824460D01*
X14865420Y-14824460D02*
X14874944Y-14814936D01*
X14874944Y-14814936D02*
X14893991Y-14786365D01*
X14893991Y-14786365D02*
X14903515Y-14748269D01*
X14903515Y-14748269D02*
X14903515Y-14672079D01*
X14903515Y-14672079D02*
X14893991Y-14653031D01*
X14893991Y-14653031D02*
X14884468Y-14643508D01*
X14884468Y-14643508D02*
X14865420Y-14633984D01*
X14865420Y-14633984D02*
X14827325Y-14633984D01*
X14827325Y-14633984D02*
X14808277Y-14643508D01*
X14808277Y-14643508D02*
X14798753Y-14653031D01*
X14798753Y-14653031D02*
X14789229Y-14672079D01*
X14789229Y-14672079D02*
X14789229Y-14719698D01*
X14789229Y-14719698D02*
X14798753Y-14738746D01*
X14798753Y-14738746D02*
X14808277Y-14748269D01*
X14808277Y-14748269D02*
X14827325Y-14757793D01*
X14827325Y-14757793D02*
X14865420Y-14757793D01*
X14865420Y-14757793D02*
X14884468Y-14748269D01*
X14884468Y-14748269D02*
X14893991Y-14738746D01*
X14893991Y-14738746D02*
X14903515Y-14719698D01*
X14970182Y-14633984D02*
X15093991Y-14633984D01*
X15093991Y-14633984D02*
X15027325Y-14710174D01*
X15027325Y-14710174D02*
X15055896Y-14710174D01*
X15055896Y-14710174D02*
X15074944Y-14719698D01*
X15074944Y-14719698D02*
X15084468Y-14729222D01*
X15084468Y-14729222D02*
X15093991Y-14748269D01*
X15093991Y-14748269D02*
X15093991Y-14795888D01*
X15093991Y-14795888D02*
X15084468Y-14814936D01*
X15084468Y-14814936D02*
X15074944Y-14824460D01*
X15074944Y-14824460D02*
X15055896Y-14833984D01*
X15055896Y-14833984D02*
X14998753Y-14833984D01*
X14998753Y-14833984D02*
X14979706Y-14824460D01*
X14979706Y-14824460D02*
X14970182Y-14814936D01*
X15332087Y-14833984D02*
X15332087Y-14633984D01*
X15417801Y-14833984D02*
X15417801Y-14729222D01*
X15417801Y-14729222D02*
X15408277Y-14710174D01*
X15408277Y-14710174D02*
X15389230Y-14700650D01*
X15389230Y-14700650D02*
X15360658Y-14700650D01*
X15360658Y-14700650D02*
X15341610Y-14710174D01*
X15341610Y-14710174D02*
X15332087Y-14719698D01*
X15541610Y-14833984D02*
X15522563Y-14824460D01*
X15522563Y-14824460D02*
X15513039Y-14814936D01*
X15513039Y-14814936D02*
X15503515Y-14795888D01*
X15503515Y-14795888D02*
X15503515Y-14738746D01*
X15503515Y-14738746D02*
X15513039Y-14719698D01*
X15513039Y-14719698D02*
X15522563Y-14710174D01*
X15522563Y-14710174D02*
X15541610Y-14700650D01*
X15541610Y-14700650D02*
X15570182Y-14700650D01*
X15570182Y-14700650D02*
X15589230Y-14710174D01*
X15589230Y-14710174D02*
X15598753Y-14719698D01*
X15598753Y-14719698D02*
X15608277Y-14738746D01*
X15608277Y-14738746D02*
X15608277Y-14795888D01*
X15608277Y-14795888D02*
X15598753Y-14814936D01*
X15598753Y-14814936D02*
X15589230Y-14824460D01*
X15589230Y-14824460D02*
X15570182Y-14833984D01*
X15570182Y-14833984D02*
X15541610Y-14833984D01*
X15722563Y-14833984D02*
X15703515Y-14824460D01*
X15703515Y-14824460D02*
X15693991Y-14805412D01*
X15693991Y-14805412D02*
X15693991Y-14633984D01*
X15874944Y-14824460D02*
X15855896Y-14833984D01*
X15855896Y-14833984D02*
X15817801Y-14833984D01*
X15817801Y-14833984D02*
X15798753Y-14824460D01*
X15798753Y-14824460D02*
X15789230Y-14805412D01*
X15789230Y-14805412D02*
X15789230Y-14729222D01*
X15789230Y-14729222D02*
X15798753Y-14710174D01*
X15798753Y-14710174D02*
X15817801Y-14700650D01*
X15817801Y-14700650D02*
X15855896Y-14700650D01*
X15855896Y-14700650D02*
X15874944Y-14710174D01*
X15874944Y-14710174D02*
X15884468Y-14729222D01*
X15884468Y-14729222D02*
X15884468Y-14748269D01*
X15884468Y-14748269D02*
X15789230Y-14767317D01*
X15960658Y-14824460D02*
X15979706Y-14833984D01*
X15979706Y-14833984D02*
X16017801Y-14833984D01*
X16017801Y-14833984D02*
X16036849Y-14824460D01*
X16036849Y-14824460D02*
X16046372Y-14805412D01*
X16046372Y-14805412D02*
X16046372Y-14795888D01*
X16046372Y-14795888D02*
X16036849Y-14776841D01*
X16036849Y-14776841D02*
X16017801Y-14767317D01*
X16017801Y-14767317D02*
X15989230Y-14767317D01*
X15989230Y-14767317D02*
X15970182Y-14757793D01*
X15970182Y-14757793D02*
X15960658Y-14738746D01*
X15960658Y-14738746D02*
X15960658Y-14729222D01*
X15960658Y-14729222D02*
X15970182Y-14710174D01*
X15970182Y-14710174D02*
X15989230Y-14700650D01*
X15989230Y-14700650D02*
X16017801Y-14700650D01*
X16017801Y-14700650D02*
X16036849Y-14710174D01*
X16113039Y-14910174D02*
X16122563Y-14900650D01*
X16122563Y-14900650D02*
X16141611Y-14872079D01*
X16141611Y-14872079D02*
X16151134Y-14853031D01*
X16151134Y-14853031D02*
X16160658Y-14824460D01*
X16160658Y-14824460D02*
X16170182Y-14776841D01*
X16170182Y-14776841D02*
X16170182Y-14738746D01*
X16170182Y-14738746D02*
X16160658Y-14691127D01*
X16160658Y-14691127D02*
X16151134Y-14662555D01*
X16151134Y-14662555D02*
X16141611Y-14643508D01*
X16141611Y-14643508D02*
X16122563Y-14614936D01*
X16122563Y-14614936D02*
X16113039Y-14605412D01*
D13*
X11147500Y-15006500D02*
G75*
G02*
X11097500Y-15006500I-25000J0D01*
G01*
X11097500Y-15006500D02*
G75*
G02*
X11147500Y-15006500I25000J0D01*
G01*
D12*
X11446372Y-14897984D02*
X11465420Y-14897984D01*
X11465420Y-14897984D02*
X11484467Y-14907508D01*
X11484467Y-14907508D02*
X11493991Y-14917031D01*
X11493991Y-14917031D02*
X11503515Y-14936079D01*
X11503515Y-14936079D02*
X11513039Y-14974174D01*
X11513039Y-14974174D02*
X11513039Y-15021793D01*
X11513039Y-15021793D02*
X11503515Y-15059888D01*
X11503515Y-15059888D02*
X11493991Y-15078936D01*
X11493991Y-15078936D02*
X11484467Y-15088460D01*
X11484467Y-15088460D02*
X11465420Y-15097984D01*
X11465420Y-15097984D02*
X11446372Y-15097984D01*
X11446372Y-15097984D02*
X11427324Y-15088460D01*
X11427324Y-15088460D02*
X11417801Y-15078936D01*
X11417801Y-15078936D02*
X11408277Y-15059888D01*
X11408277Y-15059888D02*
X11398753Y-15021793D01*
X11398753Y-15021793D02*
X11398753Y-14974174D01*
X11398753Y-14974174D02*
X11408277Y-14936079D01*
X11408277Y-14936079D02*
X11417801Y-14917031D01*
X11417801Y-14917031D02*
X11427324Y-14907508D01*
X11427324Y-14907508D02*
X11446372Y-14897984D01*
X11598753Y-15078936D02*
X11608277Y-15088460D01*
X11608277Y-15088460D02*
X11598753Y-15097984D01*
X11598753Y-15097984D02*
X11589229Y-15088460D01*
X11589229Y-15088460D02*
X11598753Y-15078936D01*
X11598753Y-15078936D02*
X11598753Y-15097984D01*
X11789229Y-14897984D02*
X11693991Y-14897984D01*
X11693991Y-14897984D02*
X11684467Y-14993222D01*
X11684467Y-14993222D02*
X11693991Y-14983698D01*
X11693991Y-14983698D02*
X11713039Y-14974174D01*
X11713039Y-14974174D02*
X11760658Y-14974174D01*
X11760658Y-14974174D02*
X11779705Y-14983698D01*
X11779705Y-14983698D02*
X11789229Y-14993222D01*
X11789229Y-14993222D02*
X11798753Y-15012269D01*
X11798753Y-15012269D02*
X11798753Y-15059888D01*
X11798753Y-15059888D02*
X11789229Y-15078936D01*
X11789229Y-15078936D02*
X11779705Y-15088460D01*
X11779705Y-15088460D02*
X11760658Y-15097984D01*
X11760658Y-15097984D02*
X11713039Y-15097984D01*
X11713039Y-15097984D02*
X11693991Y-15088460D01*
X11693991Y-15088460D02*
X11684467Y-15078936D01*
X11922562Y-14897984D02*
X11941610Y-14897984D01*
X11941610Y-14897984D02*
X11960658Y-14907508D01*
X11960658Y-14907508D02*
X11970182Y-14917031D01*
X11970182Y-14917031D02*
X11979705Y-14936079D01*
X11979705Y-14936079D02*
X11989229Y-14974174D01*
X11989229Y-14974174D02*
X11989229Y-15021793D01*
X11989229Y-15021793D02*
X11979705Y-15059888D01*
X11979705Y-15059888D02*
X11970182Y-15078936D01*
X11970182Y-15078936D02*
X11960658Y-15088460D01*
X11960658Y-15088460D02*
X11941610Y-15097984D01*
X11941610Y-15097984D02*
X11922562Y-15097984D01*
X11922562Y-15097984D02*
X11903515Y-15088460D01*
X11903515Y-15088460D02*
X11893991Y-15078936D01*
X11893991Y-15078936D02*
X11884467Y-15059888D01*
X11884467Y-15059888D02*
X11874943Y-15021793D01*
X11874943Y-15021793D02*
X11874943Y-14974174D01*
X11874943Y-14974174D02*
X11884467Y-14936079D01*
X11884467Y-14936079D02*
X11893991Y-14917031D01*
X11893991Y-14917031D02*
X11903515Y-14907508D01*
X11903515Y-14907508D02*
X11922562Y-14897984D01*
X12113039Y-14897984D02*
X12132086Y-14897984D01*
X12132086Y-14897984D02*
X12151134Y-14907508D01*
X12151134Y-14907508D02*
X12160658Y-14917031D01*
X12160658Y-14917031D02*
X12170182Y-14936079D01*
X12170182Y-14936079D02*
X12179705Y-14974174D01*
X12179705Y-14974174D02*
X12179705Y-15021793D01*
X12179705Y-15021793D02*
X12170182Y-15059888D01*
X12170182Y-15059888D02*
X12160658Y-15078936D01*
X12160658Y-15078936D02*
X12151134Y-15088460D01*
X12151134Y-15088460D02*
X12132086Y-15097984D01*
X12132086Y-15097984D02*
X12113039Y-15097984D01*
X12113039Y-15097984D02*
X12093991Y-15088460D01*
X12093991Y-15088460D02*
X12084467Y-15078936D01*
X12084467Y-15078936D02*
X12074943Y-15059888D01*
X12074943Y-15059888D02*
X12065420Y-15021793D01*
X12065420Y-15021793D02*
X12065420Y-14974174D01*
X12065420Y-14974174D02*
X12074943Y-14936079D01*
X12074943Y-14936079D02*
X12084467Y-14917031D01*
X12084467Y-14917031D02*
X12093991Y-14907508D01*
X12093991Y-14907508D02*
X12113039Y-14897984D01*
X12265420Y-15097984D02*
X12265420Y-14964650D01*
X12265420Y-14983698D02*
X12274943Y-14974174D01*
X12274943Y-14974174D02*
X12293991Y-14964650D01*
X12293991Y-14964650D02*
X12322563Y-14964650D01*
X12322563Y-14964650D02*
X12341610Y-14974174D01*
X12341610Y-14974174D02*
X12351134Y-14993222D01*
X12351134Y-14993222D02*
X12351134Y-15097984D01*
X12351134Y-14993222D02*
X12360658Y-14974174D01*
X12360658Y-14974174D02*
X12379705Y-14964650D01*
X12379705Y-14964650D02*
X12408277Y-14964650D01*
X12408277Y-14964650D02*
X12427324Y-14974174D01*
X12427324Y-14974174D02*
X12436848Y-14993222D01*
X12436848Y-14993222D02*
X12436848Y-15097984D01*
X12532086Y-15097984D02*
X12532086Y-14964650D01*
X12532086Y-14983698D02*
X12541610Y-14974174D01*
X12541610Y-14974174D02*
X12560658Y-14964650D01*
X12560658Y-14964650D02*
X12589229Y-14964650D01*
X12589229Y-14964650D02*
X12608277Y-14974174D01*
X12608277Y-14974174D02*
X12617801Y-14993222D01*
X12617801Y-14993222D02*
X12617801Y-15097984D01*
X12617801Y-14993222D02*
X12627324Y-14974174D01*
X12627324Y-14974174D02*
X12646372Y-14964650D01*
X12646372Y-14964650D02*
X12674943Y-14964650D01*
X12674943Y-14964650D02*
X12693991Y-14974174D01*
X12693991Y-14974174D02*
X12703515Y-14993222D01*
X12703515Y-14993222D02*
X12703515Y-15097984D01*
X13093991Y-14888460D02*
X12922563Y-15145603D01*
X13351134Y-14897984D02*
X13370182Y-14897984D01*
X13370182Y-14897984D02*
X13389229Y-14907508D01*
X13389229Y-14907508D02*
X13398753Y-14917031D01*
X13398753Y-14917031D02*
X13408277Y-14936079D01*
X13408277Y-14936079D02*
X13417801Y-14974174D01*
X13417801Y-14974174D02*
X13417801Y-15021793D01*
X13417801Y-15021793D02*
X13408277Y-15059888D01*
X13408277Y-15059888D02*
X13398753Y-15078936D01*
X13398753Y-15078936D02*
X13389229Y-15088460D01*
X13389229Y-15088460D02*
X13370182Y-15097984D01*
X13370182Y-15097984D02*
X13351134Y-15097984D01*
X13351134Y-15097984D02*
X13332086Y-15088460D01*
X13332086Y-15088460D02*
X13322563Y-15078936D01*
X13322563Y-15078936D02*
X13313039Y-15059888D01*
X13313039Y-15059888D02*
X13303515Y-15021793D01*
X13303515Y-15021793D02*
X13303515Y-14974174D01*
X13303515Y-14974174D02*
X13313039Y-14936079D01*
X13313039Y-14936079D02*
X13322563Y-14917031D01*
X13322563Y-14917031D02*
X13332086Y-14907508D01*
X13332086Y-14907508D02*
X13351134Y-14897984D01*
X13503515Y-15078936D02*
X13513039Y-15088460D01*
X13513039Y-15088460D02*
X13503515Y-15097984D01*
X13503515Y-15097984D02*
X13493991Y-15088460D01*
X13493991Y-15088460D02*
X13503515Y-15078936D01*
X13503515Y-15078936D02*
X13503515Y-15097984D01*
X13636848Y-14897984D02*
X13655896Y-14897984D01*
X13655896Y-14897984D02*
X13674944Y-14907508D01*
X13674944Y-14907508D02*
X13684467Y-14917031D01*
X13684467Y-14917031D02*
X13693991Y-14936079D01*
X13693991Y-14936079D02*
X13703515Y-14974174D01*
X13703515Y-14974174D02*
X13703515Y-15021793D01*
X13703515Y-15021793D02*
X13693991Y-15059888D01*
X13693991Y-15059888D02*
X13684467Y-15078936D01*
X13684467Y-15078936D02*
X13674944Y-15088460D01*
X13674944Y-15088460D02*
X13655896Y-15097984D01*
X13655896Y-15097984D02*
X13636848Y-15097984D01*
X13636848Y-15097984D02*
X13617801Y-15088460D01*
X13617801Y-15088460D02*
X13608277Y-15078936D01*
X13608277Y-15078936D02*
X13598753Y-15059888D01*
X13598753Y-15059888D02*
X13589229Y-15021793D01*
X13589229Y-15021793D02*
X13589229Y-14974174D01*
X13589229Y-14974174D02*
X13598753Y-14936079D01*
X13598753Y-14936079D02*
X13608277Y-14917031D01*
X13608277Y-14917031D02*
X13617801Y-14907508D01*
X13617801Y-14907508D02*
X13636848Y-14897984D01*
X13893991Y-15097984D02*
X13779706Y-15097984D01*
X13836848Y-15097984D02*
X13836848Y-14897984D01*
X13836848Y-14897984D02*
X13817801Y-14926555D01*
X13817801Y-14926555D02*
X13798753Y-14945603D01*
X13798753Y-14945603D02*
X13779706Y-14955127D01*
X13989229Y-15097984D02*
X14027325Y-15097984D01*
X14027325Y-15097984D02*
X14046372Y-15088460D01*
X14046372Y-15088460D02*
X14055896Y-15078936D01*
X14055896Y-15078936D02*
X14074944Y-15050365D01*
X14074944Y-15050365D02*
X14084467Y-15012269D01*
X14084467Y-15012269D02*
X14084467Y-14936079D01*
X14084467Y-14936079D02*
X14074944Y-14917031D01*
X14074944Y-14917031D02*
X14065420Y-14907508D01*
X14065420Y-14907508D02*
X14046372Y-14897984D01*
X14046372Y-14897984D02*
X14008277Y-14897984D01*
X14008277Y-14897984D02*
X13989229Y-14907508D01*
X13989229Y-14907508D02*
X13979706Y-14917031D01*
X13979706Y-14917031D02*
X13970182Y-14936079D01*
X13970182Y-14936079D02*
X13970182Y-14983698D01*
X13970182Y-14983698D02*
X13979706Y-15002746D01*
X13979706Y-15002746D02*
X13989229Y-15012269D01*
X13989229Y-15012269D02*
X14008277Y-15021793D01*
X14008277Y-15021793D02*
X14046372Y-15021793D01*
X14046372Y-15021793D02*
X14065420Y-15012269D01*
X14065420Y-15012269D02*
X14074944Y-15002746D01*
X14074944Y-15002746D02*
X14084467Y-14983698D01*
X14151134Y-14897984D02*
X14284467Y-14897984D01*
X14284467Y-14897984D02*
X14198753Y-15097984D01*
X14351134Y-14897984D02*
X14351134Y-14936079D01*
X14427325Y-14897984D02*
X14427325Y-14936079D01*
X14722563Y-15174174D02*
X14713039Y-15164650D01*
X14713039Y-15164650D02*
X14693991Y-15136079D01*
X14693991Y-15136079D02*
X14684468Y-15117031D01*
X14684468Y-15117031D02*
X14674944Y-15088460D01*
X14674944Y-15088460D02*
X14665420Y-15040841D01*
X14665420Y-15040841D02*
X14665420Y-15002746D01*
X14665420Y-15002746D02*
X14674944Y-14955127D01*
X14674944Y-14955127D02*
X14684468Y-14926555D01*
X14684468Y-14926555D02*
X14693991Y-14907508D01*
X14693991Y-14907508D02*
X14713039Y-14878936D01*
X14713039Y-14878936D02*
X14722563Y-14869412D01*
X14779706Y-14897984D02*
X14903515Y-14897984D01*
X14903515Y-14897984D02*
X14836848Y-14974174D01*
X14836848Y-14974174D02*
X14865420Y-14974174D01*
X14865420Y-14974174D02*
X14884468Y-14983698D01*
X14884468Y-14983698D02*
X14893991Y-14993222D01*
X14893991Y-14993222D02*
X14903515Y-15012269D01*
X14903515Y-15012269D02*
X14903515Y-15059888D01*
X14903515Y-15059888D02*
X14893991Y-15078936D01*
X14893991Y-15078936D02*
X14884468Y-15088460D01*
X14884468Y-15088460D02*
X14865420Y-15097984D01*
X14865420Y-15097984D02*
X14808277Y-15097984D01*
X14808277Y-15097984D02*
X14789229Y-15088460D01*
X14789229Y-15088460D02*
X14779706Y-15078936D01*
X15027325Y-14897984D02*
X15046372Y-14897984D01*
X15046372Y-14897984D02*
X15065420Y-14907508D01*
X15065420Y-14907508D02*
X15074944Y-14917031D01*
X15074944Y-14917031D02*
X15084468Y-14936079D01*
X15084468Y-14936079D02*
X15093991Y-14974174D01*
X15093991Y-14974174D02*
X15093991Y-15021793D01*
X15093991Y-15021793D02*
X15084468Y-15059888D01*
X15084468Y-15059888D02*
X15074944Y-15078936D01*
X15074944Y-15078936D02*
X15065420Y-15088460D01*
X15065420Y-15088460D02*
X15046372Y-15097984D01*
X15046372Y-15097984D02*
X15027325Y-15097984D01*
X15027325Y-15097984D02*
X15008277Y-15088460D01*
X15008277Y-15088460D02*
X14998753Y-15078936D01*
X14998753Y-15078936D02*
X14989229Y-15059888D01*
X14989229Y-15059888D02*
X14979706Y-15021793D01*
X14979706Y-15021793D02*
X14979706Y-14974174D01*
X14979706Y-14974174D02*
X14989229Y-14936079D01*
X14989229Y-14936079D02*
X14998753Y-14917031D01*
X14998753Y-14917031D02*
X15008277Y-14907508D01*
X15008277Y-14907508D02*
X15027325Y-14897984D01*
X15332087Y-15097984D02*
X15332087Y-14897984D01*
X15417801Y-15097984D02*
X15417801Y-14993222D01*
X15417801Y-14993222D02*
X15408277Y-14974174D01*
X15408277Y-14974174D02*
X15389230Y-14964650D01*
X15389230Y-14964650D02*
X15360658Y-14964650D01*
X15360658Y-14964650D02*
X15341610Y-14974174D01*
X15341610Y-14974174D02*
X15332087Y-14983698D01*
X15541610Y-15097984D02*
X15522563Y-15088460D01*
X15522563Y-15088460D02*
X15513039Y-15078936D01*
X15513039Y-15078936D02*
X15503515Y-15059888D01*
X15503515Y-15059888D02*
X15503515Y-15002746D01*
X15503515Y-15002746D02*
X15513039Y-14983698D01*
X15513039Y-14983698D02*
X15522563Y-14974174D01*
X15522563Y-14974174D02*
X15541610Y-14964650D01*
X15541610Y-14964650D02*
X15570182Y-14964650D01*
X15570182Y-14964650D02*
X15589230Y-14974174D01*
X15589230Y-14974174D02*
X15598753Y-14983698D01*
X15598753Y-14983698D02*
X15608277Y-15002746D01*
X15608277Y-15002746D02*
X15608277Y-15059888D01*
X15608277Y-15059888D02*
X15598753Y-15078936D01*
X15598753Y-15078936D02*
X15589230Y-15088460D01*
X15589230Y-15088460D02*
X15570182Y-15097984D01*
X15570182Y-15097984D02*
X15541610Y-15097984D01*
X15722563Y-15097984D02*
X15703515Y-15088460D01*
X15703515Y-15088460D02*
X15693991Y-15069412D01*
X15693991Y-15069412D02*
X15693991Y-14897984D01*
X15874944Y-15088460D02*
X15855896Y-15097984D01*
X15855896Y-15097984D02*
X15817801Y-15097984D01*
X15817801Y-15097984D02*
X15798753Y-15088460D01*
X15798753Y-15088460D02*
X15789230Y-15069412D01*
X15789230Y-15069412D02*
X15789230Y-14993222D01*
X15789230Y-14993222D02*
X15798753Y-14974174D01*
X15798753Y-14974174D02*
X15817801Y-14964650D01*
X15817801Y-14964650D02*
X15855896Y-14964650D01*
X15855896Y-14964650D02*
X15874944Y-14974174D01*
X15874944Y-14974174D02*
X15884468Y-14993222D01*
X15884468Y-14993222D02*
X15884468Y-15012269D01*
X15884468Y-15012269D02*
X15789230Y-15031317D01*
X15960658Y-15088460D02*
X15979706Y-15097984D01*
X15979706Y-15097984D02*
X16017801Y-15097984D01*
X16017801Y-15097984D02*
X16036849Y-15088460D01*
X16036849Y-15088460D02*
X16046372Y-15069412D01*
X16046372Y-15069412D02*
X16046372Y-15059888D01*
X16046372Y-15059888D02*
X16036849Y-15040841D01*
X16036849Y-15040841D02*
X16017801Y-15031317D01*
X16017801Y-15031317D02*
X15989230Y-15031317D01*
X15989230Y-15031317D02*
X15970182Y-15021793D01*
X15970182Y-15021793D02*
X15960658Y-15002746D01*
X15960658Y-15002746D02*
X15960658Y-14993222D01*
X15960658Y-14993222D02*
X15970182Y-14974174D01*
X15970182Y-14974174D02*
X15989230Y-14964650D01*
X15989230Y-14964650D02*
X16017801Y-14964650D01*
X16017801Y-14964650D02*
X16036849Y-14974174D01*
X16113039Y-15174174D02*
X16122563Y-15164650D01*
X16122563Y-15164650D02*
X16141611Y-15136079D01*
X16141611Y-15136079D02*
X16151134Y-15117031D01*
X16151134Y-15117031D02*
X16160658Y-15088460D01*
X16160658Y-15088460D02*
X16170182Y-15040841D01*
X16170182Y-15040841D02*
X16170182Y-15002746D01*
X16170182Y-15002746D02*
X16160658Y-14955127D01*
X16160658Y-14955127D02*
X16151134Y-14926555D01*
X16151134Y-14926555D02*
X16141611Y-14907508D01*
X16141611Y-14907508D02*
X16122563Y-14878936D01*
X16122563Y-14878936D02*
X16113039Y-14869412D01*
D13*
X11097500Y-15220500D02*
X11097500Y-15320500D01*
X11047500Y-15270500D02*
X11147500Y-15270500D01*
D12*
X11513039Y-15361984D02*
X11398753Y-15361984D01*
X11455896Y-15361984D02*
X11455896Y-15161984D01*
X11455896Y-15161984D02*
X11436848Y-15190555D01*
X11436848Y-15190555D02*
X11417801Y-15209603D01*
X11417801Y-15209603D02*
X11398753Y-15219127D01*
X11598753Y-15342936D02*
X11608277Y-15352460D01*
X11608277Y-15352460D02*
X11598753Y-15361984D01*
X11598753Y-15361984D02*
X11589229Y-15352460D01*
X11589229Y-15352460D02*
X11598753Y-15342936D01*
X11598753Y-15342936D02*
X11598753Y-15361984D01*
X11732086Y-15161984D02*
X11751134Y-15161984D01*
X11751134Y-15161984D02*
X11770182Y-15171508D01*
X11770182Y-15171508D02*
X11779705Y-15181031D01*
X11779705Y-15181031D02*
X11789229Y-15200079D01*
X11789229Y-15200079D02*
X11798753Y-15238174D01*
X11798753Y-15238174D02*
X11798753Y-15285793D01*
X11798753Y-15285793D02*
X11789229Y-15323888D01*
X11789229Y-15323888D02*
X11779705Y-15342936D01*
X11779705Y-15342936D02*
X11770182Y-15352460D01*
X11770182Y-15352460D02*
X11751134Y-15361984D01*
X11751134Y-15361984D02*
X11732086Y-15361984D01*
X11732086Y-15361984D02*
X11713039Y-15352460D01*
X11713039Y-15352460D02*
X11703515Y-15342936D01*
X11703515Y-15342936D02*
X11693991Y-15323888D01*
X11693991Y-15323888D02*
X11684467Y-15285793D01*
X11684467Y-15285793D02*
X11684467Y-15238174D01*
X11684467Y-15238174D02*
X11693991Y-15200079D01*
X11693991Y-15200079D02*
X11703515Y-15181031D01*
X11703515Y-15181031D02*
X11713039Y-15171508D01*
X11713039Y-15171508D02*
X11732086Y-15161984D01*
X11922562Y-15161984D02*
X11941610Y-15161984D01*
X11941610Y-15161984D02*
X11960658Y-15171508D01*
X11960658Y-15171508D02*
X11970182Y-15181031D01*
X11970182Y-15181031D02*
X11979705Y-15200079D01*
X11979705Y-15200079D02*
X11989229Y-15238174D01*
X11989229Y-15238174D02*
X11989229Y-15285793D01*
X11989229Y-15285793D02*
X11979705Y-15323888D01*
X11979705Y-15323888D02*
X11970182Y-15342936D01*
X11970182Y-15342936D02*
X11960658Y-15352460D01*
X11960658Y-15352460D02*
X11941610Y-15361984D01*
X11941610Y-15361984D02*
X11922562Y-15361984D01*
X11922562Y-15361984D02*
X11903515Y-15352460D01*
X11903515Y-15352460D02*
X11893991Y-15342936D01*
X11893991Y-15342936D02*
X11884467Y-15323888D01*
X11884467Y-15323888D02*
X11874943Y-15285793D01*
X11874943Y-15285793D02*
X11874943Y-15238174D01*
X11874943Y-15238174D02*
X11884467Y-15200079D01*
X11884467Y-15200079D02*
X11893991Y-15181031D01*
X11893991Y-15181031D02*
X11903515Y-15171508D01*
X11903515Y-15171508D02*
X11922562Y-15161984D01*
X12113039Y-15161984D02*
X12132086Y-15161984D01*
X12132086Y-15161984D02*
X12151134Y-15171508D01*
X12151134Y-15171508D02*
X12160658Y-15181031D01*
X12160658Y-15181031D02*
X12170182Y-15200079D01*
X12170182Y-15200079D02*
X12179705Y-15238174D01*
X12179705Y-15238174D02*
X12179705Y-15285793D01*
X12179705Y-15285793D02*
X12170182Y-15323888D01*
X12170182Y-15323888D02*
X12160658Y-15342936D01*
X12160658Y-15342936D02*
X12151134Y-15352460D01*
X12151134Y-15352460D02*
X12132086Y-15361984D01*
X12132086Y-15361984D02*
X12113039Y-15361984D01*
X12113039Y-15361984D02*
X12093991Y-15352460D01*
X12093991Y-15352460D02*
X12084467Y-15342936D01*
X12084467Y-15342936D02*
X12074943Y-15323888D01*
X12074943Y-15323888D02*
X12065420Y-15285793D01*
X12065420Y-15285793D02*
X12065420Y-15238174D01*
X12065420Y-15238174D02*
X12074943Y-15200079D01*
X12074943Y-15200079D02*
X12084467Y-15181031D01*
X12084467Y-15181031D02*
X12093991Y-15171508D01*
X12093991Y-15171508D02*
X12113039Y-15161984D01*
X12265420Y-15361984D02*
X12265420Y-15228650D01*
X12265420Y-15247698D02*
X12274943Y-15238174D01*
X12274943Y-15238174D02*
X12293991Y-15228650D01*
X12293991Y-15228650D02*
X12322563Y-15228650D01*
X12322563Y-15228650D02*
X12341610Y-15238174D01*
X12341610Y-15238174D02*
X12351134Y-15257222D01*
X12351134Y-15257222D02*
X12351134Y-15361984D01*
X12351134Y-15257222D02*
X12360658Y-15238174D01*
X12360658Y-15238174D02*
X12379705Y-15228650D01*
X12379705Y-15228650D02*
X12408277Y-15228650D01*
X12408277Y-15228650D02*
X12427324Y-15238174D01*
X12427324Y-15238174D02*
X12436848Y-15257222D01*
X12436848Y-15257222D02*
X12436848Y-15361984D01*
X12532086Y-15361984D02*
X12532086Y-15228650D01*
X12532086Y-15247698D02*
X12541610Y-15238174D01*
X12541610Y-15238174D02*
X12560658Y-15228650D01*
X12560658Y-15228650D02*
X12589229Y-15228650D01*
X12589229Y-15228650D02*
X12608277Y-15238174D01*
X12608277Y-15238174D02*
X12617801Y-15257222D01*
X12617801Y-15257222D02*
X12617801Y-15361984D01*
X12617801Y-15257222D02*
X12627324Y-15238174D01*
X12627324Y-15238174D02*
X12646372Y-15228650D01*
X12646372Y-15228650D02*
X12674943Y-15228650D01*
X12674943Y-15228650D02*
X12693991Y-15238174D01*
X12693991Y-15238174D02*
X12703515Y-15257222D01*
X12703515Y-15257222D02*
X12703515Y-15361984D01*
X13093991Y-15152460D02*
X12922563Y-15409603D01*
X13351134Y-15161984D02*
X13370182Y-15161984D01*
X13370182Y-15161984D02*
X13389229Y-15171508D01*
X13389229Y-15171508D02*
X13398753Y-15181031D01*
X13398753Y-15181031D02*
X13408277Y-15200079D01*
X13408277Y-15200079D02*
X13417801Y-15238174D01*
X13417801Y-15238174D02*
X13417801Y-15285793D01*
X13417801Y-15285793D02*
X13408277Y-15323888D01*
X13408277Y-15323888D02*
X13398753Y-15342936D01*
X13398753Y-15342936D02*
X13389229Y-15352460D01*
X13389229Y-15352460D02*
X13370182Y-15361984D01*
X13370182Y-15361984D02*
X13351134Y-15361984D01*
X13351134Y-15361984D02*
X13332086Y-15352460D01*
X13332086Y-15352460D02*
X13322563Y-15342936D01*
X13322563Y-15342936D02*
X13313039Y-15323888D01*
X13313039Y-15323888D02*
X13303515Y-15285793D01*
X13303515Y-15285793D02*
X13303515Y-15238174D01*
X13303515Y-15238174D02*
X13313039Y-15200079D01*
X13313039Y-15200079D02*
X13322563Y-15181031D01*
X13322563Y-15181031D02*
X13332086Y-15171508D01*
X13332086Y-15171508D02*
X13351134Y-15161984D01*
X13503515Y-15342936D02*
X13513039Y-15352460D01*
X13513039Y-15352460D02*
X13503515Y-15361984D01*
X13503515Y-15361984D02*
X13493991Y-15352460D01*
X13493991Y-15352460D02*
X13503515Y-15342936D01*
X13503515Y-15342936D02*
X13503515Y-15361984D01*
X13636848Y-15161984D02*
X13655896Y-15161984D01*
X13655896Y-15161984D02*
X13674944Y-15171508D01*
X13674944Y-15171508D02*
X13684467Y-15181031D01*
X13684467Y-15181031D02*
X13693991Y-15200079D01*
X13693991Y-15200079D02*
X13703515Y-15238174D01*
X13703515Y-15238174D02*
X13703515Y-15285793D01*
X13703515Y-15285793D02*
X13693991Y-15323888D01*
X13693991Y-15323888D02*
X13684467Y-15342936D01*
X13684467Y-15342936D02*
X13674944Y-15352460D01*
X13674944Y-15352460D02*
X13655896Y-15361984D01*
X13655896Y-15361984D02*
X13636848Y-15361984D01*
X13636848Y-15361984D02*
X13617801Y-15352460D01*
X13617801Y-15352460D02*
X13608277Y-15342936D01*
X13608277Y-15342936D02*
X13598753Y-15323888D01*
X13598753Y-15323888D02*
X13589229Y-15285793D01*
X13589229Y-15285793D02*
X13589229Y-15238174D01*
X13589229Y-15238174D02*
X13598753Y-15200079D01*
X13598753Y-15200079D02*
X13608277Y-15181031D01*
X13608277Y-15181031D02*
X13617801Y-15171508D01*
X13617801Y-15171508D02*
X13636848Y-15161984D01*
X13770182Y-15161984D02*
X13893991Y-15161984D01*
X13893991Y-15161984D02*
X13827325Y-15238174D01*
X13827325Y-15238174D02*
X13855896Y-15238174D01*
X13855896Y-15238174D02*
X13874944Y-15247698D01*
X13874944Y-15247698D02*
X13884467Y-15257222D01*
X13884467Y-15257222D02*
X13893991Y-15276269D01*
X13893991Y-15276269D02*
X13893991Y-15323888D01*
X13893991Y-15323888D02*
X13884467Y-15342936D01*
X13884467Y-15342936D02*
X13874944Y-15352460D01*
X13874944Y-15352460D02*
X13855896Y-15361984D01*
X13855896Y-15361984D02*
X13798753Y-15361984D01*
X13798753Y-15361984D02*
X13779706Y-15352460D01*
X13779706Y-15352460D02*
X13770182Y-15342936D01*
X13989229Y-15361984D02*
X14027325Y-15361984D01*
X14027325Y-15361984D02*
X14046372Y-15352460D01*
X14046372Y-15352460D02*
X14055896Y-15342936D01*
X14055896Y-15342936D02*
X14074944Y-15314365D01*
X14074944Y-15314365D02*
X14084467Y-15276269D01*
X14084467Y-15276269D02*
X14084467Y-15200079D01*
X14084467Y-15200079D02*
X14074944Y-15181031D01*
X14074944Y-15181031D02*
X14065420Y-15171508D01*
X14065420Y-15171508D02*
X14046372Y-15161984D01*
X14046372Y-15161984D02*
X14008277Y-15161984D01*
X14008277Y-15161984D02*
X13989229Y-15171508D01*
X13989229Y-15171508D02*
X13979706Y-15181031D01*
X13979706Y-15181031D02*
X13970182Y-15200079D01*
X13970182Y-15200079D02*
X13970182Y-15247698D01*
X13970182Y-15247698D02*
X13979706Y-15266746D01*
X13979706Y-15266746D02*
X13989229Y-15276269D01*
X13989229Y-15276269D02*
X14008277Y-15285793D01*
X14008277Y-15285793D02*
X14046372Y-15285793D01*
X14046372Y-15285793D02*
X14065420Y-15276269D01*
X14065420Y-15276269D02*
X14074944Y-15266746D01*
X14074944Y-15266746D02*
X14084467Y-15247698D01*
X14255896Y-15228650D02*
X14255896Y-15361984D01*
X14208277Y-15152460D02*
X14160658Y-15295317D01*
X14160658Y-15295317D02*
X14284467Y-15295317D01*
X14351134Y-15161984D02*
X14351134Y-15200079D01*
X14427325Y-15161984D02*
X14427325Y-15200079D01*
X14722563Y-15438174D02*
X14713039Y-15428650D01*
X14713039Y-15428650D02*
X14693991Y-15400079D01*
X14693991Y-15400079D02*
X14684468Y-15381031D01*
X14684468Y-15381031D02*
X14674944Y-15352460D01*
X14674944Y-15352460D02*
X14665420Y-15304841D01*
X14665420Y-15304841D02*
X14665420Y-15266746D01*
X14665420Y-15266746D02*
X14674944Y-15219127D01*
X14674944Y-15219127D02*
X14684468Y-15190555D01*
X14684468Y-15190555D02*
X14693991Y-15171508D01*
X14693991Y-15171508D02*
X14713039Y-15142936D01*
X14713039Y-15142936D02*
X14722563Y-15133412D01*
X14903515Y-15361984D02*
X14789229Y-15361984D01*
X14846372Y-15361984D02*
X14846372Y-15161984D01*
X14846372Y-15161984D02*
X14827325Y-15190555D01*
X14827325Y-15190555D02*
X14808277Y-15209603D01*
X14808277Y-15209603D02*
X14789229Y-15219127D01*
X15093991Y-15361984D02*
X14979706Y-15361984D01*
X15036848Y-15361984D02*
X15036848Y-15161984D01*
X15036848Y-15161984D02*
X15017801Y-15190555D01*
X15017801Y-15190555D02*
X14998753Y-15209603D01*
X14998753Y-15209603D02*
X14979706Y-15219127D01*
X15332087Y-15361984D02*
X15332087Y-15161984D01*
X15417801Y-15361984D02*
X15417801Y-15257222D01*
X15417801Y-15257222D02*
X15408277Y-15238174D01*
X15408277Y-15238174D02*
X15389230Y-15228650D01*
X15389230Y-15228650D02*
X15360658Y-15228650D01*
X15360658Y-15228650D02*
X15341610Y-15238174D01*
X15341610Y-15238174D02*
X15332087Y-15247698D01*
X15541610Y-15361984D02*
X15522563Y-15352460D01*
X15522563Y-15352460D02*
X15513039Y-15342936D01*
X15513039Y-15342936D02*
X15503515Y-15323888D01*
X15503515Y-15323888D02*
X15503515Y-15266746D01*
X15503515Y-15266746D02*
X15513039Y-15247698D01*
X15513039Y-15247698D02*
X15522563Y-15238174D01*
X15522563Y-15238174D02*
X15541610Y-15228650D01*
X15541610Y-15228650D02*
X15570182Y-15228650D01*
X15570182Y-15228650D02*
X15589230Y-15238174D01*
X15589230Y-15238174D02*
X15598753Y-15247698D01*
X15598753Y-15247698D02*
X15608277Y-15266746D01*
X15608277Y-15266746D02*
X15608277Y-15323888D01*
X15608277Y-15323888D02*
X15598753Y-15342936D01*
X15598753Y-15342936D02*
X15589230Y-15352460D01*
X15589230Y-15352460D02*
X15570182Y-15361984D01*
X15570182Y-15361984D02*
X15541610Y-15361984D01*
X15722563Y-15361984D02*
X15703515Y-15352460D01*
X15703515Y-15352460D02*
X15693991Y-15333412D01*
X15693991Y-15333412D02*
X15693991Y-15161984D01*
X15874944Y-15352460D02*
X15855896Y-15361984D01*
X15855896Y-15361984D02*
X15817801Y-15361984D01*
X15817801Y-15361984D02*
X15798753Y-15352460D01*
X15798753Y-15352460D02*
X15789230Y-15333412D01*
X15789230Y-15333412D02*
X15789230Y-15257222D01*
X15789230Y-15257222D02*
X15798753Y-15238174D01*
X15798753Y-15238174D02*
X15817801Y-15228650D01*
X15817801Y-15228650D02*
X15855896Y-15228650D01*
X15855896Y-15228650D02*
X15874944Y-15238174D01*
X15874944Y-15238174D02*
X15884468Y-15257222D01*
X15884468Y-15257222D02*
X15884468Y-15276269D01*
X15884468Y-15276269D02*
X15789230Y-15295317D01*
X15960658Y-15352460D02*
X15979706Y-15361984D01*
X15979706Y-15361984D02*
X16017801Y-15361984D01*
X16017801Y-15361984D02*
X16036849Y-15352460D01*
X16036849Y-15352460D02*
X16046372Y-15333412D01*
X16046372Y-15333412D02*
X16046372Y-15323888D01*
X16046372Y-15323888D02*
X16036849Y-15304841D01*
X16036849Y-15304841D02*
X16017801Y-15295317D01*
X16017801Y-15295317D02*
X15989230Y-15295317D01*
X15989230Y-15295317D02*
X15970182Y-15285793D01*
X15970182Y-15285793D02*
X15960658Y-15266746D01*
X15960658Y-15266746D02*
X15960658Y-15257222D01*
X15960658Y-15257222D02*
X15970182Y-15238174D01*
X15970182Y-15238174D02*
X15989230Y-15228650D01*
X15989230Y-15228650D02*
X16017801Y-15228650D01*
X16017801Y-15228650D02*
X16036849Y-15238174D01*
X16113039Y-15438174D02*
X16122563Y-15428650D01*
X16122563Y-15428650D02*
X16141611Y-15400079D01*
X16141611Y-15400079D02*
X16151134Y-15381031D01*
X16151134Y-15381031D02*
X16160658Y-15352460D01*
X16160658Y-15352460D02*
X16170182Y-15304841D01*
X16170182Y-15304841D02*
X16170182Y-15266746D01*
X16170182Y-15266746D02*
X16160658Y-15219127D01*
X16160658Y-15219127D02*
X16151134Y-15190555D01*
X16151134Y-15190555D02*
X16141611Y-15171508D01*
X16141611Y-15171508D02*
X16122563Y-15142936D01*
X16122563Y-15142936D02*
X16113039Y-15133412D01*
D13*
X11132856Y-15569856D02*
X11132856Y-15499144D01*
X11062144Y-15499144D01*
X11062144Y-15569856D01*
X11132856Y-15569856D01*
D12*
X11513039Y-15625984D02*
X11398753Y-15625984D01*
X11455896Y-15625984D02*
X11455896Y-15425984D01*
X11455896Y-15425984D02*
X11436848Y-15454555D01*
X11436848Y-15454555D02*
X11417801Y-15473603D01*
X11417801Y-15473603D02*
X11398753Y-15483127D01*
X11598753Y-15606936D02*
X11608277Y-15616460D01*
X11608277Y-15616460D02*
X11598753Y-15625984D01*
X11598753Y-15625984D02*
X11589229Y-15616460D01*
X11589229Y-15616460D02*
X11598753Y-15606936D01*
X11598753Y-15606936D02*
X11598753Y-15625984D01*
X11732086Y-15425984D02*
X11751134Y-15425984D01*
X11751134Y-15425984D02*
X11770182Y-15435508D01*
X11770182Y-15435508D02*
X11779705Y-15445031D01*
X11779705Y-15445031D02*
X11789229Y-15464079D01*
X11789229Y-15464079D02*
X11798753Y-15502174D01*
X11798753Y-15502174D02*
X11798753Y-15549793D01*
X11798753Y-15549793D02*
X11789229Y-15587888D01*
X11789229Y-15587888D02*
X11779705Y-15606936D01*
X11779705Y-15606936D02*
X11770182Y-15616460D01*
X11770182Y-15616460D02*
X11751134Y-15625984D01*
X11751134Y-15625984D02*
X11732086Y-15625984D01*
X11732086Y-15625984D02*
X11713039Y-15616460D01*
X11713039Y-15616460D02*
X11703515Y-15606936D01*
X11703515Y-15606936D02*
X11693991Y-15587888D01*
X11693991Y-15587888D02*
X11684467Y-15549793D01*
X11684467Y-15549793D02*
X11684467Y-15502174D01*
X11684467Y-15502174D02*
X11693991Y-15464079D01*
X11693991Y-15464079D02*
X11703515Y-15445031D01*
X11703515Y-15445031D02*
X11713039Y-15435508D01*
X11713039Y-15435508D02*
X11732086Y-15425984D01*
X11922562Y-15425984D02*
X11941610Y-15425984D01*
X11941610Y-15425984D02*
X11960658Y-15435508D01*
X11960658Y-15435508D02*
X11970182Y-15445031D01*
X11970182Y-15445031D02*
X11979705Y-15464079D01*
X11979705Y-15464079D02*
X11989229Y-15502174D01*
X11989229Y-15502174D02*
X11989229Y-15549793D01*
X11989229Y-15549793D02*
X11979705Y-15587888D01*
X11979705Y-15587888D02*
X11970182Y-15606936D01*
X11970182Y-15606936D02*
X11960658Y-15616460D01*
X11960658Y-15616460D02*
X11941610Y-15625984D01*
X11941610Y-15625984D02*
X11922562Y-15625984D01*
X11922562Y-15625984D02*
X11903515Y-15616460D01*
X11903515Y-15616460D02*
X11893991Y-15606936D01*
X11893991Y-15606936D02*
X11884467Y-15587888D01*
X11884467Y-15587888D02*
X11874943Y-15549793D01*
X11874943Y-15549793D02*
X11874943Y-15502174D01*
X11874943Y-15502174D02*
X11884467Y-15464079D01*
X11884467Y-15464079D02*
X11893991Y-15445031D01*
X11893991Y-15445031D02*
X11903515Y-15435508D01*
X11903515Y-15435508D02*
X11922562Y-15425984D01*
X12113039Y-15425984D02*
X12132086Y-15425984D01*
X12132086Y-15425984D02*
X12151134Y-15435508D01*
X12151134Y-15435508D02*
X12160658Y-15445031D01*
X12160658Y-15445031D02*
X12170182Y-15464079D01*
X12170182Y-15464079D02*
X12179705Y-15502174D01*
X12179705Y-15502174D02*
X12179705Y-15549793D01*
X12179705Y-15549793D02*
X12170182Y-15587888D01*
X12170182Y-15587888D02*
X12160658Y-15606936D01*
X12160658Y-15606936D02*
X12151134Y-15616460D01*
X12151134Y-15616460D02*
X12132086Y-15625984D01*
X12132086Y-15625984D02*
X12113039Y-15625984D01*
X12113039Y-15625984D02*
X12093991Y-15616460D01*
X12093991Y-15616460D02*
X12084467Y-15606936D01*
X12084467Y-15606936D02*
X12074943Y-15587888D01*
X12074943Y-15587888D02*
X12065420Y-15549793D01*
X12065420Y-15549793D02*
X12065420Y-15502174D01*
X12065420Y-15502174D02*
X12074943Y-15464079D01*
X12074943Y-15464079D02*
X12084467Y-15445031D01*
X12084467Y-15445031D02*
X12093991Y-15435508D01*
X12093991Y-15435508D02*
X12113039Y-15425984D01*
X12265420Y-15625984D02*
X12265420Y-15492650D01*
X12265420Y-15511698D02*
X12274943Y-15502174D01*
X12274943Y-15502174D02*
X12293991Y-15492650D01*
X12293991Y-15492650D02*
X12322563Y-15492650D01*
X12322563Y-15492650D02*
X12341610Y-15502174D01*
X12341610Y-15502174D02*
X12351134Y-15521222D01*
X12351134Y-15521222D02*
X12351134Y-15625984D01*
X12351134Y-15521222D02*
X12360658Y-15502174D01*
X12360658Y-15502174D02*
X12379705Y-15492650D01*
X12379705Y-15492650D02*
X12408277Y-15492650D01*
X12408277Y-15492650D02*
X12427324Y-15502174D01*
X12427324Y-15502174D02*
X12436848Y-15521222D01*
X12436848Y-15521222D02*
X12436848Y-15625984D01*
X12532086Y-15625984D02*
X12532086Y-15492650D01*
X12532086Y-15511698D02*
X12541610Y-15502174D01*
X12541610Y-15502174D02*
X12560658Y-15492650D01*
X12560658Y-15492650D02*
X12589229Y-15492650D01*
X12589229Y-15492650D02*
X12608277Y-15502174D01*
X12608277Y-15502174D02*
X12617801Y-15521222D01*
X12617801Y-15521222D02*
X12617801Y-15625984D01*
X12617801Y-15521222D02*
X12627324Y-15502174D01*
X12627324Y-15502174D02*
X12646372Y-15492650D01*
X12646372Y-15492650D02*
X12674943Y-15492650D01*
X12674943Y-15492650D02*
X12693991Y-15502174D01*
X12693991Y-15502174D02*
X12703515Y-15521222D01*
X12703515Y-15521222D02*
X12703515Y-15625984D01*
X13093991Y-15416460D02*
X12922563Y-15673603D01*
X13351134Y-15425984D02*
X13370182Y-15425984D01*
X13370182Y-15425984D02*
X13389229Y-15435508D01*
X13389229Y-15435508D02*
X13398753Y-15445031D01*
X13398753Y-15445031D02*
X13408277Y-15464079D01*
X13408277Y-15464079D02*
X13417801Y-15502174D01*
X13417801Y-15502174D02*
X13417801Y-15549793D01*
X13417801Y-15549793D02*
X13408277Y-15587888D01*
X13408277Y-15587888D02*
X13398753Y-15606936D01*
X13398753Y-15606936D02*
X13389229Y-15616460D01*
X13389229Y-15616460D02*
X13370182Y-15625984D01*
X13370182Y-15625984D02*
X13351134Y-15625984D01*
X13351134Y-15625984D02*
X13332086Y-15616460D01*
X13332086Y-15616460D02*
X13322563Y-15606936D01*
X13322563Y-15606936D02*
X13313039Y-15587888D01*
X13313039Y-15587888D02*
X13303515Y-15549793D01*
X13303515Y-15549793D02*
X13303515Y-15502174D01*
X13303515Y-15502174D02*
X13313039Y-15464079D01*
X13313039Y-15464079D02*
X13322563Y-15445031D01*
X13322563Y-15445031D02*
X13332086Y-15435508D01*
X13332086Y-15435508D02*
X13351134Y-15425984D01*
X13503515Y-15606936D02*
X13513039Y-15616460D01*
X13513039Y-15616460D02*
X13503515Y-15625984D01*
X13503515Y-15625984D02*
X13493991Y-15616460D01*
X13493991Y-15616460D02*
X13503515Y-15606936D01*
X13503515Y-15606936D02*
X13503515Y-15625984D01*
X13636848Y-15425984D02*
X13655896Y-15425984D01*
X13655896Y-15425984D02*
X13674944Y-15435508D01*
X13674944Y-15435508D02*
X13684467Y-15445031D01*
X13684467Y-15445031D02*
X13693991Y-15464079D01*
X13693991Y-15464079D02*
X13703515Y-15502174D01*
X13703515Y-15502174D02*
X13703515Y-15549793D01*
X13703515Y-15549793D02*
X13693991Y-15587888D01*
X13693991Y-15587888D02*
X13684467Y-15606936D01*
X13684467Y-15606936D02*
X13674944Y-15616460D01*
X13674944Y-15616460D02*
X13655896Y-15625984D01*
X13655896Y-15625984D02*
X13636848Y-15625984D01*
X13636848Y-15625984D02*
X13617801Y-15616460D01*
X13617801Y-15616460D02*
X13608277Y-15606936D01*
X13608277Y-15606936D02*
X13598753Y-15587888D01*
X13598753Y-15587888D02*
X13589229Y-15549793D01*
X13589229Y-15549793D02*
X13589229Y-15502174D01*
X13589229Y-15502174D02*
X13598753Y-15464079D01*
X13598753Y-15464079D02*
X13608277Y-15445031D01*
X13608277Y-15445031D02*
X13617801Y-15435508D01*
X13617801Y-15435508D02*
X13636848Y-15425984D01*
X13770182Y-15425984D02*
X13893991Y-15425984D01*
X13893991Y-15425984D02*
X13827325Y-15502174D01*
X13827325Y-15502174D02*
X13855896Y-15502174D01*
X13855896Y-15502174D02*
X13874944Y-15511698D01*
X13874944Y-15511698D02*
X13884467Y-15521222D01*
X13884467Y-15521222D02*
X13893991Y-15540269D01*
X13893991Y-15540269D02*
X13893991Y-15587888D01*
X13893991Y-15587888D02*
X13884467Y-15606936D01*
X13884467Y-15606936D02*
X13874944Y-15616460D01*
X13874944Y-15616460D02*
X13855896Y-15625984D01*
X13855896Y-15625984D02*
X13798753Y-15625984D01*
X13798753Y-15625984D02*
X13779706Y-15616460D01*
X13779706Y-15616460D02*
X13770182Y-15606936D01*
X13989229Y-15625984D02*
X14027325Y-15625984D01*
X14027325Y-15625984D02*
X14046372Y-15616460D01*
X14046372Y-15616460D02*
X14055896Y-15606936D01*
X14055896Y-15606936D02*
X14074944Y-15578365D01*
X14074944Y-15578365D02*
X14084467Y-15540269D01*
X14084467Y-15540269D02*
X14084467Y-15464079D01*
X14084467Y-15464079D02*
X14074944Y-15445031D01*
X14074944Y-15445031D02*
X14065420Y-15435508D01*
X14065420Y-15435508D02*
X14046372Y-15425984D01*
X14046372Y-15425984D02*
X14008277Y-15425984D01*
X14008277Y-15425984D02*
X13989229Y-15435508D01*
X13989229Y-15435508D02*
X13979706Y-15445031D01*
X13979706Y-15445031D02*
X13970182Y-15464079D01*
X13970182Y-15464079D02*
X13970182Y-15511698D01*
X13970182Y-15511698D02*
X13979706Y-15530746D01*
X13979706Y-15530746D02*
X13989229Y-15540269D01*
X13989229Y-15540269D02*
X14008277Y-15549793D01*
X14008277Y-15549793D02*
X14046372Y-15549793D01*
X14046372Y-15549793D02*
X14065420Y-15540269D01*
X14065420Y-15540269D02*
X14074944Y-15530746D01*
X14074944Y-15530746D02*
X14084467Y-15511698D01*
X14255896Y-15492650D02*
X14255896Y-15625984D01*
X14208277Y-15416460D02*
X14160658Y-15559317D01*
X14160658Y-15559317D02*
X14284467Y-15559317D01*
X14351134Y-15425984D02*
X14351134Y-15464079D01*
X14427325Y-15425984D02*
X14427325Y-15464079D01*
X14722563Y-15702174D02*
X14713039Y-15692650D01*
X14713039Y-15692650D02*
X14693991Y-15664079D01*
X14693991Y-15664079D02*
X14684468Y-15645031D01*
X14684468Y-15645031D02*
X14674944Y-15616460D01*
X14674944Y-15616460D02*
X14665420Y-15568841D01*
X14665420Y-15568841D02*
X14665420Y-15530746D01*
X14665420Y-15530746D02*
X14674944Y-15483127D01*
X14674944Y-15483127D02*
X14684468Y-15454555D01*
X14684468Y-15454555D02*
X14693991Y-15435508D01*
X14693991Y-15435508D02*
X14713039Y-15406936D01*
X14713039Y-15406936D02*
X14722563Y-15397412D01*
X14789229Y-15445031D02*
X14798753Y-15435508D01*
X14798753Y-15435508D02*
X14817801Y-15425984D01*
X14817801Y-15425984D02*
X14865420Y-15425984D01*
X14865420Y-15425984D02*
X14884468Y-15435508D01*
X14884468Y-15435508D02*
X14893991Y-15445031D01*
X14893991Y-15445031D02*
X14903515Y-15464079D01*
X14903515Y-15464079D02*
X14903515Y-15483127D01*
X14903515Y-15483127D02*
X14893991Y-15511698D01*
X14893991Y-15511698D02*
X14779706Y-15625984D01*
X14779706Y-15625984D02*
X14903515Y-15625984D01*
X15141610Y-15625984D02*
X15141610Y-15425984D01*
X15227325Y-15625984D02*
X15227325Y-15521222D01*
X15227325Y-15521222D02*
X15217801Y-15502174D01*
X15217801Y-15502174D02*
X15198753Y-15492650D01*
X15198753Y-15492650D02*
X15170182Y-15492650D01*
X15170182Y-15492650D02*
X15151134Y-15502174D01*
X15151134Y-15502174D02*
X15141610Y-15511698D01*
X15351134Y-15625984D02*
X15332087Y-15616460D01*
X15332087Y-15616460D02*
X15322563Y-15606936D01*
X15322563Y-15606936D02*
X15313039Y-15587888D01*
X15313039Y-15587888D02*
X15313039Y-15530746D01*
X15313039Y-15530746D02*
X15322563Y-15511698D01*
X15322563Y-15511698D02*
X15332087Y-15502174D01*
X15332087Y-15502174D02*
X15351134Y-15492650D01*
X15351134Y-15492650D02*
X15379706Y-15492650D01*
X15379706Y-15492650D02*
X15398753Y-15502174D01*
X15398753Y-15502174D02*
X15408277Y-15511698D01*
X15408277Y-15511698D02*
X15417801Y-15530746D01*
X15417801Y-15530746D02*
X15417801Y-15587888D01*
X15417801Y-15587888D02*
X15408277Y-15606936D01*
X15408277Y-15606936D02*
X15398753Y-15616460D01*
X15398753Y-15616460D02*
X15379706Y-15625984D01*
X15379706Y-15625984D02*
X15351134Y-15625984D01*
X15532087Y-15625984D02*
X15513039Y-15616460D01*
X15513039Y-15616460D02*
X15503515Y-15597412D01*
X15503515Y-15597412D02*
X15503515Y-15425984D01*
X15684468Y-15616460D02*
X15665420Y-15625984D01*
X15665420Y-15625984D02*
X15627325Y-15625984D01*
X15627325Y-15625984D02*
X15608277Y-15616460D01*
X15608277Y-15616460D02*
X15598753Y-15597412D01*
X15598753Y-15597412D02*
X15598753Y-15521222D01*
X15598753Y-15521222D02*
X15608277Y-15502174D01*
X15608277Y-15502174D02*
X15627325Y-15492650D01*
X15627325Y-15492650D02*
X15665420Y-15492650D01*
X15665420Y-15492650D02*
X15684468Y-15502174D01*
X15684468Y-15502174D02*
X15693991Y-15521222D01*
X15693991Y-15521222D02*
X15693991Y-15540269D01*
X15693991Y-15540269D02*
X15598753Y-15559317D01*
X15770182Y-15616460D02*
X15789230Y-15625984D01*
X15789230Y-15625984D02*
X15827325Y-15625984D01*
X15827325Y-15625984D02*
X15846372Y-15616460D01*
X15846372Y-15616460D02*
X15855896Y-15597412D01*
X15855896Y-15597412D02*
X15855896Y-15587888D01*
X15855896Y-15587888D02*
X15846372Y-15568841D01*
X15846372Y-15568841D02*
X15827325Y-15559317D01*
X15827325Y-15559317D02*
X15798753Y-15559317D01*
X15798753Y-15559317D02*
X15779706Y-15549793D01*
X15779706Y-15549793D02*
X15770182Y-15530746D01*
X15770182Y-15530746D02*
X15770182Y-15521222D01*
X15770182Y-15521222D02*
X15779706Y-15502174D01*
X15779706Y-15502174D02*
X15798753Y-15492650D01*
X15798753Y-15492650D02*
X15827325Y-15492650D01*
X15827325Y-15492650D02*
X15846372Y-15502174D01*
X15922563Y-15702174D02*
X15932087Y-15692650D01*
X15932087Y-15692650D02*
X15951134Y-15664079D01*
X15951134Y-15664079D02*
X15960658Y-15645031D01*
X15960658Y-15645031D02*
X15970182Y-15616460D01*
X15970182Y-15616460D02*
X15979706Y-15568841D01*
X15979706Y-15568841D02*
X15979706Y-15530746D01*
X15979706Y-15530746D02*
X15970182Y-15483127D01*
X15970182Y-15483127D02*
X15960658Y-15454555D01*
X15960658Y-15454555D02*
X15951134Y-15435508D01*
X15951134Y-15435508D02*
X15932087Y-15406936D01*
X15932087Y-15406936D02*
X15922563Y-15397412D01*
D14*
X11096500Y-15849500D02*
X11147500Y-15798500D01*
X11096500Y-15747500D01*
X11045500Y-15798500D01*
X11096500Y-15849500D01*
D12*
X11513039Y-15889984D02*
X11398753Y-15889984D01*
X11455896Y-15889984D02*
X11455896Y-15689984D01*
X11455896Y-15689984D02*
X11436848Y-15718555D01*
X11436848Y-15718555D02*
X11417801Y-15737603D01*
X11417801Y-15737603D02*
X11398753Y-15747127D01*
X11598753Y-15870936D02*
X11608277Y-15880460D01*
X11608277Y-15880460D02*
X11598753Y-15889984D01*
X11598753Y-15889984D02*
X11589229Y-15880460D01*
X11589229Y-15880460D02*
X11598753Y-15870936D01*
X11598753Y-15870936D02*
X11598753Y-15889984D01*
X11732086Y-15689984D02*
X11751134Y-15689984D01*
X11751134Y-15689984D02*
X11770182Y-15699508D01*
X11770182Y-15699508D02*
X11779705Y-15709031D01*
X11779705Y-15709031D02*
X11789229Y-15728079D01*
X11789229Y-15728079D02*
X11798753Y-15766174D01*
X11798753Y-15766174D02*
X11798753Y-15813793D01*
X11798753Y-15813793D02*
X11789229Y-15851888D01*
X11789229Y-15851888D02*
X11779705Y-15870936D01*
X11779705Y-15870936D02*
X11770182Y-15880460D01*
X11770182Y-15880460D02*
X11751134Y-15889984D01*
X11751134Y-15889984D02*
X11732086Y-15889984D01*
X11732086Y-15889984D02*
X11713039Y-15880460D01*
X11713039Y-15880460D02*
X11703515Y-15870936D01*
X11703515Y-15870936D02*
X11693991Y-15851888D01*
X11693991Y-15851888D02*
X11684467Y-15813793D01*
X11684467Y-15813793D02*
X11684467Y-15766174D01*
X11684467Y-15766174D02*
X11693991Y-15728079D01*
X11693991Y-15728079D02*
X11703515Y-15709031D01*
X11703515Y-15709031D02*
X11713039Y-15699508D01*
X11713039Y-15699508D02*
X11732086Y-15689984D01*
X11874943Y-15709031D02*
X11884467Y-15699508D01*
X11884467Y-15699508D02*
X11903515Y-15689984D01*
X11903515Y-15689984D02*
X11951134Y-15689984D01*
X11951134Y-15689984D02*
X11970182Y-15699508D01*
X11970182Y-15699508D02*
X11979705Y-15709031D01*
X11979705Y-15709031D02*
X11989229Y-15728079D01*
X11989229Y-15728079D02*
X11989229Y-15747127D01*
X11989229Y-15747127D02*
X11979705Y-15775698D01*
X11979705Y-15775698D02*
X11865420Y-15889984D01*
X11865420Y-15889984D02*
X11989229Y-15889984D01*
X12113039Y-15689984D02*
X12132086Y-15689984D01*
X12132086Y-15689984D02*
X12151134Y-15699508D01*
X12151134Y-15699508D02*
X12160658Y-15709031D01*
X12160658Y-15709031D02*
X12170182Y-15728079D01*
X12170182Y-15728079D02*
X12179705Y-15766174D01*
X12179705Y-15766174D02*
X12179705Y-15813793D01*
X12179705Y-15813793D02*
X12170182Y-15851888D01*
X12170182Y-15851888D02*
X12160658Y-15870936D01*
X12160658Y-15870936D02*
X12151134Y-15880460D01*
X12151134Y-15880460D02*
X12132086Y-15889984D01*
X12132086Y-15889984D02*
X12113039Y-15889984D01*
X12113039Y-15889984D02*
X12093991Y-15880460D01*
X12093991Y-15880460D02*
X12084467Y-15870936D01*
X12084467Y-15870936D02*
X12074943Y-15851888D01*
X12074943Y-15851888D02*
X12065420Y-15813793D01*
X12065420Y-15813793D02*
X12065420Y-15766174D01*
X12065420Y-15766174D02*
X12074943Y-15728079D01*
X12074943Y-15728079D02*
X12084467Y-15709031D01*
X12084467Y-15709031D02*
X12093991Y-15699508D01*
X12093991Y-15699508D02*
X12113039Y-15689984D01*
X12265420Y-15889984D02*
X12265420Y-15756650D01*
X12265420Y-15775698D02*
X12274943Y-15766174D01*
X12274943Y-15766174D02*
X12293991Y-15756650D01*
X12293991Y-15756650D02*
X12322563Y-15756650D01*
X12322563Y-15756650D02*
X12341610Y-15766174D01*
X12341610Y-15766174D02*
X12351134Y-15785222D01*
X12351134Y-15785222D02*
X12351134Y-15889984D01*
X12351134Y-15785222D02*
X12360658Y-15766174D01*
X12360658Y-15766174D02*
X12379705Y-15756650D01*
X12379705Y-15756650D02*
X12408277Y-15756650D01*
X12408277Y-15756650D02*
X12427324Y-15766174D01*
X12427324Y-15766174D02*
X12436848Y-15785222D01*
X12436848Y-15785222D02*
X12436848Y-15889984D01*
X12532086Y-15889984D02*
X12532086Y-15756650D01*
X12532086Y-15775698D02*
X12541610Y-15766174D01*
X12541610Y-15766174D02*
X12560658Y-15756650D01*
X12560658Y-15756650D02*
X12589229Y-15756650D01*
X12589229Y-15756650D02*
X12608277Y-15766174D01*
X12608277Y-15766174D02*
X12617801Y-15785222D01*
X12617801Y-15785222D02*
X12617801Y-15889984D01*
X12617801Y-15785222D02*
X12627324Y-15766174D01*
X12627324Y-15766174D02*
X12646372Y-15756650D01*
X12646372Y-15756650D02*
X12674943Y-15756650D01*
X12674943Y-15756650D02*
X12693991Y-15766174D01*
X12693991Y-15766174D02*
X12703515Y-15785222D01*
X12703515Y-15785222D02*
X12703515Y-15889984D01*
X13093991Y-15680460D02*
X12922563Y-15937603D01*
X13351134Y-15689984D02*
X13370182Y-15689984D01*
X13370182Y-15689984D02*
X13389229Y-15699508D01*
X13389229Y-15699508D02*
X13398753Y-15709031D01*
X13398753Y-15709031D02*
X13408277Y-15728079D01*
X13408277Y-15728079D02*
X13417801Y-15766174D01*
X13417801Y-15766174D02*
X13417801Y-15813793D01*
X13417801Y-15813793D02*
X13408277Y-15851888D01*
X13408277Y-15851888D02*
X13398753Y-15870936D01*
X13398753Y-15870936D02*
X13389229Y-15880460D01*
X13389229Y-15880460D02*
X13370182Y-15889984D01*
X13370182Y-15889984D02*
X13351134Y-15889984D01*
X13351134Y-15889984D02*
X13332086Y-15880460D01*
X13332086Y-15880460D02*
X13322563Y-15870936D01*
X13322563Y-15870936D02*
X13313039Y-15851888D01*
X13313039Y-15851888D02*
X13303515Y-15813793D01*
X13303515Y-15813793D02*
X13303515Y-15766174D01*
X13303515Y-15766174D02*
X13313039Y-15728079D01*
X13313039Y-15728079D02*
X13322563Y-15709031D01*
X13322563Y-15709031D02*
X13332086Y-15699508D01*
X13332086Y-15699508D02*
X13351134Y-15689984D01*
X13503515Y-15870936D02*
X13513039Y-15880460D01*
X13513039Y-15880460D02*
X13503515Y-15889984D01*
X13503515Y-15889984D02*
X13493991Y-15880460D01*
X13493991Y-15880460D02*
X13503515Y-15870936D01*
X13503515Y-15870936D02*
X13503515Y-15889984D01*
X13636848Y-15689984D02*
X13655896Y-15689984D01*
X13655896Y-15689984D02*
X13674944Y-15699508D01*
X13674944Y-15699508D02*
X13684467Y-15709031D01*
X13684467Y-15709031D02*
X13693991Y-15728079D01*
X13693991Y-15728079D02*
X13703515Y-15766174D01*
X13703515Y-15766174D02*
X13703515Y-15813793D01*
X13703515Y-15813793D02*
X13693991Y-15851888D01*
X13693991Y-15851888D02*
X13684467Y-15870936D01*
X13684467Y-15870936D02*
X13674944Y-15880460D01*
X13674944Y-15880460D02*
X13655896Y-15889984D01*
X13655896Y-15889984D02*
X13636848Y-15889984D01*
X13636848Y-15889984D02*
X13617801Y-15880460D01*
X13617801Y-15880460D02*
X13608277Y-15870936D01*
X13608277Y-15870936D02*
X13598753Y-15851888D01*
X13598753Y-15851888D02*
X13589229Y-15813793D01*
X13589229Y-15813793D02*
X13589229Y-15766174D01*
X13589229Y-15766174D02*
X13598753Y-15728079D01*
X13598753Y-15728079D02*
X13608277Y-15709031D01*
X13608277Y-15709031D02*
X13617801Y-15699508D01*
X13617801Y-15699508D02*
X13636848Y-15689984D01*
X13874944Y-15756650D02*
X13874944Y-15889984D01*
X13827325Y-15680460D02*
X13779706Y-15823317D01*
X13779706Y-15823317D02*
X13903515Y-15823317D01*
X14017801Y-15689984D02*
X14036848Y-15689984D01*
X14036848Y-15689984D02*
X14055896Y-15699508D01*
X14055896Y-15699508D02*
X14065420Y-15709031D01*
X14065420Y-15709031D02*
X14074944Y-15728079D01*
X14074944Y-15728079D02*
X14084467Y-15766174D01*
X14084467Y-15766174D02*
X14084467Y-15813793D01*
X14084467Y-15813793D02*
X14074944Y-15851888D01*
X14074944Y-15851888D02*
X14065420Y-15870936D01*
X14065420Y-15870936D02*
X14055896Y-15880460D01*
X14055896Y-15880460D02*
X14036848Y-15889984D01*
X14036848Y-15889984D02*
X14017801Y-15889984D01*
X14017801Y-15889984D02*
X13998753Y-15880460D01*
X13998753Y-15880460D02*
X13989229Y-15870936D01*
X13989229Y-15870936D02*
X13979706Y-15851888D01*
X13979706Y-15851888D02*
X13970182Y-15813793D01*
X13970182Y-15813793D02*
X13970182Y-15766174D01*
X13970182Y-15766174D02*
X13979706Y-15728079D01*
X13979706Y-15728079D02*
X13989229Y-15709031D01*
X13989229Y-15709031D02*
X13998753Y-15699508D01*
X13998753Y-15699508D02*
X14017801Y-15689984D01*
X14160658Y-15709031D02*
X14170182Y-15699508D01*
X14170182Y-15699508D02*
X14189229Y-15689984D01*
X14189229Y-15689984D02*
X14236848Y-15689984D01*
X14236848Y-15689984D02*
X14255896Y-15699508D01*
X14255896Y-15699508D02*
X14265420Y-15709031D01*
X14265420Y-15709031D02*
X14274944Y-15728079D01*
X14274944Y-15728079D02*
X14274944Y-15747127D01*
X14274944Y-15747127D02*
X14265420Y-15775698D01*
X14265420Y-15775698D02*
X14151134Y-15889984D01*
X14151134Y-15889984D02*
X14274944Y-15889984D01*
X14351134Y-15689984D02*
X14351134Y-15728079D01*
X14427325Y-15689984D02*
X14427325Y-15728079D01*
X14722563Y-15966174D02*
X14713039Y-15956650D01*
X14713039Y-15956650D02*
X14693991Y-15928079D01*
X14693991Y-15928079D02*
X14684468Y-15909031D01*
X14684468Y-15909031D02*
X14674944Y-15880460D01*
X14674944Y-15880460D02*
X14665420Y-15832841D01*
X14665420Y-15832841D02*
X14665420Y-15794746D01*
X14665420Y-15794746D02*
X14674944Y-15747127D01*
X14674944Y-15747127D02*
X14684468Y-15718555D01*
X14684468Y-15718555D02*
X14693991Y-15699508D01*
X14693991Y-15699508D02*
X14713039Y-15670936D01*
X14713039Y-15670936D02*
X14722563Y-15661412D01*
X14836848Y-15689984D02*
X14855896Y-15689984D01*
X14855896Y-15689984D02*
X14874944Y-15699508D01*
X14874944Y-15699508D02*
X14884468Y-15709031D01*
X14884468Y-15709031D02*
X14893991Y-15728079D01*
X14893991Y-15728079D02*
X14903515Y-15766174D01*
X14903515Y-15766174D02*
X14903515Y-15813793D01*
X14903515Y-15813793D02*
X14893991Y-15851888D01*
X14893991Y-15851888D02*
X14884468Y-15870936D01*
X14884468Y-15870936D02*
X14874944Y-15880460D01*
X14874944Y-15880460D02*
X14855896Y-15889984D01*
X14855896Y-15889984D02*
X14836848Y-15889984D01*
X14836848Y-15889984D02*
X14817801Y-15880460D01*
X14817801Y-15880460D02*
X14808277Y-15870936D01*
X14808277Y-15870936D02*
X14798753Y-15851888D01*
X14798753Y-15851888D02*
X14789229Y-15813793D01*
X14789229Y-15813793D02*
X14789229Y-15766174D01*
X14789229Y-15766174D02*
X14798753Y-15728079D01*
X14798753Y-15728079D02*
X14808277Y-15709031D01*
X14808277Y-15709031D02*
X14817801Y-15699508D01*
X14817801Y-15699508D02*
X14836848Y-15689984D01*
X15141610Y-15889984D02*
X15141610Y-15689984D01*
X15227325Y-15889984D02*
X15227325Y-15785222D01*
X15227325Y-15785222D02*
X15217801Y-15766174D01*
X15217801Y-15766174D02*
X15198753Y-15756650D01*
X15198753Y-15756650D02*
X15170182Y-15756650D01*
X15170182Y-15756650D02*
X15151134Y-15766174D01*
X15151134Y-15766174D02*
X15141610Y-15775698D01*
X15351134Y-15889984D02*
X15332087Y-15880460D01*
X15332087Y-15880460D02*
X15322563Y-15870936D01*
X15322563Y-15870936D02*
X15313039Y-15851888D01*
X15313039Y-15851888D02*
X15313039Y-15794746D01*
X15313039Y-15794746D02*
X15322563Y-15775698D01*
X15322563Y-15775698D02*
X15332087Y-15766174D01*
X15332087Y-15766174D02*
X15351134Y-15756650D01*
X15351134Y-15756650D02*
X15379706Y-15756650D01*
X15379706Y-15756650D02*
X15398753Y-15766174D01*
X15398753Y-15766174D02*
X15408277Y-15775698D01*
X15408277Y-15775698D02*
X15417801Y-15794746D01*
X15417801Y-15794746D02*
X15417801Y-15851888D01*
X15417801Y-15851888D02*
X15408277Y-15870936D01*
X15408277Y-15870936D02*
X15398753Y-15880460D01*
X15398753Y-15880460D02*
X15379706Y-15889984D01*
X15379706Y-15889984D02*
X15351134Y-15889984D01*
X15532087Y-15889984D02*
X15513039Y-15880460D01*
X15513039Y-15880460D02*
X15503515Y-15861412D01*
X15503515Y-15861412D02*
X15503515Y-15689984D01*
X15684468Y-15880460D02*
X15665420Y-15889984D01*
X15665420Y-15889984D02*
X15627325Y-15889984D01*
X15627325Y-15889984D02*
X15608277Y-15880460D01*
X15608277Y-15880460D02*
X15598753Y-15861412D01*
X15598753Y-15861412D02*
X15598753Y-15785222D01*
X15598753Y-15785222D02*
X15608277Y-15766174D01*
X15608277Y-15766174D02*
X15627325Y-15756650D01*
X15627325Y-15756650D02*
X15665420Y-15756650D01*
X15665420Y-15756650D02*
X15684468Y-15766174D01*
X15684468Y-15766174D02*
X15693991Y-15785222D01*
X15693991Y-15785222D02*
X15693991Y-15804269D01*
X15693991Y-15804269D02*
X15598753Y-15823317D01*
X15770182Y-15880460D02*
X15789230Y-15889984D01*
X15789230Y-15889984D02*
X15827325Y-15889984D01*
X15827325Y-15889984D02*
X15846372Y-15880460D01*
X15846372Y-15880460D02*
X15855896Y-15861412D01*
X15855896Y-15861412D02*
X15855896Y-15851888D01*
X15855896Y-15851888D02*
X15846372Y-15832841D01*
X15846372Y-15832841D02*
X15827325Y-15823317D01*
X15827325Y-15823317D02*
X15798753Y-15823317D01*
X15798753Y-15823317D02*
X15779706Y-15813793D01*
X15779706Y-15813793D02*
X15770182Y-15794746D01*
X15770182Y-15794746D02*
X15770182Y-15785222D01*
X15770182Y-15785222D02*
X15779706Y-15766174D01*
X15779706Y-15766174D02*
X15798753Y-15756650D01*
X15798753Y-15756650D02*
X15827325Y-15756650D01*
X15827325Y-15756650D02*
X15846372Y-15766174D01*
X16093992Y-15813793D02*
X16246373Y-15813793D01*
X16170182Y-15889984D02*
X16170182Y-15737603D01*
X16484468Y-15709031D02*
X16493992Y-15699508D01*
X16493992Y-15699508D02*
X16513039Y-15689984D01*
X16513039Y-15689984D02*
X16560658Y-15689984D01*
X16560658Y-15689984D02*
X16579706Y-15699508D01*
X16579706Y-15699508D02*
X16589230Y-15709031D01*
X16589230Y-15709031D02*
X16598753Y-15728079D01*
X16598753Y-15728079D02*
X16598753Y-15747127D01*
X16598753Y-15747127D02*
X16589230Y-15775698D01*
X16589230Y-15775698D02*
X16474944Y-15889984D01*
X16474944Y-15889984D02*
X16598753Y-15889984D01*
X16827325Y-15880460D02*
X16846373Y-15889984D01*
X16846373Y-15889984D02*
X16884468Y-15889984D01*
X16884468Y-15889984D02*
X16903516Y-15880460D01*
X16903516Y-15880460D02*
X16913039Y-15861412D01*
X16913039Y-15861412D02*
X16913039Y-15851888D01*
X16913039Y-15851888D02*
X16903516Y-15832841D01*
X16903516Y-15832841D02*
X16884468Y-15823317D01*
X16884468Y-15823317D02*
X16855896Y-15823317D01*
X16855896Y-15823317D02*
X16836849Y-15813793D01*
X16836849Y-15813793D02*
X16827325Y-15794746D01*
X16827325Y-15794746D02*
X16827325Y-15785222D01*
X16827325Y-15785222D02*
X16836849Y-15766174D01*
X16836849Y-15766174D02*
X16855896Y-15756650D01*
X16855896Y-15756650D02*
X16884468Y-15756650D01*
X16884468Y-15756650D02*
X16903516Y-15766174D01*
X17027325Y-15889984D02*
X17008277Y-15880460D01*
X17008277Y-15880460D02*
X16998754Y-15861412D01*
X16998754Y-15861412D02*
X16998754Y-15689984D01*
X17132087Y-15889984D02*
X17113039Y-15880460D01*
X17113039Y-15880460D02*
X17103516Y-15870936D01*
X17103516Y-15870936D02*
X17093992Y-15851888D01*
X17093992Y-15851888D02*
X17093992Y-15794746D01*
X17093992Y-15794746D02*
X17103516Y-15775698D01*
X17103516Y-15775698D02*
X17113039Y-15766174D01*
X17113039Y-15766174D02*
X17132087Y-15756650D01*
X17132087Y-15756650D02*
X17160658Y-15756650D01*
X17160658Y-15756650D02*
X17179706Y-15766174D01*
X17179706Y-15766174D02*
X17189230Y-15775698D01*
X17189230Y-15775698D02*
X17198754Y-15794746D01*
X17198754Y-15794746D02*
X17198754Y-15851888D01*
X17198754Y-15851888D02*
X17189230Y-15870936D01*
X17189230Y-15870936D02*
X17179706Y-15880460D01*
X17179706Y-15880460D02*
X17160658Y-15889984D01*
X17160658Y-15889984D02*
X17132087Y-15889984D01*
X17255897Y-15756650D02*
X17332087Y-15756650D01*
X17284468Y-15689984D02*
X17284468Y-15861412D01*
X17284468Y-15861412D02*
X17293992Y-15880460D01*
X17293992Y-15880460D02*
X17313039Y-15889984D01*
X17313039Y-15889984D02*
X17332087Y-15889984D01*
X17389230Y-15880460D02*
X17408277Y-15889984D01*
X17408277Y-15889984D02*
X17446373Y-15889984D01*
X17446373Y-15889984D02*
X17465420Y-15880460D01*
X17465420Y-15880460D02*
X17474944Y-15861412D01*
X17474944Y-15861412D02*
X17474944Y-15851888D01*
X17474944Y-15851888D02*
X17465420Y-15832841D01*
X17465420Y-15832841D02*
X17446373Y-15823317D01*
X17446373Y-15823317D02*
X17417801Y-15823317D01*
X17417801Y-15823317D02*
X17398754Y-15813793D01*
X17398754Y-15813793D02*
X17389230Y-15794746D01*
X17389230Y-15794746D02*
X17389230Y-15785222D01*
X17389230Y-15785222D02*
X17398754Y-15766174D01*
X17398754Y-15766174D02*
X17417801Y-15756650D01*
X17417801Y-15756650D02*
X17446373Y-15756650D01*
X17446373Y-15756650D02*
X17465420Y-15766174D01*
X17541611Y-15966174D02*
X17551135Y-15956650D01*
X17551135Y-15956650D02*
X17570182Y-15928079D01*
X17570182Y-15928079D02*
X17579706Y-15909031D01*
X17579706Y-15909031D02*
X17589230Y-15880460D01*
X17589230Y-15880460D02*
X17598754Y-15832841D01*
X17598754Y-15832841D02*
X17598754Y-15794746D01*
X17598754Y-15794746D02*
X17589230Y-15747127D01*
X17589230Y-15747127D02*
X17579706Y-15718555D01*
X17579706Y-15718555D02*
X17570182Y-15699508D01*
X17570182Y-15699508D02*
X17551135Y-15670936D01*
X17551135Y-15670936D02*
X17541611Y-15661412D01*
M02*
