G04 #@! TF.GenerationSoftware,KiCad,Pcbnew,9.0.7*
G04 #@! TF.CreationDate,2026-03-07T17:54:24+11:00*
G04 #@! TF.ProjectId,ReactorConsole,52656163-746f-4724-936f-6e736f6c652e,rev?*
G04 #@! TF.SameCoordinates,Original*
G04 #@! TF.FileFunction,Copper,L1,Top*
G04 #@! TF.FilePolarity,Positive*
%FSLAX46Y46*%
G04 Gerber Fmt 4.6, Leading zero omitted, Abs format (unit mm)*
G04 Created by KiCad (PCBNEW 9.0.7) date 2026-03-07 17:54:24*
%MOMM*%
%LPD*%
G01*
G04 APERTURE LIST*
G04 Aperture macros list*
%AMRoundRect*
0 Rectangle with rounded corners*
0 $1 Rounding radius*
0 $2 $3 $4 $5 $6 $7 $8 $9 X,Y pos of 4 corners*
0 Add a 4 corners polygon primitive as box body*
4,1,4,$2,$3,$4,$5,$6,$7,$8,$9,$2,$3,0*
0 Add four circle primitives for the rounded corners*
1,1,$1+$1,$2,$3*
1,1,$1+$1,$4,$5*
1,1,$1+$1,$6,$7*
1,1,$1+$1,$8,$9*
0 Add four rect primitives between the rounded corners*
20,1,$1+$1,$2,$3,$4,$5,0*
20,1,$1+$1,$4,$5,$6,$7,0*
20,1,$1+$1,$6,$7,$8,$9,0*
20,1,$1+$1,$8,$9,$2,$3,0*%
%AMFreePoly0*
4,1,37,0.800000,0.796148,0.878414,0.796148,1.032228,0.765552,1.177117,0.705537,1.307515,0.618408,1.418408,0.507515,1.505537,0.377117,1.565552,0.232228,1.596148,0.078414,1.596148,-0.078414,1.565552,-0.232228,1.505537,-0.377117,1.418408,-0.507515,1.307515,-0.618408,1.177117,-0.705537,1.032228,-0.765552,0.878414,-0.796148,0.800000,-0.796148,0.800000,-0.800000,-1.400000,-0.800000,
-1.403843,-0.796157,-1.439018,-0.796157,-1.511114,-0.766294,-1.566294,-0.711114,-1.596157,-0.639018,-1.596157,-0.603843,-1.600000,-0.600000,-1.600000,0.600000,-1.596157,0.603843,-1.596157,0.639018,-1.566294,0.711114,-1.511114,0.766294,-1.439018,0.796157,-1.403843,0.796157,-1.400000,0.800000,0.800000,0.800000,0.800000,0.796148,0.800000,0.796148,$1*%
%AMFreePoly1*
4,1,37,1.403843,0.796157,1.439018,0.796157,1.511114,0.766294,1.566294,0.711114,1.596157,0.639018,1.596157,0.603843,1.600000,0.600000,1.600000,-0.600000,1.596157,-0.603843,1.596157,-0.639018,1.566294,-0.711114,1.511114,-0.766294,1.439018,-0.796157,1.403843,-0.796157,1.400000,-0.800000,-0.800000,-0.800000,-0.800000,-0.796148,-0.878414,-0.796148,-1.032228,-0.765552,-1.177117,-0.705537,
-1.307515,-0.618408,-1.418408,-0.507515,-1.505537,-0.377117,-1.565552,-0.232228,-1.596148,-0.078414,-1.596148,0.078414,-1.565552,0.232228,-1.505537,0.377117,-1.418408,0.507515,-1.307515,0.618408,-1.177117,0.705537,-1.032228,0.765552,-0.878414,0.796148,-0.800000,0.796148,-0.800000,0.800000,1.400000,0.800000,1.403843,0.796157,1.403843,0.796157,$1*%
G04 Aperture macros list end*
G04 #@! TA.AperFunction,ComponentPad*
%ADD10R,0.850000X0.850000*%
G04 #@! TD*
G04 #@! TA.AperFunction,ComponentPad*
%ADD11C,0.850000*%
G04 #@! TD*
G04 #@! TA.AperFunction,SMDPad,CuDef*
%ADD12R,1.000000X1.500000*%
G04 #@! TD*
G04 #@! TA.AperFunction,SMDPad,CuDef*
%ADD13RoundRect,0.225000X-0.250000X0.225000X-0.250000X-0.225000X0.250000X-0.225000X0.250000X0.225000X0*%
G04 #@! TD*
G04 #@! TA.AperFunction,SMDPad,CuDef*
%ADD14RoundRect,0.225000X0.250000X-0.225000X0.250000X0.225000X-0.250000X0.225000X-0.250000X-0.225000X0*%
G04 #@! TD*
G04 #@! TA.AperFunction,SMDPad,CuDef*
%ADD15R,0.900000X1.000000*%
G04 #@! TD*
G04 #@! TA.AperFunction,ComponentPad*
%ADD16R,5.020000X2.020000*%
G04 #@! TD*
G04 #@! TA.AperFunction,ComponentPad*
%ADD17O,5.020000X2.020000*%
G04 #@! TD*
G04 #@! TA.AperFunction,SMDPad,CuDef*
%ADD18RoundRect,0.250000X-0.830000X-0.310000X0.830000X-0.310000X0.830000X0.310000X-0.830000X0.310000X0*%
G04 #@! TD*
G04 #@! TA.AperFunction,SMDPad,CuDef*
%ADD19RoundRect,0.200000X-0.200000X-0.275000X0.200000X-0.275000X0.200000X0.275000X-0.200000X0.275000X0*%
G04 #@! TD*
G04 #@! TA.AperFunction,ComponentPad*
%ADD20RoundRect,0.250000X-0.750000X-0.750000X0.750000X-0.750000X0.750000X0.750000X-0.750000X0.750000X0*%
G04 #@! TD*
G04 #@! TA.AperFunction,ComponentPad*
%ADD21C,2.000000*%
G04 #@! TD*
G04 #@! TA.AperFunction,SMDPad,CuDef*
%ADD22RoundRect,0.250000X0.310000X-0.830000X0.310000X0.830000X-0.310000X0.830000X-0.310000X-0.830000X0*%
G04 #@! TD*
G04 #@! TA.AperFunction,SMDPad,CuDef*
%ADD23O,1.100000X1.800000*%
G04 #@! TD*
G04 #@! TA.AperFunction,SMDPad,CuDef*
%ADD24O,1.050000X1.450000*%
G04 #@! TD*
G04 #@! TA.AperFunction,SMDPad,CuDef*
%ADD25FreePoly0,180.000000*%
G04 #@! TD*
G04 #@! TA.AperFunction,SMDPad,CuDef*
%ADD26RoundRect,0.800000X0.800000X0.000010X-0.800000X0.000010X-0.800000X-0.000010X0.800000X-0.000010X0*%
G04 #@! TD*
G04 #@! TA.AperFunction,SMDPad,CuDef*
%ADD27FreePoly1,180.000000*%
G04 #@! TD*
G04 #@! TA.AperFunction,SMDPad,CuDef*
%ADD28RoundRect,0.200000X0.587400X0.587400X-0.587400X0.587400X-0.587400X-0.587400X0.587400X-0.587400X0*%
G04 #@! TD*
G04 #@! TA.AperFunction,SMDPad,CuDef*
%ADD29C,1.574800*%
G04 #@! TD*
G04 #@! TA.AperFunction,SMDPad,CuDef*
%ADD30RoundRect,0.300000X0.450000X0.450000X-0.450000X0.450000X-0.450000X-0.450000X0.450000X-0.450000X0*%
G04 #@! TD*
G04 #@! TA.AperFunction,ViaPad*
%ADD31C,0.600000*%
G04 #@! TD*
G04 #@! TA.AperFunction,ViaPad*
%ADD32C,2.000000*%
G04 #@! TD*
G04 #@! TA.AperFunction,Conductor*
%ADD33C,0.200000*%
G04 #@! TD*
G04 #@! TA.AperFunction,Conductor*
%ADD34C,1.000000*%
G04 #@! TD*
G04 APERTURE END LIST*
D10*
G04 #@! TO.P,J2,1,Pin_1*
G04 #@! TO.N,/gp1*
X116000000Y-129500000D03*
D11*
G04 #@! TO.P,J2,2,Pin_2*
G04 #@! TO.N,/gp2*
X115000000Y-129500000D03*
G04 #@! TO.P,J2,3,Pin_3*
G04 #@! TO.N,/gp3*
X116000000Y-128500000D03*
G04 #@! TO.P,J2,4,Pin_4*
G04 #@! TO.N,/gp4*
X115000000Y-128500000D03*
G04 #@! TO.P,J2,5,Pin_5*
G04 #@! TO.N,/gp5*
X116000000Y-127500000D03*
G04 #@! TO.P,J2,6,Pin_6*
G04 #@! TO.N,/gp6*
X115000000Y-127500000D03*
G04 #@! TO.P,J2,7,Pin_7*
G04 #@! TO.N,/gp7*
X116000000Y-126500000D03*
G04 #@! TO.P,J2,8,Pin_8*
G04 #@! TO.N,/gp8*
X115000000Y-126500000D03*
G04 #@! TO.P,J2,9,Pin_9*
G04 #@! TO.N,/gp9*
X116000000Y-125500000D03*
G04 #@! TO.P,J2,10,Pin_10*
G04 #@! TO.N,/gp10*
X115000000Y-125500000D03*
G04 #@! TO.P,J2,11,Pin_11*
G04 #@! TO.N,/gp11*
X116000000Y-124500000D03*
G04 #@! TO.P,J2,12,Pin_12*
G04 #@! TO.N,/gp12*
X115000000Y-124500000D03*
G04 #@! TO.P,J2,13,Pin_13*
G04 #@! TO.N,/gp13*
X116000000Y-123500000D03*
G04 #@! TO.P,J2,14,Pin_14*
G04 #@! TO.N,/gp14*
X115000000Y-123500000D03*
G04 #@! TO.P,J2,15,Pin_15*
G04 #@! TO.N,/gp15*
X116000000Y-122500000D03*
G04 #@! TO.P,J2,16,Pin_16*
G04 #@! TO.N,/gp16*
X115000000Y-122500000D03*
G04 #@! TO.P,J2,17,Pin_17*
G04 #@! TO.N,/gp17*
X116000000Y-121500000D03*
G04 #@! TO.P,J2,18,Pin_18*
G04 #@! TO.N,/gp18*
X115000000Y-121500000D03*
G04 #@! TO.P,J2,19,Pin_19*
G04 #@! TO.N,/gp19*
X116000000Y-120500000D03*
G04 #@! TO.P,J2,20,Pin_20*
G04 #@! TO.N,/gp20*
X115000000Y-120500000D03*
G04 #@! TO.P,J2,21,Pin_21*
G04 #@! TO.N,/gp21*
X116000000Y-119500000D03*
G04 #@! TO.P,J2,22,Pin_22*
G04 #@! TO.N,/gp22*
X115000000Y-119500000D03*
G04 #@! TO.P,J2,23,Pin_23*
G04 #@! TO.N,/gp23*
X116000000Y-118500000D03*
G04 #@! TO.P,J2,24,Pin_24*
G04 #@! TO.N,/gp24*
X115000000Y-118500000D03*
G04 #@! TO.P,J2,25,Pin_25*
G04 #@! TO.N,/gp25*
X116000000Y-117500000D03*
G04 #@! TO.P,J2,26,Pin_26*
G04 #@! TO.N,/gp26*
X115000000Y-117500000D03*
G04 #@! TO.P,J2,27,Pin_27*
G04 #@! TO.N,/gp27*
X116000000Y-116500000D03*
G04 #@! TO.P,J2,28,Pin_28*
G04 #@! TO.N,/gp28*
X115000000Y-116500000D03*
G04 #@! TO.P,J2,29,Pin_29*
G04 #@! TO.N,/gp29*
X116000000Y-115500000D03*
G04 #@! TO.P,J2,30,Pin_30*
G04 #@! TO.N,/gp30*
X115000000Y-115500000D03*
G04 #@! TD*
D12*
G04 #@! TO.P,D36,1,VDD*
G04 #@! TO.N,+5V*
X233840000Y-81400000D03*
G04 #@! TO.P,D36,2,DOUT*
G04 #@! TO.N,Net-(D36-DOUT)*
X237040000Y-81400000D03*
G04 #@! TO.P,D36,3,VSS*
G04 #@! TO.N,/LED Matrix/VSS-*
X237040000Y-76500000D03*
G04 #@! TO.P,D36,4,DIN*
G04 #@! TO.N,Net-(D35-DOUT)*
X233840000Y-76500000D03*
G04 #@! TD*
D13*
G04 #@! TO.P,C16,1*
G04 #@! TO.N,+5V*
X240600000Y-118225000D03*
G04 #@! TO.P,C16,2*
G04 #@! TO.N,/LED Matrix/VSS-*
X240600000Y-119775000D03*
G04 #@! TD*
D12*
G04 #@! TO.P,D38,1,VDD*
G04 #@! TO.N,+5V*
X248700000Y-81400000D03*
G04 #@! TO.P,D38,2,DOUT*
G04 #@! TO.N,Net-(D38-DOUT)*
X251900000Y-81400000D03*
G04 #@! TO.P,D38,3,VSS*
G04 #@! TO.N,/LED Matrix/VSS-*
X251900000Y-76500000D03*
G04 #@! TO.P,D38,4,DIN*
G04 #@! TO.N,Net-(D37-DOUT)*
X248700000Y-76500000D03*
G04 #@! TD*
G04 #@! TO.P,D5,1,VDD*
G04 #@! TO.N,+5V*
X195000000Y-89500000D03*
G04 #@! TO.P,D5,2,DOUT*
G04 #@! TO.N,Net-(D5-DOUT)*
X198200000Y-89500000D03*
G04 #@! TO.P,D5,3,VSS*
G04 #@! TO.N,/LED Matrix/VSS-*
X198200000Y-84600000D03*
G04 #@! TO.P,D5,4,DIN*
G04 #@! TO.N,Net-(D4-DOUT)*
X195000000Y-84600000D03*
G04 #@! TD*
G04 #@! TO.P,D148,1,VDD*
G04 #@! TO.N,+5V*
X194560000Y-49900000D03*
G04 #@! TO.P,D148,2,DOUT*
G04 #@! TO.N,Net-(D148-DOUT)*
X197760000Y-49900000D03*
G04 #@! TO.P,D148,3,VSS*
G04 #@! TO.N,/LED Matrix/VSS-*
X197760000Y-45000000D03*
G04 #@! TO.P,D148,4,DIN*
G04 #@! TO.N,/LED Matrix/D1*
X194560000Y-45000000D03*
G04 #@! TD*
D14*
G04 #@! TO.P,C11,1*
G04 #@! TO.N,+5V*
X183260000Y-119875000D03*
G04 #@! TO.P,C11,2*
G04 #@! TO.N,/LED Matrix/VSS-*
X183260000Y-118325000D03*
G04 #@! TD*
D12*
G04 #@! TO.P,D3,1,VDD*
G04 #@! TO.N,+5V*
X178020000Y-89900000D03*
G04 #@! TO.P,D3,2,DOUT*
G04 #@! TO.N,Net-(D3-DOUT)*
X181220000Y-89900000D03*
G04 #@! TO.P,D3,3,VSS*
G04 #@! TO.N,/LED Matrix/VSS-*
X181220000Y-85000000D03*
G04 #@! TO.P,D3,4,DIN*
G04 #@! TO.N,Net-(D2-DOUT)*
X178020000Y-85000000D03*
G04 #@! TD*
G04 #@! TO.P,D114,1,VDD*
G04 #@! TO.N,+5V*
X233540000Y-73400000D03*
G04 #@! TO.P,D114,2,DOUT*
G04 #@! TO.N,Net-(D114-DOUT)*
X236740000Y-73400000D03*
G04 #@! TO.P,D114,3,VSS*
G04 #@! TO.N,/LED Matrix/VSS-*
X236740000Y-68500000D03*
G04 #@! TO.P,D114,4,DIN*
G04 #@! TO.N,Net-(D113-DOUT)*
X233540000Y-68500000D03*
G04 #@! TD*
D13*
G04 #@! TO.P,C22,1*
G04 #@! TO.N,+5V*
X255220000Y-70000000D03*
G04 #@! TO.P,C22,2*
G04 #@! TO.N,/LED Matrix/VSS-*
X255220000Y-71550000D03*
G04 #@! TD*
D12*
G04 #@! TO.P,D25,1,VDD*
G04 #@! TO.N,+5V*
X248520000Y-97450000D03*
G04 #@! TO.P,D25,2,DOUT*
G04 #@! TO.N,Net-(D25-DOUT)*
X251720000Y-97450000D03*
G04 #@! TO.P,D25,3,VSS*
G04 #@! TO.N,/LED Matrix/VSS-*
X251720000Y-92550000D03*
G04 #@! TO.P,D25,4,DIN*
G04 #@! TO.N,Net-(D24-DOUT)*
X248520000Y-92550000D03*
G04 #@! TD*
G04 #@! TO.P,D26,1,VDD*
G04 #@! TO.N,+5V*
X255920000Y-97450000D03*
G04 #@! TO.P,D26,2,DOUT*
G04 #@! TO.N,/LED Matrix/D8*
X259120000Y-97450000D03*
G04 #@! TO.P,D26,3,VSS*
G04 #@! TO.N,/LED Matrix/VSS-*
X259120000Y-92550000D03*
G04 #@! TO.P,D26,4,DIN*
G04 #@! TO.N,Net-(D25-DOUT)*
X255920000Y-92550000D03*
G04 #@! TD*
G04 #@! TO.P,D115,1,VDD*
G04 #@! TO.N,+5V*
X240880000Y-73400000D03*
G04 #@! TO.P,D115,2,DOUT*
G04 #@! TO.N,Net-(D115-DOUT)*
X244080000Y-73400000D03*
G04 #@! TO.P,D115,3,VSS*
G04 #@! TO.N,/LED Matrix/VSS-*
X244080000Y-68500000D03*
G04 #@! TO.P,D115,4,DIN*
G04 #@! TO.N,Net-(D114-DOUT)*
X240880000Y-68500000D03*
G04 #@! TD*
G04 #@! TO.P,D56,1,VDD*
G04 #@! TO.N,+5V*
X186460000Y-113550000D03*
G04 #@! TO.P,D56,2,DOUT*
G04 #@! TO.N,Net-(D56-DOUT)*
X189660000Y-113550000D03*
G04 #@! TO.P,D56,3,VSS*
G04 #@! TO.N,/LED Matrix/VSS-*
X189660000Y-108650000D03*
G04 #@! TO.P,D56,4,DIN*
G04 #@! TO.N,Net-(D55-DOUT)*
X186460000Y-108650000D03*
G04 #@! TD*
D14*
G04 #@! TO.P,C1,1*
G04 #@! TO.N,+5V*
X158500000Y-80050000D03*
G04 #@! TO.P,C1,2*
G04 #@! TO.N,/LED Matrix/VSS-*
X158500000Y-78500000D03*
G04 #@! TD*
D12*
G04 #@! TO.P,D4,1,VDD*
G04 #@! TO.N,+5V*
X186640000Y-89500000D03*
G04 #@! TO.P,D4,2,DOUT*
G04 #@! TO.N,Net-(D4-DOUT)*
X189840000Y-89500000D03*
G04 #@! TO.P,D4,3,VSS*
G04 #@! TO.N,/LED Matrix/VSS-*
X189840000Y-84600000D03*
G04 #@! TO.P,D4,4,DIN*
G04 #@! TO.N,Net-(D3-DOUT)*
X186640000Y-84600000D03*
G04 #@! TD*
G04 #@! TO.P,D139,1,VDD*
G04 #@! TO.N,+5V*
X225760000Y-57400000D03*
G04 #@! TO.P,D139,2,DOUT*
G04 #@! TO.N,Net-(D139-DOUT)*
X228960000Y-57400000D03*
G04 #@! TO.P,D139,3,VSS*
G04 #@! TO.N,/LED Matrix/VSS-*
X228960000Y-52500000D03*
G04 #@! TO.P,D139,4,DIN*
G04 #@! TO.N,Net-(D138-DOUT)*
X225760000Y-52500000D03*
G04 #@! TD*
G04 #@! TO.P,D63,1,VDD*
G04 #@! TO.N,+5V*
X240740000Y-113500000D03*
G04 #@! TO.P,D63,2,DOUT*
G04 #@! TO.N,/LED Matrix/D10*
X243940000Y-113500000D03*
G04 #@! TO.P,D63,3,VSS*
G04 #@! TO.N,/LED Matrix/VSS-*
X243940000Y-108600000D03*
G04 #@! TO.P,D63,4,DIN*
G04 #@! TO.N,Net-(D62-DOUT)*
X240740000Y-108600000D03*
G04 #@! TD*
D15*
G04 #@! TO.P,SW5,1,1*
G04 #@! TO.N,/gp13*
X156450000Y-112400000D03*
X160550000Y-112400000D03*
G04 #@! TO.P,SW5,2,2*
G04 #@! TO.N,GND*
X156450000Y-114000000D03*
X160550000Y-114000000D03*
G04 #@! TD*
D12*
G04 #@! TO.P,D150,1,VDD*
G04 #@! TO.N,+5V*
X210380000Y-49800000D03*
G04 #@! TO.P,D150,2,DOUT*
G04 #@! TO.N,Net-(D150-DOUT)*
X213580000Y-49800000D03*
G04 #@! TO.P,D150,3,VSS*
G04 #@! TO.N,/LED Matrix/VSS-*
X213580000Y-44900000D03*
G04 #@! TO.P,D150,4,DIN*
G04 #@! TO.N,Net-(D149-DOUT)*
X210380000Y-44900000D03*
G04 #@! TD*
G04 #@! TO.P,D42,1,VDD*
G04 #@! TO.N,+5V*
X177860000Y-105900000D03*
G04 #@! TO.P,D42,2,DOUT*
G04 #@! TO.N,Net-(D42-DOUT)*
X181060000Y-105900000D03*
G04 #@! TO.P,D42,3,VSS*
G04 #@! TO.N,/LED Matrix/VSS-*
X181060000Y-101000000D03*
G04 #@! TO.P,D42,4,DIN*
G04 #@! TO.N,Net-(D41-DOUT)*
X177860000Y-101000000D03*
G04 #@! TD*
G04 #@! TO.P,D48,1,VDD*
G04 #@! TO.N,+5V*
X225880000Y-105400000D03*
G04 #@! TO.P,D48,2,DOUT*
G04 #@! TO.N,Net-(D48-DOUT)*
X229080000Y-105400000D03*
G04 #@! TO.P,D48,3,VSS*
G04 #@! TO.N,/LED Matrix/VSS-*
X229080000Y-100500000D03*
G04 #@! TO.P,D48,4,DIN*
G04 #@! TO.N,Net-(D47-DOUT)*
X225880000Y-100500000D03*
G04 #@! TD*
G04 #@! TO.P,D60,1,VDD*
G04 #@! TO.N,+5V*
X218360000Y-113500000D03*
G04 #@! TO.P,D60,2,DOUT*
G04 #@! TO.N,Net-(D60-DOUT)*
X221560000Y-113500000D03*
G04 #@! TO.P,D60,3,VSS*
G04 #@! TO.N,/LED Matrix/VSS-*
X221560000Y-108600000D03*
G04 #@! TO.P,D60,4,DIN*
G04 #@! TO.N,Net-(D59-DOUT)*
X218360000Y-108600000D03*
G04 #@! TD*
G04 #@! TO.P,D99,1,VDD*
G04 #@! TO.N,+5V*
X218840000Y-138000000D03*
G04 #@! TO.P,D99,2,DOUT*
G04 #@! TO.N,/LED Matrix/DOUT*
X222040000Y-138000000D03*
G04 #@! TO.P,D99,3,VSS*
G04 #@! TO.N,/LED Matrix/VSS-*
X222040000Y-133100000D03*
G04 #@! TO.P,D99,4,DIN*
G04 #@! TO.N,Net-(D98-DOUT)*
X218840000Y-133100000D03*
G04 #@! TD*
D14*
G04 #@! TO.P,C9,1*
G04 #@! TO.N,+5V*
X167000000Y-104500000D03*
G04 #@! TO.P,C9,2*
G04 #@! TO.N,/LED Matrix/VSS-*
X167000000Y-102950000D03*
G04 #@! TD*
D15*
G04 #@! TO.P,SW6,1,1*
G04 #@! TO.N,/gp10*
X156500000Y-108400000D03*
X160600000Y-108400000D03*
G04 #@! TO.P,SW6,2,2*
G04 #@! TO.N,GND*
X156500000Y-110000000D03*
X160600000Y-110000000D03*
G04 #@! TD*
D12*
G04 #@! TO.P,D58,1,VDD*
G04 #@! TO.N,+5V*
X202560000Y-113550000D03*
G04 #@! TO.P,D58,2,DOUT*
G04 #@! TO.N,Net-(D58-DOUT)*
X205760000Y-113550000D03*
G04 #@! TO.P,D58,3,VSS*
G04 #@! TO.N,/LED Matrix/VSS-*
X205760000Y-108650000D03*
G04 #@! TO.P,D58,4,DIN*
G04 #@! TO.N,Net-(D57-DOUT)*
X202560000Y-108650000D03*
G04 #@! TD*
G04 #@! TO.P,D71,1,VDD*
G04 #@! TO.N,+5V*
X202600000Y-121550000D03*
G04 #@! TO.P,D71,2,DOUT*
G04 #@! TO.N,Net-(D71-DOUT)*
X205800000Y-121550000D03*
G04 #@! TO.P,D71,3,VSS*
G04 #@! TO.N,/LED Matrix/VSS-*
X205800000Y-116650000D03*
G04 #@! TO.P,D71,4,DIN*
G04 #@! TO.N,Net-(D70-DOUT)*
X202600000Y-116650000D03*
G04 #@! TD*
G04 #@! TO.P,D152,1,VDD*
G04 #@! TO.N,+5V*
X225740000Y-49800000D03*
G04 #@! TO.P,D152,2,DOUT*
G04 #@! TO.N,/LED Matrix/D2*
X228940000Y-49800000D03*
G04 #@! TO.P,D152,3,VSS*
G04 #@! TO.N,/LED Matrix/VSS-*
X228940000Y-44900000D03*
G04 #@! TO.P,D152,4,DIN*
G04 #@! TO.N,Net-(D151-DOUT)*
X225740000Y-44900000D03*
G04 #@! TD*
G04 #@! TO.P,D1,1,VDD*
G04 #@! TO.N,+5V*
X162020000Y-89900000D03*
G04 #@! TO.P,D1,2,DOUT*
G04 #@! TO.N,Net-(D1-DOUT)*
X165220000Y-89900000D03*
G04 #@! TO.P,D1,3,VSS*
G04 #@! TO.N,/LED Matrix/VSS-*
X165220000Y-85000000D03*
G04 #@! TO.P,D1,4,DIN*
G04 #@! TO.N,/LED Matrix/D6*
X162020000Y-85000000D03*
G04 #@! TD*
G04 #@! TO.P,D111,1,VDD*
G04 #@! TO.N,+5V*
X210660000Y-73400000D03*
G04 #@! TO.P,D111,2,DOUT*
G04 #@! TO.N,Net-(D111-DOUT)*
X213860000Y-73400000D03*
G04 #@! TO.P,D111,3,VSS*
G04 #@! TO.N,/LED Matrix/VSS-*
X213860000Y-68500000D03*
G04 #@! TO.P,D111,4,DIN*
G04 #@! TO.N,Net-(D110-DOUT)*
X210660000Y-68500000D03*
G04 #@! TD*
G04 #@! TO.P,D16,1,VDD*
G04 #@! TO.N,+5V*
X178080000Y-97900000D03*
G04 #@! TO.P,D16,2,DOUT*
G04 #@! TO.N,Net-(D16-DOUT)*
X181280000Y-97900000D03*
G04 #@! TO.P,D16,3,VSS*
G04 #@! TO.N,/LED Matrix/VSS-*
X181280000Y-93000000D03*
G04 #@! TO.P,D16,4,DIN*
G04 #@! TO.N,Net-(D15-DOUT)*
X178080000Y-93000000D03*
G04 #@! TD*
G04 #@! TO.P,D123,1,VDD*
G04 #@! TO.N,+5V*
X202240000Y-65500000D03*
G04 #@! TO.P,D123,2,DOUT*
G04 #@! TO.N,Net-(D123-DOUT)*
X205440000Y-65500000D03*
G04 #@! TO.P,D123,3,VSS*
G04 #@! TO.N,/LED Matrix/VSS-*
X205440000Y-60600000D03*
G04 #@! TO.P,D123,4,DIN*
G04 #@! TO.N,Net-(D122-DOUT)*
X202240000Y-60600000D03*
G04 #@! TD*
G04 #@! TO.P,D18,1,VDD*
G04 #@! TO.N,+5V*
X195060000Y-97500000D03*
G04 #@! TO.P,D18,2,DOUT*
G04 #@! TO.N,Net-(D18-DOUT)*
X198260000Y-97500000D03*
G04 #@! TO.P,D18,3,VSS*
G04 #@! TO.N,/LED Matrix/VSS-*
X198260000Y-92600000D03*
G04 #@! TO.P,D18,4,DIN*
G04 #@! TO.N,Net-(D17-DOUT)*
X195060000Y-92600000D03*
G04 #@! TD*
G04 #@! TO.P,D98,1,VDD*
G04 #@! TO.N,+5V*
X211000000Y-138000000D03*
G04 #@! TO.P,D98,2,DOUT*
G04 #@! TO.N,Net-(D98-DOUT)*
X214200000Y-138000000D03*
G04 #@! TO.P,D98,3,VSS*
G04 #@! TO.N,/LED Matrix/VSS-*
X214200000Y-133100000D03*
G04 #@! TO.P,D98,4,DIN*
G04 #@! TO.N,Net-(D97-DOUT)*
X211000000Y-133100000D03*
G04 #@! TD*
G04 #@! TO.P,D70,1,VDD*
G04 #@! TO.N,+5V*
X194860000Y-121550000D03*
G04 #@! TO.P,D70,2,DOUT*
G04 #@! TO.N,Net-(D70-DOUT)*
X198060000Y-121550000D03*
G04 #@! TO.P,D70,3,VSS*
G04 #@! TO.N,/LED Matrix/VSS-*
X198060000Y-116650000D03*
G04 #@! TO.P,D70,4,DIN*
G04 #@! TO.N,Net-(D69-DOUT)*
X194860000Y-116650000D03*
G04 #@! TD*
G04 #@! TO.P,D84,1,VDD*
G04 #@! TO.N,+5V*
X202620000Y-129600000D03*
G04 #@! TO.P,D84,2,DOUT*
G04 #@! TO.N,Net-(D84-DOUT)*
X205820000Y-129600000D03*
G04 #@! TO.P,D84,3,VSS*
G04 #@! TO.N,/LED Matrix/VSS-*
X205820000Y-124700000D03*
G04 #@! TO.P,D84,4,DIN*
G04 #@! TO.N,Net-(D83-DOUT)*
X202620000Y-124700000D03*
G04 #@! TD*
G04 #@! TO.P,D55,1,VDD*
G04 #@! TO.N,+5V*
X177840000Y-113950000D03*
G04 #@! TO.P,D55,2,DOUT*
G04 #@! TO.N,Net-(D55-DOUT)*
X181040000Y-113950000D03*
G04 #@! TO.P,D55,3,VSS*
G04 #@! TO.N,/LED Matrix/VSS-*
X181040000Y-109050000D03*
G04 #@! TO.P,D55,4,DIN*
G04 #@! TO.N,/LED Matrix/D9*
X177840000Y-109050000D03*
G04 #@! TD*
G04 #@! TO.P,D11,1,VDD*
G04 #@! TO.N,+5V*
X241040000Y-89400000D03*
G04 #@! TO.P,D11,2,DOUT*
G04 #@! TO.N,Net-(D11-DOUT)*
X244240000Y-89400000D03*
G04 #@! TO.P,D11,3,VSS*
G04 #@! TO.N,/LED Matrix/VSS-*
X244240000Y-84500000D03*
G04 #@! TO.P,D11,4,DIN*
G04 #@! TO.N,Net-(D10-DOUT)*
X241040000Y-84500000D03*
G04 #@! TD*
G04 #@! TO.P,D19,1,VDD*
G04 #@! TO.N,+5V*
X202800000Y-97500000D03*
G04 #@! TO.P,D19,2,DOUT*
G04 #@! TO.N,Net-(D19-DOUT)*
X206000000Y-97500000D03*
G04 #@! TO.P,D19,3,VSS*
G04 #@! TO.N,/LED Matrix/VSS-*
X206000000Y-92600000D03*
G04 #@! TO.P,D19,4,DIN*
G04 #@! TO.N,Net-(D18-DOUT)*
X202800000Y-92600000D03*
G04 #@! TD*
G04 #@! TO.P,D97,1,VDD*
G04 #@! TO.N,+5V*
X202920000Y-138100000D03*
G04 #@! TO.P,D97,2,DOUT*
G04 #@! TO.N,Net-(D97-DOUT)*
X206120000Y-138100000D03*
G04 #@! TO.P,D97,3,VSS*
G04 #@! TO.N,/LED Matrix/VSS-*
X206120000Y-133200000D03*
G04 #@! TO.P,D97,4,DIN*
G04 #@! TO.N,/LED Matrix/D12*
X202920000Y-133200000D03*
G04 #@! TD*
G04 #@! TO.P,D2,1,VDD*
G04 #@! TO.N,+5V*
X169860000Y-89900000D03*
G04 #@! TO.P,D2,2,DOUT*
G04 #@! TO.N,Net-(D2-DOUT)*
X173060000Y-89900000D03*
G04 #@! TO.P,D2,3,VSS*
G04 #@! TO.N,/LED Matrix/VSS-*
X173060000Y-85000000D03*
G04 #@! TO.P,D2,4,DIN*
G04 #@! TO.N,Net-(D1-DOUT)*
X169860000Y-85000000D03*
G04 #@! TD*
G04 #@! TO.P,D137,1,VDD*
G04 #@! TO.N,+5V*
X210680000Y-57400000D03*
G04 #@! TO.P,D137,2,DOUT*
G04 #@! TO.N,Net-(D137-DOUT)*
X213880000Y-57400000D03*
G04 #@! TO.P,D137,3,VSS*
G04 #@! TO.N,/LED Matrix/VSS-*
X213880000Y-52500000D03*
G04 #@! TO.P,D137,4,DIN*
G04 #@! TO.N,Net-(D136-DOUT)*
X210680000Y-52500000D03*
G04 #@! TD*
G04 #@! TO.P,D62,1,VDD*
G04 #@! TO.N,+5V*
X233400000Y-113500000D03*
G04 #@! TO.P,D62,2,DOUT*
G04 #@! TO.N,Net-(D62-DOUT)*
X236600000Y-113500000D03*
G04 #@! TO.P,D62,3,VSS*
G04 #@! TO.N,/LED Matrix/VSS-*
X236600000Y-108600000D03*
G04 #@! TO.P,D62,4,DIN*
G04 #@! TO.N,Net-(D61-DOUT)*
X233400000Y-108600000D03*
G04 #@! TD*
D13*
G04 #@! TO.P,C20,1*
G04 #@! TO.N,+5V*
X263000000Y-86725000D03*
G04 #@! TO.P,C20,2*
G04 #@! TO.N,/LED Matrix/VSS-*
X263000000Y-88275000D03*
G04 #@! TD*
D12*
G04 #@! TO.P,D43,1,VDD*
G04 #@! TO.N,+5V*
X186480000Y-105500000D03*
G04 #@! TO.P,D43,2,DOUT*
G04 #@! TO.N,Net-(D43-DOUT)*
X189680000Y-105500000D03*
G04 #@! TO.P,D43,3,VSS*
G04 #@! TO.N,/LED Matrix/VSS-*
X189680000Y-100600000D03*
G04 #@! TO.P,D43,4,DIN*
G04 #@! TO.N,Net-(D42-DOUT)*
X186480000Y-100600000D03*
G04 #@! TD*
G04 #@! TO.P,D37,1,VDD*
G04 #@! TO.N,+5V*
X241180000Y-81400000D03*
G04 #@! TO.P,D37,2,DOUT*
G04 #@! TO.N,Net-(D37-DOUT)*
X244380000Y-81400000D03*
G04 #@! TO.P,D37,3,VSS*
G04 #@! TO.N,/LED Matrix/VSS-*
X244380000Y-76500000D03*
G04 #@! TO.P,D37,4,DIN*
G04 #@! TO.N,Net-(D36-DOUT)*
X241180000Y-76500000D03*
G04 #@! TD*
G04 #@! TO.P,D164,1,VDD*
G04 #@! TO.N,+5V*
X218420000Y-41800000D03*
G04 #@! TO.P,D164,2,DOUT*
G04 #@! TO.N,/LED Matrix/D1*
X221620000Y-41800000D03*
G04 #@! TO.P,D164,3,VSS*
G04 #@! TO.N,/LED Matrix/VSS-*
X221620000Y-36900000D03*
G04 #@! TO.P,D164,4,DIN*
G04 #@! TO.N,Net-(D163-DOUT)*
X218420000Y-36900000D03*
G04 #@! TD*
G04 #@! TO.P,D35,1,VDD*
G04 #@! TO.N,+5V*
X226320000Y-81400000D03*
G04 #@! TO.P,D35,2,DOUT*
G04 #@! TO.N,Net-(D35-DOUT)*
X229520000Y-81400000D03*
G04 #@! TO.P,D35,3,VSS*
G04 #@! TO.N,/LED Matrix/VSS-*
X229520000Y-76500000D03*
G04 #@! TO.P,D35,4,DIN*
G04 #@! TO.N,Net-(D34-DOUT)*
X226320000Y-76500000D03*
G04 #@! TD*
G04 #@! TO.P,D109,1,VDD*
G04 #@! TO.N,+5V*
X194840000Y-73500000D03*
G04 #@! TO.P,D109,2,DOUT*
G04 #@! TO.N,Net-(D109-DOUT)*
X198040000Y-73500000D03*
G04 #@! TO.P,D109,3,VSS*
G04 #@! TO.N,/LED Matrix/VSS-*
X198040000Y-68600000D03*
G04 #@! TO.P,D109,4,DIN*
G04 #@! TO.N,Net-(D108-DOUT)*
X194840000Y-68600000D03*
G04 #@! TD*
G04 #@! TO.P,D116,1,VDD*
G04 #@! TO.N,+5V*
X248400000Y-73400000D03*
G04 #@! TO.P,D116,2,DOUT*
G04 #@! TO.N,/LED Matrix/D5*
X251600000Y-73400000D03*
G04 #@! TO.P,D116,3,VSS*
G04 #@! TO.N,/LED Matrix/VSS-*
X251600000Y-68500000D03*
G04 #@! TO.P,D116,4,DIN*
G04 #@! TO.N,Net-(D115-DOUT)*
X248400000Y-68500000D03*
G04 #@! TD*
G04 #@! TO.P,D151,1,VDD*
G04 #@! TO.N,+5V*
X218220000Y-49800000D03*
G04 #@! TO.P,D151,2,DOUT*
G04 #@! TO.N,Net-(D151-DOUT)*
X221420000Y-49800000D03*
G04 #@! TO.P,D151,3,VSS*
G04 #@! TO.N,/LED Matrix/VSS-*
X221420000Y-44900000D03*
G04 #@! TO.P,D151,4,DIN*
G04 #@! TO.N,Net-(D150-DOUT)*
X218220000Y-44900000D03*
G04 #@! TD*
D16*
G04 #@! TO.P,J1,1*
G04 #@! TO.N,+5V*
X157000000Y-121000000D03*
D17*
G04 #@! TO.P,J1,2*
G04 #@! TO.N,/LED Matrix/VSS-*
X157000000Y-126180000D03*
G04 #@! TD*
D12*
G04 #@! TO.P,D69,1,VDD*
G04 #@! TO.N,+5V*
X186500000Y-121550000D03*
G04 #@! TO.P,D69,2,DOUT*
G04 #@! TO.N,Net-(D69-DOUT)*
X189700000Y-121550000D03*
G04 #@! TO.P,D69,3,VSS*
G04 #@! TO.N,/LED Matrix/VSS-*
X189700000Y-116650000D03*
G04 #@! TO.P,D69,4,DIN*
G04 #@! TO.N,/LED Matrix/D10*
X186500000Y-116650000D03*
G04 #@! TD*
D13*
G04 #@! TO.P,C25,1*
G04 #@! TO.N,+5V*
X232700000Y-46725000D03*
G04 #@! TO.P,C25,2*
G04 #@! TO.N,/LED Matrix/VSS-*
X232700000Y-48275000D03*
G04 #@! TD*
D12*
G04 #@! TO.P,D17,1,VDD*
G04 #@! TO.N,+5V*
X186700000Y-97500000D03*
G04 #@! TO.P,D17,2,DOUT*
G04 #@! TO.N,Net-(D17-DOUT)*
X189900000Y-97500000D03*
G04 #@! TO.P,D17,3,VSS*
G04 #@! TO.N,/LED Matrix/VSS-*
X189900000Y-92600000D03*
G04 #@! TO.P,D17,4,DIN*
G04 #@! TO.N,Net-(D16-DOUT)*
X186700000Y-92600000D03*
G04 #@! TD*
G04 #@! TO.P,D127,1,VDD*
G04 #@! TO.N,+5V*
X233200000Y-65400000D03*
G04 #@! TO.P,D127,2,DOUT*
G04 #@! TO.N,Net-(D127-DOUT)*
X236400000Y-65400000D03*
G04 #@! TO.P,D127,3,VSS*
G04 #@! TO.N,/LED Matrix/VSS-*
X236400000Y-60500000D03*
G04 #@! TO.P,D127,4,DIN*
G04 #@! TO.N,Net-(D126-DOUT)*
X233200000Y-60500000D03*
G04 #@! TD*
D13*
G04 #@! TO.P,C14,1*
G04 #@! TO.N,+5V*
X226500000Y-134950000D03*
G04 #@! TO.P,C14,2*
G04 #@! TO.N,/LED Matrix/VSS-*
X226500000Y-136500000D03*
G04 #@! TD*
D12*
G04 #@! TO.P,D34,1,VDD*
G04 #@! TO.N,+5V*
X218800000Y-81400000D03*
G04 #@! TO.P,D34,2,DOUT*
G04 #@! TO.N,Net-(D34-DOUT)*
X222000000Y-81400000D03*
G04 #@! TO.P,D34,3,VSS*
G04 #@! TO.N,/LED Matrix/VSS-*
X222000000Y-76500000D03*
G04 #@! TO.P,D34,4,DIN*
G04 #@! TO.N,Net-(D33-DOUT)*
X218800000Y-76500000D03*
G04 #@! TD*
D13*
G04 #@! TO.P,C19,1*
G04 #@! TO.N,+5V*
X263000000Y-94450000D03*
G04 #@! TO.P,C19,2*
G04 #@! TO.N,/LED Matrix/VSS-*
X263000000Y-96000000D03*
G04 #@! TD*
D12*
G04 #@! TO.P,D13,1,VDD*
G04 #@! TO.N,+5V*
X255680000Y-89400000D03*
G04 #@! TO.P,D13,2,DOUT*
G04 #@! TO.N,/LED Matrix/D7*
X258880000Y-89400000D03*
G04 #@! TO.P,D13,3,VSS*
G04 #@! TO.N,/LED Matrix/VSS-*
X258880000Y-84500000D03*
G04 #@! TO.P,D13,4,DIN*
G04 #@! TO.N,Net-(D12-DOUT)*
X255680000Y-84500000D03*
G04 #@! TD*
G04 #@! TO.P,D14,1,VDD*
G04 #@! TO.N,+5V*
X162080000Y-97900000D03*
G04 #@! TO.P,D14,2,DOUT*
G04 #@! TO.N,Net-(D14-DOUT)*
X165280000Y-97900000D03*
G04 #@! TO.P,D14,3,VSS*
G04 #@! TO.N,/LED Matrix/VSS-*
X165280000Y-93000000D03*
G04 #@! TO.P,D14,4,DIN*
G04 #@! TO.N,/LED Matrix/D7*
X162080000Y-93000000D03*
G04 #@! TD*
G04 #@! TO.P,D121,1,VDD*
G04 #@! TO.N,+5V*
X186440000Y-65500000D03*
G04 #@! TO.P,D121,2,DOUT*
G04 #@! TO.N,Net-(D121-DOUT)*
X189640000Y-65500000D03*
G04 #@! TO.P,D121,3,VSS*
G04 #@! TO.N,/LED Matrix/VSS-*
X189640000Y-60600000D03*
G04 #@! TO.P,D121,4,DIN*
G04 #@! TO.N,Net-(D120-DOUT)*
X186440000Y-60600000D03*
G04 #@! TD*
G04 #@! TO.P,D113,1,VDD*
G04 #@! TO.N,+5V*
X226020000Y-73400000D03*
G04 #@! TO.P,D113,2,DOUT*
G04 #@! TO.N,Net-(D113-DOUT)*
X229220000Y-73400000D03*
G04 #@! TO.P,D113,3,VSS*
G04 #@! TO.N,/LED Matrix/VSS-*
X229220000Y-68500000D03*
G04 #@! TO.P,D113,4,DIN*
G04 #@! TO.N,Net-(D112-DOUT)*
X226020000Y-68500000D03*
G04 #@! TD*
G04 #@! TO.P,D138,1,VDD*
G04 #@! TO.N,+5V*
X218520000Y-57400000D03*
G04 #@! TO.P,D138,2,DOUT*
G04 #@! TO.N,Net-(D138-DOUT)*
X221720000Y-57400000D03*
G04 #@! TO.P,D138,3,VSS*
G04 #@! TO.N,/LED Matrix/VSS-*
X221720000Y-52500000D03*
G04 #@! TO.P,D138,4,DIN*
G04 #@! TO.N,Net-(D137-DOUT)*
X218520000Y-52500000D03*
G04 #@! TD*
D14*
G04 #@! TO.P,C12,1*
G04 #@! TO.N,+5V*
X191500000Y-127875000D03*
G04 #@! TO.P,C12,2*
G04 #@! TO.N,/LED Matrix/VSS-*
X191500000Y-126325000D03*
G04 #@! TD*
D18*
G04 #@! TO.P,SW8,1,A*
G04 #@! TO.N,/gp8*
X169770000Y-128205000D03*
G04 #@! TO.P,SW8,2,B*
G04 #@! TO.N,GND*
X176500000Y-128205000D03*
G04 #@! TD*
D12*
G04 #@! TO.P,D85,1,VDD*
G04 #@! TO.N,+5V*
X210700000Y-129500000D03*
G04 #@! TO.P,D85,2,DOUT*
G04 #@! TO.N,Net-(D85-DOUT)*
X213900000Y-129500000D03*
G04 #@! TO.P,D85,3,VSS*
G04 #@! TO.N,/LED Matrix/VSS-*
X213900000Y-124600000D03*
G04 #@! TO.P,D85,4,DIN*
G04 #@! TO.N,Net-(D84-DOUT)*
X210700000Y-124600000D03*
G04 #@! TD*
G04 #@! TO.P,D39,1,VDD*
G04 #@! TO.N,+5V*
X256100000Y-81400000D03*
G04 #@! TO.P,D39,2,DOUT*
G04 #@! TO.N,/LED Matrix/D6*
X259300000Y-81400000D03*
G04 #@! TO.P,D39,3,VSS*
G04 #@! TO.N,/LED Matrix/VSS-*
X259300000Y-76500000D03*
G04 #@! TO.P,D39,4,DIN*
G04 #@! TO.N,Net-(D38-DOUT)*
X256100000Y-76500000D03*
G04 #@! TD*
D13*
G04 #@! TO.P,C21,1*
G04 #@! TO.N,+5V*
X263000000Y-78225000D03*
G04 #@! TO.P,C21,2*
G04 #@! TO.N,/LED Matrix/VSS-*
X263000000Y-79775000D03*
G04 #@! TD*
D15*
G04 #@! TO.P,SW3,1,1*
G04 #@! TO.N,/gp14*
X150050000Y-112400000D03*
X154150000Y-112400000D03*
G04 #@! TO.P,SW3,2,2*
G04 #@! TO.N,GND*
X150050000Y-114000000D03*
X154150000Y-114000000D03*
G04 #@! TD*
D12*
G04 #@! TO.P,D75,1,VDD*
G04 #@! TO.N,+5V*
X233560000Y-121450000D03*
G04 #@! TO.P,D75,2,DOUT*
G04 #@! TO.N,/LED Matrix/D11*
X236760000Y-121450000D03*
G04 #@! TO.P,D75,3,VSS*
G04 #@! TO.N,/LED Matrix/VSS-*
X236760000Y-116550000D03*
G04 #@! TO.P,D75,4,DIN*
G04 #@! TO.N,Net-(D74-DOUT)*
X233560000Y-116550000D03*
G04 #@! TD*
G04 #@! TO.P,D112,1,VDD*
G04 #@! TO.N,+5V*
X218500000Y-73400000D03*
G04 #@! TO.P,D112,2,DOUT*
G04 #@! TO.N,Net-(D112-DOUT)*
X221700000Y-73400000D03*
G04 #@! TO.P,D112,3,VSS*
G04 #@! TO.N,/LED Matrix/VSS-*
X221700000Y-68500000D03*
G04 #@! TO.P,D112,4,DIN*
G04 #@! TO.N,Net-(D111-DOUT)*
X218500000Y-68500000D03*
G04 #@! TD*
G04 #@! TO.P,D126,1,VDD*
G04 #@! TO.N,+5V*
X225680000Y-65400000D03*
G04 #@! TO.P,D126,2,DOUT*
G04 #@! TO.N,Net-(D126-DOUT)*
X228880000Y-65400000D03*
G04 #@! TO.P,D126,3,VSS*
G04 #@! TO.N,/LED Matrix/VSS-*
X228880000Y-60500000D03*
G04 #@! TO.P,D126,4,DIN*
G04 #@! TO.N,Net-(D125-DOUT)*
X225680000Y-60500000D03*
G04 #@! TD*
G04 #@! TO.P,D31,1,VDD*
G04 #@! TO.N,+5V*
X195180000Y-81500000D03*
G04 #@! TO.P,D31,2,DOUT*
G04 #@! TO.N,Net-(D31-DOUT)*
X198380000Y-81500000D03*
G04 #@! TO.P,D31,3,VSS*
G04 #@! TO.N,/LED Matrix/VSS-*
X198380000Y-76600000D03*
G04 #@! TO.P,D31,4,DIN*
G04 #@! TO.N,Net-(D30-DOUT)*
X195180000Y-76600000D03*
G04 #@! TD*
G04 #@! TO.P,D73,1,VDD*
G04 #@! TO.N,+5V*
X218520000Y-121450000D03*
G04 #@! TO.P,D73,2,DOUT*
G04 #@! TO.N,Net-(D73-DOUT)*
X221720000Y-121450000D03*
G04 #@! TO.P,D73,3,VSS*
G04 #@! TO.N,/LED Matrix/VSS-*
X221720000Y-116550000D03*
G04 #@! TO.P,D73,4,DIN*
G04 #@! TO.N,Net-(D72-DOUT)*
X218520000Y-116550000D03*
G04 #@! TD*
D15*
G04 #@! TO.P,SW2,1,1*
G04 #@! TO.N,/gp12*
X150050000Y-108400000D03*
X154150000Y-108400000D03*
G04 #@! TO.P,SW2,2,2*
G04 #@! TO.N,GND*
X150050000Y-110000000D03*
X154150000Y-110000000D03*
G04 #@! TD*
D12*
G04 #@! TO.P,D51,1,VDD*
G04 #@! TO.N,+5V*
X248260000Y-105400000D03*
G04 #@! TO.P,D51,2,DOUT*
G04 #@! TO.N,/LED Matrix/D9*
X251460000Y-105400000D03*
G04 #@! TO.P,D51,3,VSS*
G04 #@! TO.N,/LED Matrix/VSS-*
X251460000Y-100500000D03*
G04 #@! TO.P,D51,4,DIN*
G04 #@! TO.N,Net-(D50-DOUT)*
X248260000Y-100500000D03*
G04 #@! TD*
D13*
G04 #@! TO.P,C23,1*
G04 #@! TO.N,+5V*
X247320000Y-62000000D03*
G04 #@! TO.P,C23,2*
G04 #@! TO.N,/LED Matrix/VSS-*
X247320000Y-63550000D03*
G04 #@! TD*
G04 #@! TO.P,C17,1*
G04 #@! TO.N,+5V*
X248320000Y-110450000D03*
G04 #@! TO.P,C17,2*
G04 #@! TO.N,/LED Matrix/VSS-*
X248320000Y-112000000D03*
G04 #@! TD*
D12*
G04 #@! TO.P,D87,1,VDD*
G04 #@! TO.N,+5V*
X226060000Y-129500000D03*
G04 #@! TO.P,D87,2,DOUT*
G04 #@! TO.N,/LED Matrix/D12*
X229260000Y-129500000D03*
G04 #@! TO.P,D87,3,VSS*
G04 #@! TO.N,/LED Matrix/VSS-*
X229260000Y-124600000D03*
G04 #@! TO.P,D87,4,DIN*
G04 #@! TO.N,Net-(D86-DOUT)*
X226060000Y-124600000D03*
G04 #@! TD*
G04 #@! TO.P,D44,1,VDD*
G04 #@! TO.N,+5V*
X194840000Y-105500000D03*
G04 #@! TO.P,D44,2,DOUT*
G04 #@! TO.N,Net-(D44-DOUT)*
X198040000Y-105500000D03*
G04 #@! TO.P,D44,3,VSS*
G04 #@! TO.N,/LED Matrix/VSS-*
X198040000Y-100600000D03*
G04 #@! TO.P,D44,4,DIN*
G04 #@! TO.N,Net-(D43-DOUT)*
X194840000Y-100600000D03*
G04 #@! TD*
G04 #@! TO.P,D106,1,VDD*
G04 #@! TO.N,+5V*
X169780000Y-73900000D03*
G04 #@! TO.P,D106,2,DOUT*
G04 #@! TO.N,Net-(D106-DOUT)*
X172980000Y-73900000D03*
G04 #@! TO.P,D106,3,VSS*
G04 #@! TO.N,/LED Matrix/VSS-*
X172980000Y-69000000D03*
G04 #@! TO.P,D106,4,DIN*
G04 #@! TO.N,/LED Matrix/D4*
X169780000Y-69000000D03*
G04 #@! TD*
G04 #@! TO.P,D21,1,VDD*
G04 #@! TO.N,+5V*
X218720000Y-97400000D03*
G04 #@! TO.P,D21,2,DOUT*
G04 #@! TO.N,Net-(D21-DOUT)*
X221920000Y-97400000D03*
G04 #@! TO.P,D21,3,VSS*
G04 #@! TO.N,/LED Matrix/VSS-*
X221920000Y-92500000D03*
G04 #@! TO.P,D21,4,DIN*
G04 #@! TO.N,Net-(D20-DOUT)*
X218720000Y-92500000D03*
G04 #@! TD*
G04 #@! TO.P,D29,1,VDD*
G04 #@! TO.N,+5V*
X178200000Y-81900000D03*
G04 #@! TO.P,D29,2,DOUT*
G04 #@! TO.N,Net-(D29-DOUT)*
X181400000Y-81900000D03*
G04 #@! TO.P,D29,3,VSS*
G04 #@! TO.N,/LED Matrix/VSS-*
X181400000Y-77000000D03*
G04 #@! TO.P,D29,4,DIN*
G04 #@! TO.N,Net-(D28-DOUT)*
X178200000Y-77000000D03*
G04 #@! TD*
D19*
G04 #@! TO.P,R1,1*
G04 #@! TO.N,/gp16*
X191350000Y-39100000D03*
G04 #@! TO.P,R1,2*
G04 #@! TO.N,/LED Matrix/DIN*
X193000000Y-39100000D03*
G04 #@! TD*
D12*
G04 #@! TO.P,D72,1,VDD*
G04 #@! TO.N,+5V*
X210680000Y-121450000D03*
G04 #@! TO.P,D72,2,DOUT*
G04 #@! TO.N,Net-(D72-DOUT)*
X213880000Y-121450000D03*
G04 #@! TO.P,D72,3,VSS*
G04 #@! TO.N,/LED Matrix/VSS-*
X213880000Y-116550000D03*
G04 #@! TO.P,D72,4,DIN*
G04 #@! TO.N,Net-(D71-DOUT)*
X210680000Y-116550000D03*
G04 #@! TD*
G04 #@! TO.P,D163,1,VDD*
G04 #@! TO.N,+5V*
X210580000Y-41800000D03*
G04 #@! TO.P,D163,2,DOUT*
G04 #@! TO.N,Net-(D163-DOUT)*
X213780000Y-41800000D03*
G04 #@! TO.P,D163,3,VSS*
G04 #@! TO.N,/LED Matrix/VSS-*
X213780000Y-36900000D03*
G04 #@! TO.P,D163,4,DIN*
G04 #@! TO.N,Net-(D162-DOUT)*
X210580000Y-36900000D03*
G04 #@! TD*
G04 #@! TO.P,D107,1,VDD*
G04 #@! TO.N,+5V*
X177940000Y-73900000D03*
G04 #@! TO.P,D107,2,DOUT*
G04 #@! TO.N,Net-(D107-DOUT)*
X181140000Y-73900000D03*
G04 #@! TO.P,D107,3,VSS*
G04 #@! TO.N,/LED Matrix/VSS-*
X181140000Y-69000000D03*
G04 #@! TO.P,D107,4,DIN*
G04 #@! TO.N,Net-(D106-DOUT)*
X177940000Y-69000000D03*
G04 #@! TD*
D20*
G04 #@! TO.P,C27,1*
G04 #@! TO.N,+5V*
X159000000Y-53500000D03*
D21*
G04 #@! TO.P,C27,2*
G04 #@! TO.N,/LED Matrix/VSS-*
X164000000Y-53500000D03*
G04 #@! TD*
D12*
G04 #@! TO.P,D86,1,VDD*
G04 #@! TO.N,+5V*
X218540000Y-129500000D03*
G04 #@! TO.P,D86,2,DOUT*
G04 #@! TO.N,Net-(D86-DOUT)*
X221740000Y-129500000D03*
G04 #@! TO.P,D86,3,VSS*
G04 #@! TO.N,/LED Matrix/VSS-*
X221740000Y-124600000D03*
G04 #@! TO.P,D86,4,DIN*
G04 #@! TO.N,Net-(D85-DOUT)*
X218540000Y-124600000D03*
G04 #@! TD*
G04 #@! TO.P,D7,1,VDD*
G04 #@! TO.N,+5V*
X210820000Y-89400000D03*
G04 #@! TO.P,D7,2,DOUT*
G04 #@! TO.N,Net-(D7-DOUT)*
X214020000Y-89400000D03*
G04 #@! TO.P,D7,3,VSS*
G04 #@! TO.N,/LED Matrix/VSS-*
X214020000Y-84500000D03*
G04 #@! TO.P,D7,4,DIN*
G04 #@! TO.N,Net-(D6-DOUT)*
X210820000Y-84500000D03*
G04 #@! TD*
D14*
G04 #@! TO.P,C10,1*
G04 #@! TO.N,+5V*
X174260000Y-112275000D03*
G04 #@! TO.P,C10,2*
G04 #@! TO.N,/LED Matrix/VSS-*
X174260000Y-110725000D03*
G04 #@! TD*
G04 #@! TO.P,C2,1*
G04 #@! TO.N,+5V*
X167000000Y-71775000D03*
G04 #@! TO.P,C2,2*
G04 #@! TO.N,/LED Matrix/VSS-*
X167000000Y-70225000D03*
G04 #@! TD*
D12*
G04 #@! TO.P,D22,1,VDD*
G04 #@! TO.N,+5V*
X226240000Y-97400000D03*
G04 #@! TO.P,D22,2,DOUT*
G04 #@! TO.N,Net-(D22-DOUT)*
X229440000Y-97400000D03*
G04 #@! TO.P,D22,3,VSS*
G04 #@! TO.N,/LED Matrix/VSS-*
X229440000Y-92500000D03*
G04 #@! TO.P,D22,4,DIN*
G04 #@! TO.N,Net-(D21-DOUT)*
X226240000Y-92500000D03*
G04 #@! TD*
G04 #@! TO.P,D140,1,VDD*
G04 #@! TO.N,+5V*
X233280000Y-57400000D03*
G04 #@! TO.P,D140,2,DOUT*
G04 #@! TO.N,/LED Matrix/D3*
X236480000Y-57400000D03*
G04 #@! TO.P,D140,3,VSS*
G04 #@! TO.N,/LED Matrix/VSS-*
X236480000Y-52500000D03*
G04 #@! TO.P,D140,4,DIN*
G04 #@! TO.N,Net-(D139-DOUT)*
X233280000Y-52500000D03*
G04 #@! TD*
G04 #@! TO.P,D125,1,VDD*
G04 #@! TO.N,+5V*
X218160000Y-65400000D03*
G04 #@! TO.P,D125,2,DOUT*
G04 #@! TO.N,Net-(D125-DOUT)*
X221360000Y-65400000D03*
G04 #@! TO.P,D125,3,VSS*
G04 #@! TO.N,/LED Matrix/VSS-*
X221360000Y-60500000D03*
G04 #@! TO.P,D125,4,DIN*
G04 #@! TO.N,Net-(D124-DOUT)*
X218160000Y-60500000D03*
G04 #@! TD*
G04 #@! TO.P,D23,1,VDD*
G04 #@! TO.N,+5V*
X233660000Y-97450000D03*
G04 #@! TO.P,D23,2,DOUT*
G04 #@! TO.N,Net-(D23-DOUT)*
X236860000Y-97450000D03*
G04 #@! TO.P,D23,3,VSS*
G04 #@! TO.N,/LED Matrix/VSS-*
X236860000Y-92550000D03*
G04 #@! TO.P,D23,4,DIN*
G04 #@! TO.N,Net-(D22-DOUT)*
X233660000Y-92550000D03*
G04 #@! TD*
D14*
G04 #@! TO.P,C13,1*
G04 #@! TO.N,+5V*
X199420000Y-136375000D03*
G04 #@! TO.P,C13,2*
G04 #@! TO.N,/LED Matrix/VSS-*
X199420000Y-134825000D03*
G04 #@! TD*
D12*
G04 #@! TO.P,D27,1,VDD*
G04 #@! TO.N,+5V*
X162200000Y-81900000D03*
G04 #@! TO.P,D27,2,DOUT*
G04 #@! TO.N,Net-(D27-DOUT)*
X165400000Y-81900000D03*
G04 #@! TO.P,D27,3,VSS*
G04 #@! TO.N,/LED Matrix/VSS-*
X165400000Y-77000000D03*
G04 #@! TO.P,D27,4,DIN*
G04 #@! TO.N,/LED Matrix/D5*
X162200000Y-77000000D03*
G04 #@! TD*
G04 #@! TO.P,D108,1,VDD*
G04 #@! TO.N,+5V*
X186560000Y-73500000D03*
G04 #@! TO.P,D108,2,DOUT*
G04 #@! TO.N,Net-(D108-DOUT)*
X189760000Y-73500000D03*
G04 #@! TO.P,D108,3,VSS*
G04 #@! TO.N,/LED Matrix/VSS-*
X189760000Y-68600000D03*
G04 #@! TO.P,D108,4,DIN*
G04 #@! TO.N,Net-(D107-DOUT)*
X186560000Y-68600000D03*
G04 #@! TD*
G04 #@! TO.P,D59,1,VDD*
G04 #@! TO.N,+5V*
X210640000Y-113450000D03*
G04 #@! TO.P,D59,2,DOUT*
G04 #@! TO.N,Net-(D59-DOUT)*
X213840000Y-113450000D03*
G04 #@! TO.P,D59,3,VSS*
G04 #@! TO.N,/LED Matrix/VSS-*
X213840000Y-108550000D03*
G04 #@! TO.P,D59,4,DIN*
G04 #@! TO.N,Net-(D58-DOUT)*
X210640000Y-108550000D03*
G04 #@! TD*
G04 #@! TO.P,D149,1,VDD*
G04 #@! TO.N,+5V*
X202300000Y-49900000D03*
G04 #@! TO.P,D149,2,DOUT*
G04 #@! TO.N,Net-(D149-DOUT)*
X205500000Y-49900000D03*
G04 #@! TO.P,D149,3,VSS*
G04 #@! TO.N,/LED Matrix/VSS-*
X205500000Y-45000000D03*
G04 #@! TO.P,D149,4,DIN*
G04 #@! TO.N,Net-(D148-DOUT)*
X202300000Y-45000000D03*
G04 #@! TD*
D14*
G04 #@! TO.P,C5,1*
G04 #@! TO.N,+5V*
X191000000Y-48375000D03*
G04 #@! TO.P,C5,2*
G04 #@! TO.N,/LED Matrix/VSS-*
X191000000Y-46825000D03*
G04 #@! TD*
D18*
G04 #@! TO.P,SW9,1,A*
G04 #@! TO.N,/gp9*
X169770000Y-134000000D03*
G04 #@! TO.P,SW9,2,B*
G04 #@! TO.N,GND*
X176500000Y-134000000D03*
G04 #@! TD*
D12*
G04 #@! TO.P,D32,1,VDD*
G04 #@! TO.N,+5V*
X202920000Y-81500000D03*
G04 #@! TO.P,D32,2,DOUT*
G04 #@! TO.N,Net-(D32-DOUT)*
X206120000Y-81500000D03*
G04 #@! TO.P,D32,3,VSS*
G04 #@! TO.N,/LED Matrix/VSS-*
X206120000Y-76600000D03*
G04 #@! TO.P,D32,4,DIN*
G04 #@! TO.N,Net-(D31-DOUT)*
X202920000Y-76600000D03*
G04 #@! TD*
G04 #@! TO.P,D124,1,VDD*
G04 #@! TO.N,+5V*
X210300000Y-65500000D03*
G04 #@! TO.P,D124,2,DOUT*
G04 #@! TO.N,Net-(D124-DOUT)*
X213500000Y-65500000D03*
G04 #@! TO.P,D124,3,VSS*
G04 #@! TO.N,/LED Matrix/VSS-*
X213500000Y-60600000D03*
G04 #@! TO.P,D124,4,DIN*
G04 #@! TO.N,Net-(D123-DOUT)*
X210300000Y-60600000D03*
G04 #@! TD*
D13*
G04 #@! TO.P,C18,1*
G04 #@! TO.N,+5V*
X255220000Y-102225000D03*
G04 #@! TO.P,C18,2*
G04 #@! TO.N,/LED Matrix/VSS-*
X255220000Y-103775000D03*
G04 #@! TD*
D12*
G04 #@! TO.P,D61,1,VDD*
G04 #@! TO.N,+5V*
X225880000Y-113500000D03*
G04 #@! TO.P,D61,2,DOUT*
G04 #@! TO.N,Net-(D61-DOUT)*
X229080000Y-113500000D03*
G04 #@! TO.P,D61,3,VSS*
G04 #@! TO.N,/LED Matrix/VSS-*
X229080000Y-108600000D03*
G04 #@! TO.P,D61,4,DIN*
G04 #@! TO.N,Net-(D60-DOUT)*
X225880000Y-108600000D03*
G04 #@! TD*
D14*
G04 #@! TO.P,C3,1*
G04 #@! TO.N,+5V*
X174260000Y-64550000D03*
G04 #@! TO.P,C3,2*
G04 #@! TO.N,/LED Matrix/VSS-*
X174260000Y-63000000D03*
G04 #@! TD*
D12*
G04 #@! TO.P,D128,1,VDD*
G04 #@! TO.N,+5V*
X240540000Y-65400000D03*
G04 #@! TO.P,D128,2,DOUT*
G04 #@! TO.N,/LED Matrix/D4*
X243740000Y-65400000D03*
G04 #@! TO.P,D128,3,VSS*
G04 #@! TO.N,/LED Matrix/VSS-*
X243740000Y-60500000D03*
G04 #@! TO.P,D128,4,DIN*
G04 #@! TO.N,Net-(D127-DOUT)*
X240540000Y-60500000D03*
G04 #@! TD*
G04 #@! TO.P,D33,1,VDD*
G04 #@! TO.N,+5V*
X211000000Y-81400000D03*
G04 #@! TO.P,D33,2,DOUT*
G04 #@! TO.N,Net-(D33-DOUT)*
X214200000Y-81400000D03*
G04 #@! TO.P,D33,3,VSS*
G04 #@! TO.N,/LED Matrix/VSS-*
X214200000Y-76500000D03*
G04 #@! TO.P,D33,4,DIN*
G04 #@! TO.N,Net-(D32-DOUT)*
X211000000Y-76500000D03*
G04 #@! TD*
G04 #@! TO.P,D8,1,VDD*
G04 #@! TO.N,+5V*
X218660000Y-89400000D03*
G04 #@! TO.P,D8,2,DOUT*
G04 #@! TO.N,Net-(D8-DOUT)*
X221860000Y-89400000D03*
G04 #@! TO.P,D8,3,VSS*
G04 #@! TO.N,/LED Matrix/VSS-*
X221860000Y-84500000D03*
G04 #@! TO.P,D8,4,DIN*
G04 #@! TO.N,Net-(D7-DOUT)*
X218660000Y-84500000D03*
G04 #@! TD*
G04 #@! TO.P,D9,1,VDD*
G04 #@! TO.N,+5V*
X226180000Y-89400000D03*
G04 #@! TO.P,D9,2,DOUT*
G04 #@! TO.N,Net-(D10-DIN)*
X229380000Y-89400000D03*
G04 #@! TO.P,D9,3,VSS*
G04 #@! TO.N,/LED Matrix/VSS-*
X229380000Y-84500000D03*
G04 #@! TO.P,D9,4,DIN*
G04 #@! TO.N,Net-(D8-DOUT)*
X226180000Y-84500000D03*
G04 #@! TD*
G04 #@! TO.P,D122,1,VDD*
G04 #@! TO.N,+5V*
X194800000Y-65500000D03*
G04 #@! TO.P,D122,2,DOUT*
G04 #@! TO.N,Net-(D122-DOUT)*
X198000000Y-65500000D03*
G04 #@! TO.P,D122,3,VSS*
G04 #@! TO.N,/LED Matrix/VSS-*
X198000000Y-60600000D03*
G04 #@! TO.P,D122,4,DIN*
G04 #@! TO.N,Net-(D121-DOUT)*
X194800000Y-60600000D03*
G04 #@! TD*
G04 #@! TO.P,D12,1,VDD*
G04 #@! TO.N,+5V*
X248280000Y-89400000D03*
G04 #@! TO.P,D12,2,DOUT*
G04 #@! TO.N,Net-(D12-DOUT)*
X251480000Y-89400000D03*
G04 #@! TO.P,D12,3,VSS*
G04 #@! TO.N,/LED Matrix/VSS-*
X251480000Y-84500000D03*
G04 #@! TO.P,D12,4,DIN*
G04 #@! TO.N,Net-(D11-DOUT)*
X248280000Y-84500000D03*
G04 #@! TD*
D14*
G04 #@! TO.P,C4,1*
G04 #@! TO.N,+5V*
X182760000Y-55650000D03*
G04 #@! TO.P,C4,2*
G04 #@! TO.N,/LED Matrix/VSS-*
X182760000Y-54100000D03*
G04 #@! TD*
D12*
G04 #@! TO.P,D41,1,VDD*
G04 #@! TO.N,+5V*
X169700000Y-105900000D03*
G04 #@! TO.P,D41,2,DOUT*
G04 #@! TO.N,Net-(D41-DOUT)*
X172900000Y-105900000D03*
G04 #@! TO.P,D41,3,VSS*
G04 #@! TO.N,/LED Matrix/VSS-*
X172900000Y-101000000D03*
G04 #@! TO.P,D41,4,DIN*
G04 #@! TO.N,/LED Matrix/D8*
X169700000Y-101000000D03*
G04 #@! TD*
G04 #@! TO.P,D83,1,VDD*
G04 #@! TO.N,+5V*
X194880000Y-129600000D03*
G04 #@! TO.P,D83,2,DOUT*
G04 #@! TO.N,Net-(D83-DOUT)*
X198080000Y-129600000D03*
G04 #@! TO.P,D83,3,VSS*
G04 #@! TO.N,/LED Matrix/VSS-*
X198080000Y-124700000D03*
G04 #@! TO.P,D83,4,DIN*
G04 #@! TO.N,/LED Matrix/D11*
X194880000Y-124700000D03*
G04 #@! TD*
G04 #@! TO.P,D15,1,VDD*
G04 #@! TO.N,+5V*
X169920000Y-97900000D03*
G04 #@! TO.P,D15,2,DOUT*
G04 #@! TO.N,Net-(D15-DOUT)*
X173120000Y-97900000D03*
G04 #@! TO.P,D15,3,VSS*
G04 #@! TO.N,/LED Matrix/VSS-*
X173120000Y-93000000D03*
G04 #@! TO.P,D15,4,DIN*
G04 #@! TO.N,Net-(D14-DOUT)*
X169920000Y-93000000D03*
G04 #@! TD*
D13*
G04 #@! TO.P,C24,1*
G04 #@! TO.N,+5V*
X240100000Y-54500000D03*
G04 #@! TO.P,C24,2*
G04 #@! TO.N,/LED Matrix/VSS-*
X240100000Y-56050000D03*
G04 #@! TD*
D12*
G04 #@! TO.P,D57,1,VDD*
G04 #@! TO.N,+5V*
X194820000Y-113550000D03*
G04 #@! TO.P,D57,2,DOUT*
G04 #@! TO.N,Net-(D57-DOUT)*
X198020000Y-113550000D03*
G04 #@! TO.P,D57,3,VSS*
G04 #@! TO.N,/LED Matrix/VSS-*
X198020000Y-108650000D03*
G04 #@! TO.P,D57,4,DIN*
G04 #@! TO.N,Net-(D56-DOUT)*
X194820000Y-108650000D03*
G04 #@! TD*
G04 #@! TO.P,D30,1,VDD*
G04 #@! TO.N,+5V*
X186820000Y-81500000D03*
G04 #@! TO.P,D30,2,DOUT*
G04 #@! TO.N,Net-(D30-DOUT)*
X190020000Y-81500000D03*
G04 #@! TO.P,D30,3,VSS*
G04 #@! TO.N,/LED Matrix/VSS-*
X190020000Y-76600000D03*
G04 #@! TO.P,D30,4,DIN*
G04 #@! TO.N,Net-(D29-DOUT)*
X186820000Y-76600000D03*
G04 #@! TD*
G04 #@! TO.P,D28,1,VDD*
G04 #@! TO.N,+5V*
X170040000Y-81900000D03*
G04 #@! TO.P,D28,2,DOUT*
G04 #@! TO.N,Net-(D28-DOUT)*
X173240000Y-81900000D03*
G04 #@! TO.P,D28,3,VSS*
G04 #@! TO.N,/LED Matrix/VSS-*
X173240000Y-77000000D03*
G04 #@! TO.P,D28,4,DIN*
G04 #@! TO.N,Net-(D27-DOUT)*
X170040000Y-77000000D03*
G04 #@! TD*
D13*
G04 #@! TO.P,C15,1*
G04 #@! TO.N,+5V*
X233200000Y-126225000D03*
G04 #@! TO.P,C15,2*
G04 #@! TO.N,/LED Matrix/VSS-*
X233200000Y-127775000D03*
G04 #@! TD*
D14*
G04 #@! TO.P,C6,1*
G04 #@! TO.N,+5V*
X199120000Y-40100000D03*
G04 #@! TO.P,C6,2*
G04 #@! TO.N,/LED Matrix/VSS-*
X199120000Y-38550000D03*
G04 #@! TD*
D12*
G04 #@! TO.P,D20,1,VDD*
G04 #@! TO.N,+5V*
X210880000Y-97400000D03*
G04 #@! TO.P,D20,2,DOUT*
G04 #@! TO.N,Net-(D20-DOUT)*
X214080000Y-97400000D03*
G04 #@! TO.P,D20,3,VSS*
G04 #@! TO.N,/LED Matrix/VSS-*
X214080000Y-92500000D03*
G04 #@! TO.P,D20,4,DIN*
G04 #@! TO.N,Net-(D19-DOUT)*
X210880000Y-92500000D03*
G04 #@! TD*
G04 #@! TO.P,D10,1,VDD*
G04 #@! TO.N,+5V*
X233700000Y-89400000D03*
G04 #@! TO.P,D10,2,DOUT*
G04 #@! TO.N,Net-(D10-DOUT)*
X236900000Y-89400000D03*
G04 #@! TO.P,D10,3,VSS*
G04 #@! TO.N,/LED Matrix/VSS-*
X236900000Y-84500000D03*
G04 #@! TO.P,D10,4,DIN*
G04 #@! TO.N,Net-(D10-DIN)*
X233700000Y-84500000D03*
G04 #@! TD*
D13*
G04 #@! TO.P,C26,1*
G04 #@! TO.N,+5V*
X226200000Y-38450000D03*
G04 #@! TO.P,C26,2*
G04 #@! TO.N,/LED Matrix/VSS-*
X226200000Y-40000000D03*
G04 #@! TD*
D12*
G04 #@! TO.P,D74,1,VDD*
G04 #@! TO.N,+5V*
X226040000Y-121450000D03*
G04 #@! TO.P,D74,2,DOUT*
G04 #@! TO.N,Net-(D74-DOUT)*
X229240000Y-121450000D03*
G04 #@! TO.P,D74,3,VSS*
G04 #@! TO.N,/LED Matrix/VSS-*
X229240000Y-116550000D03*
G04 #@! TO.P,D74,4,DIN*
G04 #@! TO.N,Net-(D73-DOUT)*
X226040000Y-116550000D03*
G04 #@! TD*
G04 #@! TO.P,D120,1,VDD*
G04 #@! TO.N,+5V*
X177820000Y-65900000D03*
G04 #@! TO.P,D120,2,DOUT*
G04 #@! TO.N,Net-(D120-DOUT)*
X181020000Y-65900000D03*
G04 #@! TO.P,D120,3,VSS*
G04 #@! TO.N,/LED Matrix/VSS-*
X181020000Y-61000000D03*
G04 #@! TO.P,D120,4,DIN*
G04 #@! TO.N,/LED Matrix/D3*
X177820000Y-61000000D03*
G04 #@! TD*
D15*
G04 #@! TO.P,SW4,1,1*
G04 #@! TO.N,/gp11*
X156450000Y-104200000D03*
X160550000Y-104200000D03*
G04 #@! TO.P,SW4,2,2*
G04 #@! TO.N,GND*
X156450000Y-105800000D03*
X160550000Y-105800000D03*
G04 #@! TD*
D12*
G04 #@! TO.P,D6,1,VDD*
G04 #@! TO.N,+5V*
X202740000Y-89500000D03*
G04 #@! TO.P,D6,2,DOUT*
G04 #@! TO.N,Net-(D6-DOUT)*
X205940000Y-89500000D03*
G04 #@! TO.P,D6,3,VSS*
G04 #@! TO.N,/LED Matrix/VSS-*
X205940000Y-84600000D03*
G04 #@! TO.P,D6,4,DIN*
G04 #@! TO.N,Net-(D5-DOUT)*
X202740000Y-84600000D03*
G04 #@! TD*
D22*
G04 #@! TO.P,SW7,1,A*
G04 #@! TO.N,/gp7*
X182000000Y-134275000D03*
G04 #@! TO.P,SW7,2,B*
G04 #@! TO.N,GND*
X182000000Y-127545000D03*
G04 #@! TD*
D12*
G04 #@! TO.P,D47,1,VDD*
G04 #@! TO.N,+5V*
X218360000Y-105400000D03*
G04 #@! TO.P,D47,2,DOUT*
G04 #@! TO.N,Net-(D47-DOUT)*
X221560000Y-105400000D03*
G04 #@! TO.P,D47,3,VSS*
G04 #@! TO.N,/LED Matrix/VSS-*
X221560000Y-100500000D03*
G04 #@! TO.P,D47,4,DIN*
G04 #@! TO.N,Net-(D46-DOUT)*
X218360000Y-100500000D03*
G04 #@! TD*
G04 #@! TO.P,D45,1,VDD*
G04 #@! TO.N,+5V*
X202580000Y-105500000D03*
G04 #@! TO.P,D45,2,DOUT*
G04 #@! TO.N,Net-(D45-DOUT)*
X205780000Y-105500000D03*
G04 #@! TO.P,D45,3,VSS*
G04 #@! TO.N,/LED Matrix/VSS-*
X205780000Y-100600000D03*
G04 #@! TO.P,D45,4,DIN*
G04 #@! TO.N,Net-(D44-DOUT)*
X202580000Y-100600000D03*
G04 #@! TD*
G04 #@! TO.P,D24,1,VDD*
G04 #@! TO.N,+5V*
X241000000Y-97450000D03*
G04 #@! TO.P,D24,2,DOUT*
G04 #@! TO.N,Net-(D24-DOUT)*
X244200000Y-97450000D03*
G04 #@! TO.P,D24,3,VSS*
G04 #@! TO.N,/LED Matrix/VSS-*
X244200000Y-92550000D03*
G04 #@! TO.P,D24,4,DIN*
G04 #@! TO.N,Net-(D23-DOUT)*
X241000000Y-92550000D03*
G04 #@! TD*
G04 #@! TO.P,D49,1,VDD*
G04 #@! TO.N,+5V*
X233400000Y-105400000D03*
G04 #@! TO.P,D49,2,DOUT*
G04 #@! TO.N,Net-(D49-DOUT)*
X236600000Y-105400000D03*
G04 #@! TO.P,D49,3,VSS*
G04 #@! TO.N,/LED Matrix/VSS-*
X236600000Y-100500000D03*
G04 #@! TO.P,D49,4,DIN*
G04 #@! TO.N,Net-(D48-DOUT)*
X233400000Y-100500000D03*
G04 #@! TD*
G04 #@! TO.P,D135,1,VDD*
G04 #@! TO.N,+5V*
X194860000Y-57500000D03*
G04 #@! TO.P,D135,2,DOUT*
G04 #@! TO.N,Net-(D135-DOUT)*
X198060000Y-57500000D03*
G04 #@! TO.P,D135,3,VSS*
G04 #@! TO.N,/LED Matrix/VSS-*
X198060000Y-52600000D03*
G04 #@! TO.P,D135,4,DIN*
G04 #@! TO.N,Net-(D134-DOUT)*
X194860000Y-52600000D03*
G04 #@! TD*
G04 #@! TO.P,D50,1,VDD*
G04 #@! TO.N,+5V*
X240740000Y-105400000D03*
G04 #@! TO.P,D50,2,DOUT*
G04 #@! TO.N,Net-(D50-DOUT)*
X243940000Y-105400000D03*
G04 #@! TO.P,D50,3,VSS*
G04 #@! TO.N,/LED Matrix/VSS-*
X243940000Y-100500000D03*
G04 #@! TO.P,D50,4,DIN*
G04 #@! TO.N,Net-(D49-DOUT)*
X240740000Y-100500000D03*
G04 #@! TD*
D14*
G04 #@! TO.P,C7,1*
G04 #@! TO.N,+5V*
X158500000Y-88275000D03*
G04 #@! TO.P,C7,2*
G04 #@! TO.N,/LED Matrix/VSS-*
X158500000Y-86725000D03*
G04 #@! TD*
D23*
G04 #@! TO.P,A1,*
G04 #@! TO.N,*
X136615000Y-137150000D03*
D24*
X136315000Y-134120000D03*
X131465000Y-134120000D03*
D23*
X131165000Y-137150000D03*
D25*
G04 #@! TO.P,A1,1,GPIO0*
G04 #@! TO.N,unconnected-(A1-GPIO0-Pad1)*
X143580000Y-137280000D03*
D26*
G04 #@! TO.P,A1,2,GPIO1*
G04 #@! TO.N,/gp1*
X143580000Y-134740000D03*
D27*
G04 #@! TO.P,A1,3,GND*
G04 #@! TO.N,Net-(A1-GND-Pad13)*
X143580000Y-132200000D03*
D26*
G04 #@! TO.P,A1,4,GPIO2*
G04 #@! TO.N,/gp2*
X143580000Y-129660000D03*
G04 #@! TO.P,A1,5,GPIO3*
G04 #@! TO.N,/gp3*
X143580000Y-127120000D03*
G04 #@! TO.P,A1,6,GPIO4*
G04 #@! TO.N,/gp4*
X143580000Y-124580000D03*
G04 #@! TO.P,A1,7,GPIO5*
G04 #@! TO.N,/gp5*
X143580000Y-122040000D03*
D27*
G04 #@! TO.P,A1,8,GND*
G04 #@! TO.N,Net-(A1-GND-Pad13)*
X143580000Y-119500000D03*
D26*
G04 #@! TO.P,A1,9,GPIO6*
G04 #@! TO.N,/gp6*
X143580000Y-116960000D03*
G04 #@! TO.P,A1,10,GPIO7*
G04 #@! TO.N,/gp7*
X143580000Y-114420000D03*
G04 #@! TO.P,A1,11,GPIO8*
G04 #@! TO.N,/gp8*
X143580000Y-111880000D03*
G04 #@! TO.P,A1,12,GPIO9*
G04 #@! TO.N,/gp9*
X143580000Y-109340000D03*
D27*
G04 #@! TO.P,A1,13,GND*
G04 #@! TO.N,Net-(A1-GND-Pad13)*
X143580000Y-106800000D03*
D26*
G04 #@! TO.P,A1,14,GPIO10*
G04 #@! TO.N,/gp10*
X143580000Y-104260000D03*
G04 #@! TO.P,A1,15,GPIO11*
G04 #@! TO.N,/gp11*
X143580000Y-101720000D03*
G04 #@! TO.P,A1,16,GPIO12*
G04 #@! TO.N,/gp12*
X143580000Y-99180000D03*
G04 #@! TO.P,A1,17,GPIO13*
G04 #@! TO.N,/gp13*
X143580000Y-96640000D03*
D27*
G04 #@! TO.P,A1,18,GND*
G04 #@! TO.N,Net-(A1-GND-Pad13)*
X143580000Y-94100000D03*
D26*
G04 #@! TO.P,A1,19,GPIO14*
G04 #@! TO.N,/gp14*
X143580000Y-91560000D03*
G04 #@! TO.P,A1,20,GPIO15*
G04 #@! TO.N,/gp15*
X143580000Y-89020000D03*
G04 #@! TO.P,A1,21,GPIO16*
G04 #@! TO.N,/gp16*
X124200000Y-89020000D03*
G04 #@! TO.P,A1,22,GPIO17*
G04 #@! TO.N,/gp17*
X124200000Y-91560000D03*
D25*
G04 #@! TO.P,A1,23,GND*
G04 #@! TO.N,Net-(A1-GND-Pad13)*
X124200000Y-94100000D03*
D26*
G04 #@! TO.P,A1,24,GPIO18*
G04 #@! TO.N,/gp18*
X124200000Y-96640000D03*
G04 #@! TO.P,A1,25,GPIO19*
G04 #@! TO.N,/gp19*
X124200000Y-99180000D03*
G04 #@! TO.P,A1,26,GPIO20*
G04 #@! TO.N,/gp20*
X124200000Y-101720000D03*
G04 #@! TO.P,A1,27,GPIO21*
G04 #@! TO.N,/gp21*
X124200000Y-104260000D03*
D25*
G04 #@! TO.P,A1,28,GND*
G04 #@! TO.N,Net-(A1-GND-Pad13)*
X124200000Y-106800000D03*
D26*
G04 #@! TO.P,A1,29,GPIO22*
G04 #@! TO.N,/gp22*
X124200000Y-109340000D03*
G04 #@! TO.P,A1,30,RUN*
G04 #@! TO.N,unconnected-(A1-RUN-Pad30)*
X124200000Y-111880000D03*
G04 #@! TO.P,A1,31,GPIO26_ADC0*
G04 #@! TO.N,unconnected-(A1-GPIO26_ADC0-Pad31)*
X124200000Y-114420000D03*
G04 #@! TO.P,A1,32,GPIO27_ADC1*
G04 #@! TO.N,unconnected-(A1-GPIO27_ADC1-Pad32)*
X124200000Y-116960000D03*
D25*
G04 #@! TO.P,A1,33,AGND*
G04 #@! TO.N,unconnected-(A1-AGND-Pad33)*
X124200000Y-119500000D03*
D26*
G04 #@! TO.P,A1,34,GPIO28_ADC2*
G04 #@! TO.N,unconnected-(A1-GPIO28_ADC2-Pad34)*
X124200000Y-122040000D03*
G04 #@! TO.P,A1,35,ADC_VREF*
G04 #@! TO.N,unconnected-(A1-ADC_VREF-Pad35)*
X124200000Y-124580000D03*
G04 #@! TO.P,A1,36,3V3*
G04 #@! TO.N,unconnected-(A1-3V3-Pad36)*
X124200000Y-127120000D03*
G04 #@! TO.P,A1,37,3V3_EN*
G04 #@! TO.N,unconnected-(A1-3V3_EN-Pad37)*
X124200000Y-129660000D03*
D25*
G04 #@! TO.P,A1,38,GND*
G04 #@! TO.N,Net-(A1-GND-Pad13)*
X124200000Y-132200000D03*
D26*
G04 #@! TO.P,A1,39,VSYS*
G04 #@! TO.N,unconnected-(A1-VSYS-Pad39)*
X124200000Y-134740000D03*
G04 #@! TO.P,A1,40,VBUS*
G04 #@! TO.N,unconnected-(A1-VBUS-Pad40)*
X124200000Y-137280000D03*
D28*
G04 #@! TO.P,A1,D1,SWCLK*
G04 #@! TO.N,unconnected-(A1-SWCLK-PadD1)*
X133305900Y-107450000D03*
D29*
G04 #@! TO.P,A1,D2,GND*
G04 #@! TO.N,Net-(A1-GND-Pad13)*
X130765900Y-107450000D03*
G04 #@! TO.P,A1,D3,SWDIO*
G04 #@! TO.N,unconnected-(A1-SWDIO-PadD3)*
X128225900Y-107450000D03*
D30*
G04 #@! TO.P,A1,TP1,USB_GND*
G04 #@! TO.N,unconnected-(A1-USB_GND-PadTP1)*
X133890000Y-134150000D03*
G04 #@! TO.P,A1,TP2,USB_DM*
G04 #@! TO.N,unconnected-(A1-USB_DM-PadTP2)*
X132890000Y-137450000D03*
G04 #@! TO.P,A1,TP3,USB_DP*
G04 #@! TO.N,unconnected-(A1-USB_DP-PadTP3)*
X134890000Y-137450000D03*
G04 #@! TO.P,A1,TP4,~{SMPS_PS}*
G04 #@! TO.N,unconnected-(A1-~{SMPS_PS}-PadTP4)*
X136390000Y-129150000D03*
G04 #@! TO.P,A1,TP5,LED_OUT*
G04 #@! TO.N,unconnected-(A1-LED_OUT-PadTP5)*
X136390000Y-126650000D03*
G04 #@! TO.P,A1,TP6,~{BOOTSEL}*
G04 #@! TO.N,unconnected-(A1-~{BOOTSEL}-PadTP6)*
X136390000Y-124150000D03*
G04 #@! TD*
D12*
G04 #@! TO.P,D162,1,VDD*
G04 #@! TO.N,+5V*
X202500000Y-41900000D03*
G04 #@! TO.P,D162,2,DOUT*
G04 #@! TO.N,Net-(D162-DOUT)*
X205700000Y-41900000D03*
G04 #@! TO.P,D162,3,VSS*
G04 #@! TO.N,/LED Matrix/VSS-*
X205700000Y-37000000D03*
G04 #@! TO.P,D162,4,DIN*
G04 #@! TO.N,/LED Matrix/DIN*
X202500000Y-37000000D03*
G04 #@! TD*
D14*
G04 #@! TO.P,C8,1*
G04 #@! TO.N,+5V*
X158500000Y-96275000D03*
G04 #@! TO.P,C8,2*
G04 #@! TO.N,/LED Matrix/VSS-*
X158500000Y-94725000D03*
G04 #@! TD*
D12*
G04 #@! TO.P,D110,1,VDD*
G04 #@! TO.N,+5V*
X202580000Y-73500000D03*
G04 #@! TO.P,D110,2,DOUT*
G04 #@! TO.N,Net-(D110-DOUT)*
X205780000Y-73500000D03*
G04 #@! TO.P,D110,3,VSS*
G04 #@! TO.N,/LED Matrix/VSS-*
X205780000Y-68600000D03*
G04 #@! TO.P,D110,4,DIN*
G04 #@! TO.N,Net-(D109-DOUT)*
X202580000Y-68600000D03*
G04 #@! TD*
D15*
G04 #@! TO.P,SW1,1,1*
G04 #@! TO.N,/gp15*
X150050000Y-104250000D03*
X154150000Y-104250000D03*
G04 #@! TO.P,SW1,2,2*
G04 #@! TO.N,GND*
X150050000Y-105850000D03*
X154150000Y-105850000D03*
G04 #@! TD*
D12*
G04 #@! TO.P,D46,1,VDD*
G04 #@! TO.N,+5V*
X210520000Y-105400000D03*
G04 #@! TO.P,D46,2,DOUT*
G04 #@! TO.N,Net-(D46-DOUT)*
X213720000Y-105400000D03*
G04 #@! TO.P,D46,3,VSS*
G04 #@! TO.N,/LED Matrix/VSS-*
X213720000Y-100500000D03*
G04 #@! TO.P,D46,4,DIN*
G04 #@! TO.N,Net-(D45-DOUT)*
X210520000Y-100500000D03*
G04 #@! TD*
G04 #@! TO.P,D136,1,VDD*
G04 #@! TO.N,+5V*
X202600000Y-57500000D03*
G04 #@! TO.P,D136,2,DOUT*
G04 #@! TO.N,Net-(D136-DOUT)*
X205800000Y-57500000D03*
G04 #@! TO.P,D136,3,VSS*
G04 #@! TO.N,/LED Matrix/VSS-*
X205800000Y-52600000D03*
G04 #@! TO.P,D136,4,DIN*
G04 #@! TO.N,Net-(D135-DOUT)*
X202600000Y-52600000D03*
G04 #@! TD*
G04 #@! TO.P,D134,1,VDD*
G04 #@! TO.N,+5V*
X186500000Y-57500000D03*
G04 #@! TO.P,D134,2,DOUT*
G04 #@! TO.N,Net-(D134-DOUT)*
X189700000Y-57500000D03*
G04 #@! TO.P,D134,3,VSS*
G04 #@! TO.N,/LED Matrix/VSS-*
X189700000Y-52600000D03*
G04 #@! TO.P,D134,4,DIN*
G04 #@! TO.N,/LED Matrix/D2*
X186500000Y-52600000D03*
G04 #@! TD*
D31*
G04 #@! TO.N,/gp19*
X117825735Y-119325735D03*
X124200000Y-99180000D03*
G04 #@! TO.N,/gp18*
X119100000Y-107500000D03*
X114500000Y-114100000D03*
G04 #@! TO.N,/gp17*
X118500000Y-105500000D03*
X118500000Y-109000000D03*
X118500000Y-116000000D03*
X118500000Y-118000000D03*
G04 #@! TO.N,/gp16*
X114500000Y-112500000D03*
X113600000Y-114500000D03*
G04 #@! TO.N,/gp14*
X148500000Y-98500000D03*
X114000000Y-111500000D03*
X113000000Y-123000000D03*
X136500000Y-98500000D03*
G04 #@! TO.N,/gp12*
X119500000Y-118500000D03*
X127000000Y-114500000D03*
G04 #@! TO.N,/gp10*
X139500000Y-106500000D03*
G04 #@! TO.N,/gp8*
X138000000Y-115000000D03*
G04 #@! TO.N,/gp6*
X138500000Y-119000000D03*
G04 #@! TO.N,/gp4*
X113500000Y-128500000D03*
X140000000Y-126000000D03*
G04 #@! TO.N,/gp2*
X140000000Y-130500000D03*
X115000000Y-130500000D03*
G04 #@! TO.N,/gp9*
X139500000Y-109000000D03*
X167000000Y-134500000D03*
G04 #@! TO.N,/gp8*
X164500000Y-128500000D03*
X141000000Y-112000000D03*
G04 #@! TO.N,GND*
X185000000Y-128000000D03*
X155000000Y-107500000D03*
X176500000Y-131000000D03*
X154150000Y-105850000D03*
G04 #@! TO.N,/LED Matrix/D6*
X163500000Y-85500000D03*
X262000000Y-76500000D03*
G04 #@! TO.N,/LED Matrix/D7*
X261000000Y-85500000D03*
X160000000Y-93500000D03*
G04 #@! TO.N,/LED Matrix/D8*
X261500000Y-94000000D03*
X168000000Y-101000000D03*
G04 #@! TO.N,/LED Matrix/D5*
X253000000Y-72500000D03*
X160000000Y-77000000D03*
G04 #@! TO.N,/LED Matrix/D9*
X253500000Y-102500000D03*
X175000000Y-109000000D03*
G04 #@! TO.N,/LED Matrix/D10*
X184500000Y-117500000D03*
X246500000Y-111000000D03*
G04 #@! TO.N,/LED Matrix/D11*
X239000000Y-118500000D03*
X192000000Y-124500000D03*
G04 #@! TO.N,/LED Matrix/D12*
X231000000Y-126500000D03*
X201000000Y-133000000D03*
G04 #@! TO.N,/LED Matrix/D4*
X245500000Y-61500000D03*
X168500000Y-69000000D03*
G04 #@! TO.N,/LED Matrix/D3*
X239000000Y-53500000D03*
X175500000Y-60500000D03*
G04 #@! TO.N,/LED Matrix/D2*
X186500000Y-50500000D03*
X231500000Y-45000000D03*
G04 #@! TO.N,/LED Matrix/D1*
X192000000Y-44500000D03*
X225000000Y-36000000D03*
G04 #@! TO.N,/LED Matrix/DIN*
X197000000Y-37000000D03*
X200500000Y-37000000D03*
D32*
G04 #@! TO.N,+5V*
X164000000Y-108000000D03*
X178500000Y-54000000D03*
D31*
X177500000Y-121500000D03*
X161933607Y-73933607D03*
X150000000Y-118500000D03*
X167500000Y-75600000D03*
D32*
X188500000Y-128000000D03*
D31*
X168500000Y-112500000D03*
D32*
X156000000Y-80000000D03*
D31*
X176000000Y-74000000D03*
D32*
X197500000Y-40500000D03*
D31*
X164500000Y-101500000D03*
X184000000Y-76000000D03*
D32*
X196500000Y-137500000D03*
D31*
X167000000Y-74000000D03*
D32*
X156000000Y-96500000D03*
X162000000Y-70500000D03*
X186000000Y-46500000D03*
D31*
X196000000Y-39000000D03*
D32*
X169750000Y-62750000D03*
X156000000Y-89000000D03*
D31*
X184000000Y-74000000D03*
X176000000Y-76500000D03*
X208500000Y-41500000D03*
X155500000Y-100500000D03*
G04 #@! TO.N,/gp10*
X140500000Y-104000000D03*
X158500000Y-108500000D03*
G04 #@! TO.N,/gp16*
X157500000Y-91500000D03*
X157201000Y-77000000D03*
X120000000Y-89000000D03*
X156000000Y-70500000D03*
X187500000Y-39000000D03*
X153000000Y-93000000D03*
G04 #@! TO.N,/gp11*
X141000000Y-100500000D03*
X147500000Y-105000000D03*
G04 #@! TO.N,/gp13*
X158000000Y-115500000D03*
X158000000Y-112500000D03*
G04 #@! TO.N,/gp14*
X151000000Y-112000000D03*
X154150000Y-112400000D03*
G04 #@! TO.N,/gp12*
X148000000Y-108500000D03*
X139500000Y-100000000D03*
G04 #@! TO.N,/LED Matrix/VSS-*
X183000000Y-77000000D03*
X175000000Y-77500000D03*
X200000000Y-52500000D03*
X183000000Y-75000000D03*
X175000000Y-75000000D03*
X192500000Y-52500000D03*
G04 #@! TD*
D33*
G04 #@! TO.N,/LED Matrix/VSS-*
X226500000Y-136500000D02*
X226500000Y-137567100D01*
X168260942Y-139901000D02*
X157000000Y-128640058D01*
D34*
G04 #@! TO.N,+5V*
X151320000Y-119820000D02*
X150000000Y-118500000D01*
X157000000Y-121000000D02*
X155820000Y-119820000D01*
X155820000Y-119820000D02*
X151320000Y-119820000D01*
D33*
G04 #@! TO.N,/LED Matrix/VSS-*
X224166100Y-139901000D02*
X168260942Y-139901000D01*
X226500000Y-137567100D02*
X224166100Y-139901000D01*
X157000000Y-128640058D02*
X157000000Y-126180000D01*
G04 #@! TO.N,/gp19*
X116651470Y-120500000D02*
X117825735Y-119325735D01*
X116000000Y-120500000D02*
X116651470Y-120500000D01*
G04 #@! TO.N,/gp18*
X115000000Y-121500000D02*
X114398960Y-121500000D01*
X114398960Y-121500000D02*
X114274000Y-121375040D01*
X119100000Y-107500000D02*
X119100000Y-101740000D01*
X114274000Y-114326000D02*
X114500000Y-114100000D01*
X114274000Y-121375040D02*
X114274000Y-114326000D01*
X119100000Y-101740000D02*
X124200000Y-96640000D01*
G04 #@! TO.N,/gp17*
X116000000Y-121500000D02*
X116500000Y-121500000D01*
X116500000Y-121500000D02*
X118500000Y-119500000D01*
X118500000Y-116000000D02*
X118500000Y-109000000D01*
X118500000Y-119500000D02*
X118500000Y-118000000D01*
X118500000Y-105500000D02*
X118500000Y-97260000D01*
X118500000Y-97260000D02*
X124200000Y-91560000D01*
G04 #@! TO.N,/gp16*
X115000000Y-122500000D02*
X114398960Y-122500000D01*
X113399000Y-95601000D02*
X120000000Y-89000000D01*
X113600000Y-121701040D02*
X113600000Y-114500000D01*
X114398960Y-122500000D02*
X113600000Y-121701040D01*
X114500000Y-112500000D02*
X114150057Y-112500000D01*
X113399000Y-111748943D02*
X113399000Y-95601000D01*
X114150057Y-112500000D02*
X113399000Y-111748943D01*
G04 #@! TO.N,/gp14*
X115000000Y-123500000D02*
X113500000Y-123500000D01*
X113500000Y-123500000D02*
X113000000Y-123000000D01*
X125512000Y-108239000D02*
X135251000Y-98500000D01*
X114000000Y-111500000D02*
X117261000Y-108239000D01*
X135251000Y-98500000D02*
X136500000Y-98500000D01*
X117261000Y-108239000D02*
X125512000Y-108239000D01*
X148500000Y-98500000D02*
X148500000Y-96480000D01*
X148500000Y-96480000D02*
X143580000Y-91560000D01*
G04 #@! TO.N,/gp15*
X116000000Y-122500000D02*
X116500000Y-122500000D01*
X121898000Y-117102000D02*
X121898000Y-114364950D01*
X116500000Y-122500000D02*
X121898000Y-117102000D01*
X121898000Y-114364950D02*
X122943950Y-113319000D01*
X122943950Y-113319000D02*
X125456050Y-113319000D01*
X125456050Y-113319000D02*
X129677500Y-109097550D01*
X141674000Y-95608836D02*
X141674000Y-90926000D01*
X129677500Y-109097550D02*
X129677500Y-106999169D01*
X140272712Y-96403957D02*
X140878879Y-96403957D01*
X129677500Y-106999169D02*
X140272712Y-96403957D01*
X140878879Y-96403957D02*
X141674000Y-95608836D01*
X141674000Y-90926000D02*
X143580000Y-89020000D01*
G04 #@! TO.N,/gp13*
X116000000Y-123500000D02*
X116601040Y-123500000D01*
X116601040Y-123500000D02*
X122299000Y-117802040D01*
X122299000Y-117802040D02*
X122299000Y-116503950D01*
X126399000Y-114068964D02*
X132217500Y-108250464D01*
X122299000Y-116503950D02*
X122943950Y-115859000D01*
X125288943Y-115859000D02*
X126399000Y-114748943D01*
X122943950Y-115859000D02*
X125288943Y-115859000D01*
X126399000Y-114748943D02*
X126399000Y-114068964D01*
X132217500Y-108250464D02*
X132217500Y-106432557D01*
X142010057Y-96640000D02*
X143580000Y-96640000D01*
X132217500Y-106432557D02*
X142010057Y-96640000D01*
G04 #@! TO.N,/gp12*
X115000000Y-124500000D02*
X112601000Y-124500000D01*
X112101000Y-124000000D02*
X112101000Y-114399000D01*
X113000000Y-113500000D02*
X115026720Y-113500000D01*
X115026720Y-113500000D02*
X119500000Y-117973280D01*
X112601000Y-124500000D02*
X112101000Y-124000000D01*
X112101000Y-114399000D02*
X113000000Y-113500000D01*
X119500000Y-117973280D02*
X119500000Y-118500000D01*
X141470057Y-99180000D02*
X134394300Y-106255757D01*
X134394300Y-108555650D02*
X128449950Y-114500000D01*
X134394300Y-106255757D02*
X134394300Y-108555650D01*
X143580000Y-99180000D02*
X141470057Y-99180000D01*
X128449950Y-114500000D02*
X127000000Y-114500000D01*
G04 #@! TO.N,/gp11*
X143580000Y-101720000D02*
X141797050Y-101720000D01*
X141797050Y-101720000D02*
X125123050Y-118394000D01*
X125123050Y-118394000D02*
X122565620Y-118394000D01*
X122565620Y-118394000D02*
X116459620Y-124500000D01*
X116459620Y-124500000D02*
X116000000Y-124500000D01*
G04 #@! TO.N,/gp10*
X141740000Y-104260000D02*
X139500000Y-106500000D01*
X143580000Y-104260000D02*
X141740000Y-104260000D01*
G04 #@! TO.N,/gp9*
X143580000Y-109340000D02*
X137177050Y-109340000D01*
X120587720Y-120939000D02*
X116026720Y-125500000D01*
X116026720Y-125500000D02*
X116000000Y-125500000D01*
X137177050Y-109340000D02*
X125578050Y-120939000D01*
X125578050Y-120939000D02*
X120587720Y-120939000D01*
G04 #@! TO.N,/gp8*
X143580000Y-111880000D02*
X140460000Y-115000000D01*
X140460000Y-115000000D02*
X138000000Y-115000000D01*
G04 #@! TO.N,/gp7*
X143580000Y-114420000D02*
X142080000Y-114420000D01*
X142080000Y-114420000D02*
X133021000Y-123479000D01*
X133021000Y-123479000D02*
X119622040Y-123479000D01*
X119622040Y-123479000D02*
X116601040Y-126500000D01*
X116601040Y-126500000D02*
X116000000Y-126500000D01*
G04 #@! TO.N,/gp6*
X140540000Y-116960000D02*
X138500000Y-119000000D01*
X143580000Y-116960000D02*
X140540000Y-116960000D01*
G04 #@! TO.N,/gp5*
X143580000Y-122040000D02*
X136460000Y-122040000D01*
X136460000Y-122040000D02*
X132481000Y-126019000D01*
X132481000Y-126019000D02*
X118082040Y-126019000D01*
X118082040Y-126019000D02*
X116601040Y-127500000D01*
X116601040Y-127500000D02*
X116000000Y-127500000D01*
G04 #@! TO.N,/gp4*
X141420000Y-124580000D02*
X140000000Y-126000000D01*
X143580000Y-124580000D02*
X141420000Y-124580000D01*
X113500000Y-128500000D02*
X115000000Y-128500000D01*
G04 #@! TO.N,/gp3*
X143580000Y-127120000D02*
X142780000Y-127920000D01*
X142780000Y-127920000D02*
X126080000Y-127920000D01*
X125500000Y-128500000D02*
X116000000Y-128500000D01*
X126080000Y-127920000D02*
X125500000Y-128500000D01*
G04 #@! TO.N,/gp2*
X143580000Y-129660000D02*
X140840000Y-129660000D01*
X140840000Y-129660000D02*
X140000000Y-130500000D01*
X115000000Y-130500000D02*
X115000000Y-129500000D01*
G04 #@! TO.N,/gp9*
X143240000Y-109000000D02*
X139500000Y-109000000D01*
X143580000Y-109340000D02*
X143240000Y-109000000D01*
X167500000Y-134000000D02*
X169770000Y-134000000D01*
X167000000Y-134500000D02*
X167500000Y-134000000D01*
G04 #@! TO.N,/gp8*
X143580000Y-111880000D02*
X141120000Y-111880000D01*
X164795000Y-128205000D02*
X169770000Y-128205000D01*
X164500000Y-128500000D02*
X164795000Y-128205000D01*
X141120000Y-111880000D02*
X141000000Y-112000000D01*
G04 #@! TO.N,GND*
X150050000Y-114000000D02*
X150150000Y-114000000D01*
X176500000Y-131000000D02*
X176500000Y-134000000D01*
X154150000Y-110000000D02*
X155000000Y-109150000D01*
X156400000Y-105850000D02*
X156450000Y-105800000D01*
X154150000Y-105850000D02*
X156400000Y-105850000D01*
X184545000Y-127545000D02*
X185000000Y-128000000D01*
X150050000Y-105850000D02*
X154150000Y-105850000D01*
X176500000Y-128205000D02*
X176500000Y-131000000D01*
X150050000Y-110000000D02*
X154150000Y-110000000D01*
X155000000Y-109150000D02*
X155000000Y-107500000D01*
X168455000Y-114000000D02*
X160550000Y-114000000D01*
X160550000Y-105800000D02*
X156450000Y-105800000D01*
X160600000Y-110000000D02*
X156500000Y-110000000D01*
X182000000Y-127545000D02*
X168455000Y-114000000D01*
X156450000Y-114000000D02*
X160550000Y-114000000D01*
X156500000Y-110000000D02*
X154150000Y-110000000D01*
X154150000Y-114000000D02*
X156450000Y-114000000D01*
X182000000Y-127545000D02*
X184545000Y-127545000D01*
X150150000Y-114000000D02*
X154150000Y-110000000D01*
X150050000Y-114000000D02*
X154150000Y-114000000D01*
G04 #@! TO.N,/gp7*
X176500000Y-124500000D02*
X177000000Y-124500000D01*
X145920000Y-114420000D02*
X148000000Y-116500000D01*
X167000000Y-124500000D02*
X176500000Y-124500000D01*
X152000000Y-116500000D02*
X159000000Y-116500000D01*
X182000000Y-134275000D02*
X180725000Y-133000000D01*
X177000000Y-124500000D02*
X179000000Y-126500000D01*
X180725000Y-132225000D02*
X179000000Y-130500000D01*
X159000000Y-116500000D02*
X159500000Y-117000000D01*
X148000000Y-116500000D02*
X152000000Y-116500000D01*
X179000000Y-126500000D02*
X179000000Y-130500000D01*
X143580000Y-114420000D02*
X145920000Y-114420000D01*
X159500000Y-117000000D02*
X167000000Y-124500000D01*
X180725000Y-133000000D02*
X180725000Y-132225000D01*
G04 #@! TO.N,/LED Matrix/D6*
X163500000Y-85500000D02*
X162520000Y-85500000D01*
X162520000Y-85500000D02*
X162020000Y-85000000D01*
X259300000Y-81400000D02*
X260600000Y-81400000D01*
X261000000Y-81000000D02*
X261000000Y-77500000D01*
X261000000Y-77500000D02*
X262000000Y-76500000D01*
X260600000Y-81400000D02*
X261000000Y-81000000D01*
G04 #@! TO.N,Net-(D1-DOUT)*
X167100000Y-89900000D02*
X167500000Y-89500000D01*
X168500000Y-85000000D02*
X169860000Y-85000000D01*
X165220000Y-89900000D02*
X167100000Y-89900000D01*
X167500000Y-89500000D02*
X167500000Y-86000000D01*
X167500000Y-86000000D02*
X168500000Y-85000000D01*
G04 #@! TO.N,Net-(D2-DOUT)*
X176000000Y-88800000D02*
X176000000Y-86000000D01*
X174900000Y-89900000D02*
X176000000Y-88800000D01*
X173060000Y-89900000D02*
X174900000Y-89900000D01*
X176000000Y-86000000D02*
X177000000Y-85000000D01*
X177000000Y-85000000D02*
X178020000Y-85000000D01*
G04 #@! TO.N,Net-(D3-DOUT)*
X181220000Y-89900000D02*
X182100000Y-89900000D01*
X185400000Y-84600000D02*
X186640000Y-84600000D01*
X182100000Y-89900000D02*
X184000000Y-88000000D01*
X184000000Y-88000000D02*
X184000000Y-86000000D01*
X184000000Y-86000000D02*
X185400000Y-84600000D01*
G04 #@! TO.N,Net-(D4-DOUT)*
X189840000Y-89500000D02*
X191500000Y-89500000D01*
X193400000Y-84600000D02*
X195000000Y-84600000D01*
X192000000Y-89000000D02*
X192000000Y-86000000D01*
X192000000Y-86000000D02*
X193400000Y-84600000D01*
X191500000Y-89500000D02*
X192000000Y-89000000D01*
G04 #@! TO.N,Net-(D5-DOUT)*
X200000000Y-86000000D02*
X201400000Y-84600000D01*
X199000000Y-89500000D02*
X200000000Y-88500000D01*
X198200000Y-89500000D02*
X199000000Y-89500000D01*
X201400000Y-84600000D02*
X202740000Y-84600000D01*
X200000000Y-88500000D02*
X200000000Y-86000000D01*
G04 #@! TO.N,Net-(D6-DOUT)*
X209500000Y-84500000D02*
X210820000Y-84500000D01*
X207500000Y-89500000D02*
X208000000Y-89000000D01*
X205940000Y-89500000D02*
X207500000Y-89500000D01*
X208000000Y-86000000D02*
X209500000Y-84500000D01*
X208000000Y-89000000D02*
X208000000Y-86000000D01*
G04 #@! TO.N,Net-(D7-DOUT)*
X214020000Y-89400000D02*
X216000000Y-87420000D01*
X216500000Y-84500000D02*
X218660000Y-84500000D01*
X216000000Y-87420000D02*
X216000000Y-85000000D01*
X216000000Y-85000000D02*
X216500000Y-84500000D01*
G04 #@! TO.N,Net-(D8-DOUT)*
X223100000Y-89400000D02*
X224000000Y-88500000D01*
X224000000Y-88500000D02*
X224000000Y-85500000D01*
X224000000Y-85500000D02*
X225000000Y-84500000D01*
X225000000Y-84500000D02*
X226180000Y-84500000D01*
X221860000Y-89400000D02*
X223100000Y-89400000D01*
G04 #@! TO.N,Net-(D10-DIN)*
X231500000Y-85500000D02*
X232500000Y-84500000D01*
X232500000Y-84500000D02*
X233700000Y-84500000D01*
X229380000Y-89400000D02*
X230100000Y-89400000D01*
X230100000Y-89400000D02*
X231500000Y-88000000D01*
X231500000Y-88000000D02*
X231500000Y-85500000D01*
G04 #@! TO.N,Net-(D10-DOUT)*
X236900000Y-89400000D02*
X238100000Y-89400000D01*
X239000000Y-85000000D02*
X239000000Y-85500000D01*
X238100000Y-89400000D02*
X239000000Y-88500000D01*
X239000000Y-88500000D02*
X239000000Y-85000000D01*
X239500000Y-84500000D02*
X241040000Y-84500000D01*
X239000000Y-85000000D02*
X239500000Y-84500000D01*
G04 #@! TO.N,Net-(D11-DOUT)*
X245100000Y-89400000D02*
X246000000Y-88500000D01*
X246000000Y-88500000D02*
X246000000Y-85500000D01*
X247000000Y-84500000D02*
X248280000Y-84500000D01*
X246000000Y-85500000D02*
X247000000Y-84500000D01*
X244240000Y-89400000D02*
X245100000Y-89400000D01*
G04 #@! TO.N,Net-(D12-DOUT)*
X255000000Y-84500000D02*
X255680000Y-84500000D01*
X253500000Y-88500000D02*
X253500000Y-86000000D01*
X253500000Y-86000000D02*
X255000000Y-84500000D01*
X251480000Y-89400000D02*
X252600000Y-89400000D01*
X252600000Y-89400000D02*
X253500000Y-88500000D01*
G04 #@! TO.N,/LED Matrix/D7*
X258880000Y-89400000D02*
X259600000Y-89400000D01*
X260500000Y-86000000D02*
X261000000Y-85500000D01*
X160000000Y-93500000D02*
X160500000Y-93000000D01*
X160500000Y-93000000D02*
X162080000Y-93000000D01*
X260500000Y-88500000D02*
X260500000Y-86000000D01*
X259600000Y-89400000D02*
X260500000Y-88500000D01*
G04 #@! TO.N,Net-(D14-DOUT)*
X167100000Y-97900000D02*
X167500000Y-97500000D01*
X167500000Y-97500000D02*
X167500000Y-94000000D01*
X167500000Y-94000000D02*
X168500000Y-93000000D01*
X165280000Y-97900000D02*
X167100000Y-97900000D01*
X168500000Y-93000000D02*
X169920000Y-93000000D01*
G04 #@! TO.N,Net-(D15-DOUT)*
X173120000Y-97900000D02*
X175100000Y-97900000D01*
X175500000Y-97500000D02*
X175500000Y-93500000D01*
X175100000Y-97900000D02*
X175500000Y-97500000D01*
X176000000Y-93000000D02*
X178080000Y-93000000D01*
X175500000Y-93500000D02*
X176000000Y-93000000D01*
G04 #@! TO.N,Net-(D16-DOUT)*
X184900000Y-92600000D02*
X186700000Y-92600000D01*
X182600000Y-97900000D02*
X184000000Y-96500000D01*
X181280000Y-97900000D02*
X182600000Y-97900000D01*
X184000000Y-96500000D02*
X184000000Y-93500000D01*
X184000000Y-93500000D02*
X184900000Y-92600000D01*
G04 #@! TO.N,Net-(D17-DOUT)*
X189900000Y-97500000D02*
X191500000Y-97500000D01*
X192000000Y-93500000D02*
X192900000Y-92600000D01*
X192000000Y-97000000D02*
X192000000Y-93500000D01*
X192900000Y-92600000D02*
X195060000Y-92600000D01*
X191500000Y-97500000D02*
X192000000Y-97000000D01*
G04 #@! TO.N,Net-(D18-DOUT)*
X199500000Y-97500000D02*
X200500000Y-96500000D01*
X201400000Y-92600000D02*
X202800000Y-92600000D01*
X198260000Y-97500000D02*
X199500000Y-97500000D01*
X200500000Y-93500000D02*
X201400000Y-92600000D01*
X200500000Y-96500000D02*
X200500000Y-93500000D01*
G04 #@! TO.N,Net-(D19-DOUT)*
X206000000Y-97500000D02*
X208000000Y-97500000D01*
X208000000Y-97500000D02*
X208500000Y-97000000D01*
X209500000Y-92500000D02*
X210880000Y-92500000D01*
X208500000Y-93500000D02*
X209500000Y-92500000D01*
X208500000Y-97000000D02*
X208500000Y-93500000D01*
G04 #@! TO.N,Net-(D20-DOUT)*
X215600000Y-97400000D02*
X216500000Y-96500000D01*
X217000000Y-92500000D02*
X218720000Y-92500000D01*
X216500000Y-96500000D02*
X216500000Y-93000000D01*
X214080000Y-97400000D02*
X215600000Y-97400000D01*
X216500000Y-93000000D02*
X217000000Y-92500000D01*
G04 #@! TO.N,Net-(D21-DOUT)*
X223500000Y-97000000D02*
X223500000Y-93500000D01*
X223500000Y-93500000D02*
X224500000Y-92500000D01*
X224500000Y-92500000D02*
X226240000Y-92500000D01*
X223100000Y-97400000D02*
X223500000Y-97000000D01*
X221920000Y-97400000D02*
X223100000Y-97400000D01*
G04 #@! TO.N,Net-(D22-DOUT)*
X231500000Y-96500000D02*
X231500000Y-93500000D01*
X231500000Y-93500000D02*
X232450000Y-92550000D01*
X232450000Y-92550000D02*
X233660000Y-92550000D01*
X229440000Y-97400000D02*
X230600000Y-97400000D01*
X230600000Y-97400000D02*
X231500000Y-96500000D01*
G04 #@! TO.N,Net-(D23-DOUT)*
X239950000Y-92550000D02*
X241000000Y-92550000D01*
X238050000Y-97450000D02*
X239000000Y-96500000D01*
X239000000Y-96500000D02*
X239000000Y-93500000D01*
X239000000Y-93500000D02*
X239950000Y-92550000D01*
X236860000Y-97450000D02*
X238050000Y-97450000D01*
G04 #@! TO.N,Net-(D24-DOUT)*
X244200000Y-97450000D02*
X245550000Y-97450000D01*
X246950000Y-92550000D02*
X248520000Y-92550000D01*
X246000000Y-93500000D02*
X246950000Y-92550000D01*
X246000000Y-97000000D02*
X246000000Y-93500000D01*
X245550000Y-97450000D02*
X246000000Y-97000000D01*
G04 #@! TO.N,Net-(D25-DOUT)*
X251720000Y-97450000D02*
X253050000Y-97450000D01*
X253500000Y-93500000D02*
X254450000Y-92550000D01*
X254450000Y-92550000D02*
X255920000Y-92550000D01*
X253500000Y-97000000D02*
X253500000Y-93500000D01*
X253050000Y-97450000D02*
X253500000Y-97000000D01*
G04 #@! TO.N,/LED Matrix/D8*
X259120000Y-97450000D02*
X259120000Y-96380000D01*
X259120000Y-96380000D02*
X261500000Y-94000000D01*
X168000000Y-101000000D02*
X169700000Y-101000000D01*
G04 #@! TO.N,/LED Matrix/D5*
X160000000Y-77000000D02*
X162200000Y-77000000D01*
X252100000Y-73400000D02*
X253000000Y-72500000D01*
X251600000Y-73400000D02*
X252100000Y-73400000D01*
G04 #@! TO.N,Net-(D27-DOUT)*
X168500000Y-77000000D02*
X170040000Y-77000000D01*
X167500000Y-78000000D02*
X168500000Y-77000000D01*
X166100000Y-81900000D02*
X167500000Y-80500000D01*
X165400000Y-81900000D02*
X166100000Y-81900000D01*
X167500000Y-80500000D02*
X167500000Y-78000000D01*
G04 #@! TO.N,Net-(D28-DOUT)*
X175500000Y-78500000D02*
X177000000Y-77000000D01*
X175500000Y-80500000D02*
X175500000Y-78500000D01*
X174100000Y-81900000D02*
X175500000Y-80500000D01*
X177000000Y-77000000D02*
X178200000Y-77000000D01*
X173240000Y-81900000D02*
X174100000Y-81900000D01*
G04 #@! TO.N,Net-(D29-DOUT)*
X181400000Y-81900000D02*
X182100000Y-81900000D01*
X185400000Y-76600000D02*
X186820000Y-76600000D01*
X184000000Y-80000000D02*
X184000000Y-78000000D01*
X184000000Y-78000000D02*
X185400000Y-76600000D01*
X182100000Y-81900000D02*
X184000000Y-80000000D01*
G04 #@! TO.N,Net-(D30-DOUT)*
X192500000Y-78000000D02*
X193900000Y-76600000D01*
X191500000Y-81500000D02*
X192500000Y-80500000D01*
X192500000Y-80500000D02*
X192500000Y-78000000D01*
X190020000Y-81500000D02*
X191500000Y-81500000D01*
X193900000Y-76600000D02*
X195180000Y-76600000D01*
G04 #@! TO.N,Net-(D31-DOUT)*
X201900000Y-76600000D02*
X202920000Y-76600000D01*
X199500000Y-81500000D02*
X200500000Y-80500000D01*
X200500000Y-78000000D02*
X201900000Y-76600000D01*
X200500000Y-80500000D02*
X200500000Y-78000000D01*
X198380000Y-81500000D02*
X199500000Y-81500000D01*
G04 #@! TO.N,Net-(D32-DOUT)*
X208500000Y-80500000D02*
X208500000Y-77500000D01*
X207500000Y-81500000D02*
X208500000Y-80500000D01*
X206120000Y-81500000D02*
X207500000Y-81500000D01*
X208500000Y-77500000D02*
X209500000Y-76500000D01*
X209500000Y-76500000D02*
X211000000Y-76500000D01*
G04 #@! TO.N,Net-(D33-DOUT)*
X215100000Y-81400000D02*
X216500000Y-80000000D01*
X214200000Y-81400000D02*
X215100000Y-81400000D01*
X216500000Y-80000000D02*
X216500000Y-78000000D01*
X216500000Y-78000000D02*
X218000000Y-76500000D01*
X218000000Y-76500000D02*
X218800000Y-76500000D01*
G04 #@! TO.N,Net-(D34-DOUT)*
X225000000Y-76500000D02*
X226320000Y-76500000D01*
X222000000Y-81400000D02*
X223600000Y-81400000D01*
X224000000Y-77500000D02*
X225000000Y-76500000D01*
X224000000Y-81000000D02*
X224000000Y-77500000D01*
X223600000Y-81400000D02*
X224000000Y-81000000D01*
G04 #@! TO.N,Net-(D35-DOUT)*
X230600000Y-81400000D02*
X231500000Y-80500000D01*
X231500000Y-77500000D02*
X232500000Y-76500000D01*
X231500000Y-80500000D02*
X231500000Y-77500000D01*
X232500000Y-76500000D02*
X233840000Y-76500000D01*
X229520000Y-81400000D02*
X230600000Y-81400000D01*
G04 #@! TO.N,Net-(D36-DOUT)*
X239500000Y-76500000D02*
X241180000Y-76500000D01*
X237600000Y-81400000D02*
X239000000Y-80000000D01*
X237040000Y-81400000D02*
X237600000Y-81400000D01*
X239000000Y-77000000D02*
X239500000Y-76500000D01*
X239000000Y-80000000D02*
X239000000Y-77000000D01*
G04 #@! TO.N,Net-(D37-DOUT)*
X246100000Y-81400000D02*
X246500000Y-81000000D01*
X244380000Y-81400000D02*
X246100000Y-81400000D01*
X247000000Y-76500000D02*
X248700000Y-76500000D01*
X246500000Y-81000000D02*
X246500000Y-77000000D01*
X246500000Y-77000000D02*
X247000000Y-76500000D01*
G04 #@! TO.N,Net-(D38-DOUT)*
X254500000Y-76500000D02*
X256100000Y-76500000D01*
X252600000Y-81400000D02*
X254000000Y-80000000D01*
X254000000Y-80000000D02*
X254000000Y-77000000D01*
X254000000Y-77000000D02*
X254500000Y-76500000D01*
X251900000Y-81400000D02*
X252600000Y-81400000D01*
G04 #@! TO.N,Net-(D41-DOUT)*
X172900000Y-105900000D02*
X174600000Y-105900000D01*
X176000000Y-101000000D02*
X177860000Y-101000000D01*
X175000000Y-105500000D02*
X175000000Y-102000000D01*
X175000000Y-102000000D02*
X176000000Y-101000000D01*
X174600000Y-105900000D02*
X175000000Y-105500000D01*
G04 #@! TO.N,Net-(D42-DOUT)*
X184400000Y-100600000D02*
X186480000Y-100600000D01*
X181060000Y-105900000D02*
X182600000Y-105900000D01*
X183000000Y-102000000D02*
X184400000Y-100600000D01*
X182600000Y-105900000D02*
X183000000Y-105500000D01*
X183000000Y-105500000D02*
X183000000Y-102000000D01*
G04 #@! TO.N,Net-(D43-DOUT)*
X193400000Y-100600000D02*
X194840000Y-100600000D01*
X192000000Y-102000000D02*
X193400000Y-100600000D01*
X189680000Y-105500000D02*
X191000000Y-105500000D01*
X191000000Y-105500000D02*
X192000000Y-104500000D01*
X192000000Y-104500000D02*
X192000000Y-102000000D01*
G04 #@! TO.N,Net-(D44-DOUT)*
X198040000Y-105500000D02*
X199000000Y-105500000D01*
X200900000Y-100600000D02*
X202580000Y-100600000D01*
X200000000Y-101500000D02*
X200900000Y-100600000D01*
X199000000Y-105500000D02*
X200000000Y-104500000D01*
X200000000Y-104500000D02*
X200000000Y-101500000D01*
G04 #@! TO.N,Net-(D45-DOUT)*
X208000000Y-104500000D02*
X208000000Y-102000000D01*
X209500000Y-100500000D02*
X210520000Y-100500000D01*
X208000000Y-102000000D02*
X209500000Y-100500000D01*
X205780000Y-105500000D02*
X207000000Y-105500000D01*
X207000000Y-105500000D02*
X208000000Y-104500000D01*
G04 #@! TO.N,Net-(D46-DOUT)*
X213720000Y-105400000D02*
X214600000Y-105400000D01*
X214600000Y-105400000D02*
X216000000Y-104000000D01*
X217000000Y-100500000D02*
X218360000Y-100500000D01*
X216000000Y-104000000D02*
X216000000Y-101500000D01*
X216000000Y-101500000D02*
X217000000Y-100500000D01*
G04 #@! TO.N,Net-(D47-DOUT)*
X221560000Y-105400000D02*
X222600000Y-105400000D01*
X222600000Y-105400000D02*
X223500000Y-104500000D01*
X225000000Y-100500000D02*
X225880000Y-100500000D01*
X223500000Y-104500000D02*
X223500000Y-102000000D01*
X223500000Y-102000000D02*
X225000000Y-100500000D01*
G04 #@! TO.N,Net-(D48-DOUT)*
X229080000Y-105400000D02*
X230100000Y-105400000D01*
X232000000Y-100500000D02*
X233400000Y-100500000D01*
X231000000Y-104500000D02*
X231000000Y-101500000D01*
X231000000Y-101500000D02*
X232000000Y-100500000D01*
X230100000Y-105400000D02*
X231000000Y-104500000D01*
G04 #@! TO.N,Net-(D49-DOUT)*
X238500000Y-102000000D02*
X240000000Y-100500000D01*
X240000000Y-100500000D02*
X240740000Y-100500000D01*
X238500000Y-105000000D02*
X238500000Y-102000000D01*
X238100000Y-105400000D02*
X238500000Y-105000000D01*
X236600000Y-105400000D02*
X238100000Y-105400000D01*
G04 #@! TO.N,Net-(D50-DOUT)*
X246500000Y-100500000D02*
X248260000Y-100500000D01*
X245100000Y-105400000D02*
X246000000Y-104500000D01*
X246000000Y-101000000D02*
X246500000Y-100500000D01*
X246000000Y-104500000D02*
X246000000Y-101000000D01*
X243940000Y-105400000D02*
X245100000Y-105400000D01*
G04 #@! TO.N,/LED Matrix/D9*
X175050000Y-109050000D02*
X177840000Y-109050000D01*
X175000000Y-109000000D02*
X175050000Y-109050000D01*
X251460000Y-104540000D02*
X253500000Y-102500000D01*
X251460000Y-105400000D02*
X251460000Y-104540000D01*
G04 #@! TO.N,Net-(D55-DOUT)*
X184850000Y-108650000D02*
X186460000Y-108650000D01*
X182550000Y-113950000D02*
X184000000Y-112500000D01*
X181040000Y-113950000D02*
X182550000Y-113950000D01*
X184000000Y-112500000D02*
X184000000Y-109500000D01*
X184000000Y-109500000D02*
X184850000Y-108650000D01*
G04 #@! TO.N,Net-(D56-DOUT)*
X191450000Y-113550000D02*
X192500000Y-112500000D01*
X192500000Y-112500000D02*
X192500000Y-109500000D01*
X193350000Y-108650000D02*
X194820000Y-108650000D01*
X189660000Y-113550000D02*
X191450000Y-113550000D01*
X192500000Y-109500000D02*
X193350000Y-108650000D01*
G04 #@! TO.N,Net-(D57-DOUT)*
X200000000Y-112500000D02*
X200000000Y-110000000D01*
X201350000Y-108650000D02*
X202560000Y-108650000D01*
X198950000Y-113550000D02*
X200000000Y-112500000D01*
X200000000Y-110000000D02*
X201350000Y-108650000D01*
X198020000Y-113550000D02*
X198950000Y-113550000D01*
G04 #@! TO.N,Net-(D58-DOUT)*
X205760000Y-113550000D02*
X206450000Y-113550000D01*
X206450000Y-113550000D02*
X208000000Y-112000000D01*
X208000000Y-109000000D02*
X208450000Y-108550000D01*
X208000000Y-112000000D02*
X208000000Y-109000000D01*
X208450000Y-108550000D02*
X210640000Y-108550000D01*
G04 #@! TO.N,Net-(D59-DOUT)*
X214550000Y-113450000D02*
X213840000Y-113450000D01*
X216000000Y-112000000D02*
X214550000Y-113450000D01*
X216900000Y-108600000D02*
X216000000Y-109500000D01*
X216000000Y-109500000D02*
X216000000Y-112000000D01*
X218360000Y-108600000D02*
X216900000Y-108600000D01*
G04 #@! TO.N,Net-(D60-DOUT)*
X224000000Y-109500000D02*
X224900000Y-108600000D01*
X223500000Y-112000000D02*
X224000000Y-111500000D01*
X224000000Y-111500000D02*
X224000000Y-109500000D01*
X221560000Y-113500000D02*
X223060000Y-112000000D01*
X223060000Y-112000000D02*
X223500000Y-112000000D01*
X224900000Y-108600000D02*
X225880000Y-108600000D01*
G04 #@! TO.N,Net-(D61-DOUT)*
X229080000Y-113500000D02*
X230500000Y-113500000D01*
X231000000Y-113000000D02*
X231000000Y-110500000D01*
X231000000Y-110500000D02*
X232900000Y-108600000D01*
X230500000Y-113500000D02*
X231000000Y-113000000D01*
X232900000Y-108600000D02*
X233400000Y-108600000D01*
G04 #@! TO.N,Net-(D62-DOUT)*
X239400000Y-108600000D02*
X240740000Y-108600000D01*
X238500000Y-109500000D02*
X239400000Y-108600000D01*
X238500000Y-112500000D02*
X238500000Y-109500000D01*
X236600000Y-113500000D02*
X237500000Y-113500000D01*
X237500000Y-113500000D02*
X238500000Y-112500000D01*
G04 #@! TO.N,/LED Matrix/D10*
X184500000Y-117500000D02*
X185350000Y-116650000D01*
X246440000Y-111000000D02*
X246500000Y-111000000D01*
X185350000Y-116650000D02*
X186500000Y-116650000D01*
X243940000Y-113500000D02*
X246440000Y-111000000D01*
G04 #@! TO.N,Net-(D69-DOUT)*
X192000000Y-120500000D02*
X192000000Y-117500000D01*
X189700000Y-121550000D02*
X190950000Y-121550000D01*
X190950000Y-121550000D02*
X192000000Y-120500000D01*
X192850000Y-116650000D02*
X194860000Y-116650000D01*
X192000000Y-117500000D02*
X192850000Y-116650000D01*
G04 #@! TO.N,Net-(D70-DOUT)*
X200850000Y-116650000D02*
X202600000Y-116650000D01*
X200500000Y-117000000D02*
X200850000Y-116650000D01*
X198060000Y-121550000D02*
X199450000Y-121550000D01*
X199450000Y-121550000D02*
X200500000Y-120500000D01*
X200500000Y-120500000D02*
X200500000Y-117000000D01*
G04 #@! TO.N,Net-(D71-DOUT)*
X208500000Y-117500000D02*
X209450000Y-116550000D01*
X209450000Y-116550000D02*
X210680000Y-116550000D01*
X205800000Y-121550000D02*
X206950000Y-121550000D01*
X206950000Y-121550000D02*
X208500000Y-120000000D01*
X208500000Y-120000000D02*
X208500000Y-117500000D01*
G04 #@! TO.N,Net-(D72-DOUT)*
X214550000Y-121450000D02*
X216500000Y-119500000D01*
X216500000Y-119500000D02*
X216500000Y-117550000D01*
X216500000Y-117550000D02*
X217500000Y-116550000D01*
X213880000Y-121450000D02*
X214550000Y-121450000D01*
X217500000Y-116550000D02*
X218520000Y-116550000D01*
G04 #@! TO.N,Net-(D73-DOUT)*
X223500000Y-117500000D02*
X224450000Y-116550000D01*
X224450000Y-116550000D02*
X226040000Y-116550000D01*
X223500000Y-120500000D02*
X223500000Y-117500000D01*
X221720000Y-121450000D02*
X222550000Y-121450000D01*
X222550000Y-121450000D02*
X223500000Y-120500000D01*
G04 #@! TO.N,Net-(D74-DOUT)*
X232950000Y-116550000D02*
X233560000Y-116550000D01*
X231500000Y-118000000D02*
X232950000Y-116550000D01*
X230550000Y-121450000D02*
X231500000Y-120500000D01*
X231500000Y-120500000D02*
X231500000Y-118000000D01*
X229240000Y-121450000D02*
X230550000Y-121450000D01*
G04 #@! TO.N,/LED Matrix/D11*
X192000000Y-124500000D02*
X192200000Y-124700000D01*
X236760000Y-121450000D02*
X239000000Y-119210000D01*
X192200000Y-124700000D02*
X194880000Y-124700000D01*
X239000000Y-119210000D02*
X239000000Y-118500000D01*
G04 #@! TO.N,Net-(D83-DOUT)*
X200800000Y-124700000D02*
X202620000Y-124700000D01*
X200500000Y-128000000D02*
X200500000Y-125000000D01*
X200500000Y-125000000D02*
X200800000Y-124700000D01*
X198080000Y-129600000D02*
X198900000Y-129600000D01*
X198900000Y-129600000D02*
X200500000Y-128000000D01*
G04 #@! TO.N,Net-(D84-DOUT)*
X208500000Y-127500000D02*
X208500000Y-125000000D01*
X208900000Y-124600000D02*
X210700000Y-124600000D01*
X205820000Y-129600000D02*
X206400000Y-129600000D01*
X206400000Y-129600000D02*
X208500000Y-127500000D01*
X208500000Y-125000000D02*
X208900000Y-124600000D01*
G04 #@! TO.N,Net-(D85-DOUT)*
X213900000Y-129500000D02*
X215500000Y-129500000D01*
X215500000Y-129500000D02*
X216500000Y-128500000D01*
X216500000Y-125500000D02*
X217400000Y-124600000D01*
X216500000Y-128500000D02*
X216500000Y-125500000D01*
X217400000Y-124600000D02*
X218540000Y-124600000D01*
G04 #@! TO.N,Net-(D86-DOUT)*
X224400000Y-124600000D02*
X226060000Y-124600000D01*
X224000000Y-128500000D02*
X224000000Y-125000000D01*
X224000000Y-125000000D02*
X224400000Y-124600000D01*
X223000000Y-129500000D02*
X224000000Y-128500000D01*
X221740000Y-129500000D02*
X223000000Y-129500000D01*
G04 #@! TO.N,/LED Matrix/D12*
X231000000Y-128000000D02*
X229500000Y-129500000D01*
X229500000Y-129500000D02*
X229260000Y-129500000D01*
X201000000Y-133000000D02*
X201200000Y-133200000D01*
X231000000Y-126500000D02*
X231000000Y-128000000D01*
X201200000Y-133200000D02*
X202920000Y-133200000D01*
G04 #@! TO.N,Net-(D97-DOUT)*
X209400000Y-133100000D02*
X211000000Y-133100000D01*
X206120000Y-138100000D02*
X207900000Y-138100000D01*
X208500000Y-137500000D02*
X208500000Y-134000000D01*
X207900000Y-138100000D02*
X208500000Y-137500000D01*
X208500000Y-134000000D02*
X209400000Y-133100000D01*
G04 #@! TO.N,Net-(D98-DOUT)*
X216500000Y-137500000D02*
X216500000Y-134500000D01*
X216000000Y-138000000D02*
X216500000Y-137500000D01*
X216500000Y-134500000D02*
X217900000Y-133100000D01*
X217900000Y-133100000D02*
X218840000Y-133100000D01*
X214200000Y-138000000D02*
X216000000Y-138000000D01*
G04 #@! TO.N,/LED Matrix/D4*
X169780000Y-69000000D02*
X168500000Y-69000000D01*
X245000000Y-65000000D02*
X244600000Y-65400000D01*
X245000000Y-62000000D02*
X245000000Y-65000000D01*
X245500000Y-61500000D02*
X245000000Y-62000000D01*
X244600000Y-65400000D02*
X243740000Y-65400000D01*
G04 #@! TO.N,Net-(D106-DOUT)*
X175500000Y-73500000D02*
X175500000Y-69500000D01*
X173080000Y-74000000D02*
X175000000Y-74000000D01*
X176000000Y-69000000D02*
X177940000Y-69000000D01*
X172980000Y-73900000D02*
X173080000Y-74000000D01*
X175000000Y-74000000D02*
X175500000Y-73500000D01*
X175500000Y-69500000D02*
X176000000Y-69000000D01*
G04 #@! TO.N,Net-(D107-DOUT)*
X183100000Y-73900000D02*
X183500000Y-73500000D01*
X184900000Y-68600000D02*
X186560000Y-68600000D01*
X183500000Y-73500000D02*
X183500000Y-70000000D01*
X181140000Y-73900000D02*
X183100000Y-73900000D01*
X183500000Y-70000000D02*
X184900000Y-68600000D01*
G04 #@! TO.N,Net-(D108-DOUT)*
X192500000Y-69000000D02*
X192900000Y-68600000D01*
X192500000Y-73000000D02*
X192500000Y-69000000D01*
X192900000Y-68600000D02*
X194840000Y-68600000D01*
X189760000Y-73500000D02*
X192000000Y-73500000D01*
X192000000Y-73500000D02*
X192500000Y-73000000D01*
G04 #@! TO.N,Net-(D109-DOUT)*
X198040000Y-73500000D02*
X200000000Y-73500000D01*
X200500000Y-69500000D02*
X201400000Y-68600000D01*
X200000000Y-73500000D02*
X200500000Y-73000000D01*
X201400000Y-68600000D02*
X202580000Y-68600000D01*
X200500000Y-73000000D02*
X200500000Y-69500000D01*
G04 #@! TO.N,Net-(D110-DOUT)*
X207500000Y-73500000D02*
X208000000Y-73000000D01*
X208000000Y-69500000D02*
X209000000Y-68500000D01*
X208000000Y-73000000D02*
X208000000Y-69500000D01*
X205780000Y-73500000D02*
X207500000Y-73500000D01*
X209000000Y-68500000D02*
X210660000Y-68500000D01*
G04 #@! TO.N,Net-(D111-DOUT)*
X215100000Y-73400000D02*
X216000000Y-72500000D01*
X216000000Y-72500000D02*
X216000000Y-69500000D01*
X213860000Y-73400000D02*
X215100000Y-73400000D01*
X216000000Y-69500000D02*
X217000000Y-68500000D01*
X217000000Y-68500000D02*
X218500000Y-68500000D01*
G04 #@! TO.N,Net-(D112-DOUT)*
X221700000Y-73400000D02*
X223100000Y-73400000D01*
X224500000Y-68500000D02*
X226020000Y-68500000D01*
X223100000Y-73400000D02*
X223500000Y-73000000D01*
X223500000Y-73000000D02*
X223500000Y-69500000D01*
X223500000Y-69500000D02*
X224500000Y-68500000D01*
G04 #@! TO.N,Net-(D113-DOUT)*
X231500000Y-69500000D02*
X232500000Y-68500000D01*
X229220000Y-73400000D02*
X230100000Y-73400000D01*
X231500000Y-72000000D02*
X231500000Y-69500000D01*
X230100000Y-73400000D02*
X231500000Y-72000000D01*
X232500000Y-68500000D02*
X233540000Y-68500000D01*
G04 #@! TO.N,Net-(D114-DOUT)*
X236740000Y-73400000D02*
X237600000Y-73400000D01*
X239000000Y-72000000D02*
X239000000Y-69000000D01*
X237600000Y-73400000D02*
X239000000Y-72000000D01*
X239000000Y-69000000D02*
X239500000Y-68500000D01*
X239500000Y-68500000D02*
X240880000Y-68500000D01*
G04 #@! TO.N,Net-(D115-DOUT)*
X246000000Y-72500000D02*
X246000000Y-69500000D01*
X247000000Y-68500000D02*
X248400000Y-68500000D01*
X245100000Y-73400000D02*
X246000000Y-72500000D01*
X246000000Y-69500000D02*
X247000000Y-68500000D01*
X244080000Y-73400000D02*
X245100000Y-73400000D01*
G04 #@! TO.N,/LED Matrix/D3*
X175500000Y-60500000D02*
X176000000Y-60500000D01*
X237100000Y-57400000D02*
X238000000Y-56500000D01*
X176000000Y-60500000D02*
X176500000Y-61000000D01*
X238000000Y-56500000D02*
X238000000Y-54500000D01*
X176500000Y-61000000D02*
X177820000Y-61000000D01*
X238500000Y-54000000D02*
X239000000Y-53500000D01*
X238000000Y-54500000D02*
X238500000Y-54000000D01*
X236480000Y-57400000D02*
X237100000Y-57400000D01*
G04 #@! TO.N,Net-(D120-DOUT)*
X184900000Y-60600000D02*
X186440000Y-60600000D01*
X184000000Y-61500000D02*
X184900000Y-60600000D01*
X183100000Y-65900000D02*
X184000000Y-65000000D01*
X181020000Y-65900000D02*
X183100000Y-65900000D01*
X184000000Y-65000000D02*
X184000000Y-61500000D01*
G04 #@! TO.N,Net-(D121-DOUT)*
X192000000Y-65500000D02*
X192500000Y-65000000D01*
X192500000Y-65000000D02*
X192500000Y-61500000D01*
X193400000Y-60600000D02*
X194800000Y-60600000D01*
X189640000Y-65500000D02*
X192000000Y-65500000D01*
X192500000Y-61500000D02*
X193400000Y-60600000D01*
G04 #@! TO.N,Net-(D122-DOUT)*
X198000000Y-65500000D02*
X199500000Y-65500000D01*
X200000000Y-62000000D02*
X201400000Y-60600000D01*
X200000000Y-65000000D02*
X200000000Y-62000000D01*
X199500000Y-65500000D02*
X200000000Y-65000000D01*
X201400000Y-60600000D02*
X202240000Y-60600000D01*
G04 #@! TO.N,Net-(D123-DOUT)*
X208000000Y-65000000D02*
X208000000Y-61500000D01*
X208000000Y-61500000D02*
X208900000Y-60600000D01*
X207500000Y-65500000D02*
X208000000Y-65000000D01*
X208900000Y-60600000D02*
X210300000Y-60600000D01*
X205440000Y-65500000D02*
X207500000Y-65500000D01*
G04 #@! TO.N,Net-(D124-DOUT)*
X215500000Y-61500000D02*
X216500000Y-60500000D01*
X215500000Y-65000000D02*
X215500000Y-61500000D01*
X216500000Y-60500000D02*
X218160000Y-60500000D01*
X215000000Y-65500000D02*
X215500000Y-65000000D01*
X213500000Y-65500000D02*
X215000000Y-65500000D01*
G04 #@! TO.N,Net-(D125-DOUT)*
X222100000Y-65400000D02*
X223500000Y-64000000D01*
X224000000Y-60500000D02*
X225680000Y-60500000D01*
X221360000Y-65400000D02*
X222100000Y-65400000D01*
X223500000Y-61000000D02*
X224000000Y-60500000D01*
X223500000Y-64000000D02*
X223500000Y-61000000D01*
G04 #@! TO.N,Net-(D126-DOUT)*
X231000000Y-61500000D02*
X232000000Y-60500000D01*
X232000000Y-60500000D02*
X233200000Y-60500000D01*
X231000000Y-64500000D02*
X231000000Y-61500000D01*
X230100000Y-65400000D02*
X231000000Y-64500000D01*
X228880000Y-65400000D02*
X230100000Y-65400000D01*
G04 #@! TO.N,Net-(D127-DOUT)*
X237100000Y-65400000D02*
X238500000Y-64000000D01*
X236400000Y-65400000D02*
X237100000Y-65400000D01*
X239000000Y-60500000D02*
X240540000Y-60500000D01*
X238500000Y-64000000D02*
X238500000Y-61000000D01*
X238500000Y-61000000D02*
X239000000Y-60500000D01*
G04 #@! TO.N,Net-(D134-DOUT)*
X192000000Y-56500000D02*
X192000000Y-54500000D01*
X189700000Y-57500000D02*
X191000000Y-57500000D01*
X191000000Y-57500000D02*
X192000000Y-56500000D01*
X192000000Y-54500000D02*
X193900000Y-52600000D01*
X193900000Y-52600000D02*
X194860000Y-52600000D01*
G04 #@! TO.N,/LED Matrix/D2*
X231000000Y-45500000D02*
X231500000Y-45000000D01*
X186500000Y-50500000D02*
X186500000Y-52600000D01*
X228940000Y-49800000D02*
X230200000Y-49800000D01*
X230200000Y-49800000D02*
X231000000Y-49000000D01*
X231000000Y-49000000D02*
X231000000Y-45500000D01*
G04 #@! TO.N,Net-(D135-DOUT)*
X200500000Y-53500000D02*
X201400000Y-52600000D01*
X198060000Y-57500000D02*
X199500000Y-57500000D01*
X201400000Y-52600000D02*
X202600000Y-52600000D01*
X200500000Y-56500000D02*
X200500000Y-53500000D01*
X199500000Y-57500000D02*
X200500000Y-56500000D01*
G04 #@! TO.N,Net-(D136-DOUT)*
X209000000Y-52500000D02*
X210680000Y-52500000D01*
X208000000Y-56500000D02*
X208000000Y-53500000D01*
X207000000Y-57500000D02*
X208000000Y-56500000D01*
X205800000Y-57500000D02*
X207000000Y-57500000D01*
X208000000Y-53500000D02*
X209000000Y-52500000D01*
G04 #@! TO.N,Net-(D137-DOUT)*
X213880000Y-57400000D02*
X215100000Y-57400000D01*
X216000000Y-56500000D02*
X216000000Y-53000000D01*
X215100000Y-57400000D02*
X216000000Y-56500000D01*
X216500000Y-52500000D02*
X218520000Y-52500000D01*
X216000000Y-53000000D02*
X216500000Y-52500000D01*
G04 #@! TO.N,Net-(D138-DOUT)*
X223500000Y-56500000D02*
X223500000Y-53500000D01*
X222600000Y-57400000D02*
X223500000Y-56500000D01*
X224500000Y-52500000D02*
X225760000Y-52500000D01*
X223500000Y-53500000D02*
X224500000Y-52500000D01*
X221720000Y-57400000D02*
X222600000Y-57400000D01*
G04 #@! TO.N,Net-(D139-DOUT)*
X232000000Y-52500000D02*
X233280000Y-52500000D01*
X230100000Y-57400000D02*
X231000000Y-56500000D01*
X228960000Y-57400000D02*
X230100000Y-57400000D01*
X231000000Y-53500000D02*
X232000000Y-52500000D01*
X231000000Y-56500000D02*
X231000000Y-53500000D01*
G04 #@! TO.N,Net-(D148-DOUT)*
X197760000Y-49900000D02*
X199100000Y-49900000D01*
X200000000Y-46500000D02*
X201500000Y-45000000D01*
X199100000Y-49900000D02*
X200000000Y-49000000D01*
X200000000Y-49000000D02*
X200000000Y-46500000D01*
X201500000Y-45000000D02*
X202300000Y-45000000D01*
G04 #@! TO.N,/LED Matrix/D1*
X192500000Y-45000000D02*
X194560000Y-45000000D01*
X192000000Y-44500000D02*
X192500000Y-45000000D01*
X223000000Y-41500000D02*
X223000000Y-37000000D01*
X223000000Y-37000000D02*
X224000000Y-36000000D01*
X224000000Y-36000000D02*
X225000000Y-36000000D01*
X222700000Y-41800000D02*
X223000000Y-41500000D01*
X221620000Y-41800000D02*
X222700000Y-41800000D01*
G04 #@! TO.N,Net-(D149-DOUT)*
X208000000Y-46500000D02*
X209600000Y-44900000D01*
X208000000Y-49000000D02*
X208000000Y-46500000D01*
X209600000Y-44900000D02*
X210380000Y-44900000D01*
X205500000Y-49900000D02*
X207100000Y-49900000D01*
X207100000Y-49900000D02*
X208000000Y-49000000D01*
G04 #@! TO.N,Net-(D150-DOUT)*
X216000000Y-45500000D02*
X216600000Y-44900000D01*
X213580000Y-49800000D02*
X214200000Y-49800000D01*
X214200000Y-49800000D02*
X216000000Y-48000000D01*
X216600000Y-44900000D02*
X218220000Y-44900000D01*
X216000000Y-48000000D02*
X216000000Y-45500000D01*
G04 #@! TO.N,Net-(D151-DOUT)*
X223500000Y-49000000D02*
X223500000Y-46000000D01*
X224600000Y-44900000D02*
X225740000Y-44900000D01*
X222700000Y-49800000D02*
X223500000Y-49000000D01*
X221420000Y-49800000D02*
X222700000Y-49800000D01*
X223500000Y-46000000D02*
X224600000Y-44900000D01*
G04 #@! TO.N,/LED Matrix/DIN*
X194900000Y-39100000D02*
X193000000Y-39100000D01*
X197000000Y-37000000D02*
X194900000Y-39100000D01*
X202500000Y-37000000D02*
X200500000Y-37000000D01*
G04 #@! TO.N,Net-(D162-DOUT)*
X208000000Y-37500000D02*
X208600000Y-36900000D01*
X208600000Y-36900000D02*
X210580000Y-36900000D01*
X207100000Y-41900000D02*
X208000000Y-41000000D01*
X205700000Y-41900000D02*
X207100000Y-41900000D01*
X208000000Y-41000000D02*
X208000000Y-37500000D01*
G04 #@! TO.N,Net-(D163-DOUT)*
X217600000Y-36900000D02*
X218420000Y-36900000D01*
X216000000Y-38500000D02*
X217600000Y-36900000D01*
X216000000Y-41000000D02*
X216000000Y-38500000D01*
X215200000Y-41800000D02*
X216000000Y-41000000D01*
X213780000Y-41800000D02*
X215200000Y-41800000D01*
G04 #@! TO.N,+5V*
X248000000Y-106739000D02*
X240500000Y-106739000D01*
X194840000Y-73500000D02*
X194840000Y-74391000D01*
X178080000Y-99420000D02*
X178000000Y-99500000D01*
X249000000Y-99000000D02*
X241500000Y-99000000D01*
X197625000Y-136375000D02*
X196500000Y-137500000D01*
X210700000Y-129500000D02*
X210700000Y-129800000D01*
X195000000Y-131000000D02*
X193500000Y-131000000D01*
X233400000Y-114900000D02*
X233500000Y-115000000D01*
D34*
X174035000Y-112500000D02*
X174260000Y-112275000D01*
D33*
X240740000Y-113500000D02*
X240740000Y-114740000D01*
X196000000Y-39000000D02*
X197100000Y-40100000D01*
D34*
X160500000Y-59500000D02*
X160000000Y-59500000D01*
D33*
X240740000Y-105400000D02*
X240740000Y-106499000D01*
X231500000Y-50500000D02*
X231500000Y-47500000D01*
X238500000Y-55500000D02*
X238500000Y-58500000D01*
X218500000Y-74051000D02*
X218000000Y-74551000D01*
X191000000Y-48375000D02*
X187875000Y-48375000D01*
X178500000Y-91500000D02*
X183500000Y-91500000D01*
X169700000Y-105900000D02*
X169700000Y-107300000D01*
X180150000Y-55650000D02*
X182760000Y-55650000D01*
X183500000Y-91500000D02*
X184000000Y-91000000D01*
X210640000Y-113450000D02*
X210640000Y-114860000D01*
X210640000Y-114860000D02*
X210500000Y-115000000D01*
X200950000Y-121550000D02*
X199500000Y-123000000D01*
X226180000Y-90820000D02*
X226000000Y-91000000D01*
X194820000Y-113550000D02*
X194820000Y-114820000D01*
X186460000Y-113550000D02*
X186460000Y-114960000D01*
X225760000Y-57760000D02*
X225760000Y-57400000D01*
X210500000Y-91000000D02*
X218500000Y-91000000D01*
X178200000Y-82151000D02*
X179000000Y-82951000D01*
X187000000Y-106739000D02*
X183761000Y-106739000D01*
X195000000Y-89500000D02*
X195000000Y-91000000D01*
X242000000Y-82951000D02*
X234500000Y-82951000D01*
X226060000Y-129500000D02*
X226060000Y-130560000D01*
X233500000Y-123000000D02*
X238000000Y-123000000D01*
X261500000Y-79725000D02*
X261500000Y-81500000D01*
D34*
X152000000Y-58000000D02*
X156500000Y-53500000D01*
D33*
X160600000Y-89900000D02*
X159750000Y-90750000D01*
X183000000Y-99500000D02*
X178000000Y-99500000D01*
X240740000Y-114740000D02*
X241000000Y-115000000D01*
X176000000Y-75401000D02*
X176000000Y-76500000D01*
X197100000Y-40100000D02*
X199120000Y-40100000D01*
X194880000Y-129600000D02*
X194880000Y-129620000D01*
X167000000Y-74000000D02*
X167100000Y-73900000D01*
X251739000Y-106739000D02*
X248000000Y-106739000D01*
X183761000Y-106739000D02*
X183000000Y-107500000D01*
D34*
X169750000Y-62750000D02*
X166500000Y-59500000D01*
D33*
X246500000Y-114000000D02*
X246500000Y-113500000D01*
X199420000Y-138420000D02*
X199420000Y-136375000D01*
X195000000Y-74551000D02*
X184551000Y-74551000D01*
X193809000Y-58551000D02*
X187551000Y-58551000D01*
X183000000Y-107500000D02*
X178000000Y-107500000D01*
X194820000Y-114820000D02*
X195000000Y-115000000D01*
X196000000Y-123000000D02*
X199500000Y-123000000D01*
X194880000Y-130880000D02*
X195000000Y-131000000D01*
X202500000Y-74551000D02*
X195000000Y-74551000D01*
X184000000Y-91000000D02*
X187500000Y-91000000D01*
X170040000Y-81991000D02*
X171000000Y-82951000D01*
X210000000Y-106739000D02*
X203000000Y-106739000D01*
X199120000Y-40100000D02*
X199120000Y-41000000D01*
X202300000Y-50800000D02*
X202500000Y-51000000D01*
X218800000Y-81400000D02*
X218800000Y-82251000D01*
D34*
X191375000Y-128000000D02*
X191500000Y-127875000D01*
D33*
X169860000Y-89900000D02*
X171000000Y-91040000D01*
X178000000Y-115500000D02*
X182000000Y-115500000D01*
X224000000Y-39000000D02*
X224550000Y-38450000D01*
X226240000Y-98740000D02*
X226500000Y-99000000D01*
X211000000Y-82451000D02*
X211500000Y-82951000D01*
X218000000Y-66951000D02*
X210000000Y-66951000D01*
X162020000Y-89900000D02*
X160600000Y-89900000D01*
X194860000Y-121860000D02*
X196000000Y-123000000D01*
X233540000Y-73591000D02*
X234500000Y-74551000D01*
X232275000Y-46725000D02*
X232700000Y-46725000D01*
X225680000Y-65400000D02*
X225680000Y-66771000D01*
X202300000Y-49900000D02*
X202300000Y-50800000D01*
X183600000Y-75600000D02*
X176000000Y-75600000D01*
X240100000Y-54500000D02*
X239500000Y-54500000D01*
X202920000Y-138100000D02*
X202920000Y-139080000D01*
X210500000Y-43000000D02*
X218500000Y-43000000D01*
X191000000Y-50500000D02*
X191500000Y-51000000D01*
X183260000Y-120760000D02*
X185500000Y-123000000D01*
X198500000Y-41000000D02*
X198000000Y-41000000D01*
X241000000Y-97450000D02*
X241000000Y-98500000D01*
X226060000Y-129500000D02*
X226500000Y-129500000D01*
X191500000Y-129500000D02*
X191500000Y-127875000D01*
X183260000Y-119875000D02*
X183260000Y-120760000D01*
X256500000Y-99000000D02*
X249000000Y-99000000D01*
X178000000Y-107500000D02*
X169500000Y-107500000D01*
X261500000Y-98000000D02*
X260500000Y-99000000D01*
D34*
X198720000Y-40500000D02*
X199120000Y-40100000D01*
D33*
X202560000Y-113550000D02*
X202560000Y-114940000D01*
X218500000Y-139500000D02*
X210000000Y-139500000D01*
X178871000Y-66951000D02*
X177820000Y-65900000D01*
X255220000Y-70000000D02*
X253601000Y-71619000D01*
X198000000Y-41000000D02*
X197500000Y-40500000D01*
X240880000Y-73671000D02*
X240000000Y-74551000D01*
X253449000Y-74551000D02*
X248000000Y-74551000D01*
X216920000Y-59000000D02*
X212280000Y-59000000D01*
X210000000Y-66951000D02*
X202000000Y-66951000D01*
X219000000Y-99000000D02*
X211000000Y-99000000D01*
X194860000Y-57500000D02*
X193809000Y-58551000D01*
X225500000Y-106739000D02*
X217500000Y-106739000D01*
X233500000Y-115000000D02*
X241000000Y-115000000D01*
X193500000Y-131000000D02*
X193000000Y-131000000D01*
X184000000Y-74000000D02*
X184500000Y-73500000D01*
X195000000Y-66951000D02*
X186500000Y-66951000D01*
X254000000Y-106000000D02*
X253000000Y-107000000D01*
X194800000Y-65500000D02*
X194800000Y-66751000D01*
X162500000Y-82200000D02*
X162500000Y-82951000D01*
X194880000Y-129600000D02*
X194880000Y-130880000D01*
X226320000Y-81400000D02*
X226320000Y-82271000D01*
X198500000Y-42000000D02*
X199500000Y-42000000D01*
X245049000Y-66951000D02*
X240000000Y-66951000D01*
X218500000Y-73400000D02*
X218500000Y-74051000D01*
X187500000Y-91000000D02*
X195000000Y-91000000D01*
X233700000Y-90300000D02*
X233000000Y-91000000D01*
X218720000Y-97400000D02*
X218720000Y-98720000D01*
X195060000Y-98940000D02*
X195000000Y-99000000D01*
X159750000Y-90750000D02*
X160500000Y-91500000D01*
D34*
X163275000Y-71775000D02*
X167000000Y-71775000D01*
D33*
X225880000Y-106359000D02*
X225500000Y-106739000D01*
X199120000Y-41000000D02*
X198500000Y-41000000D01*
X194840000Y-74391000D02*
X195000000Y-74551000D01*
X191000000Y-48375000D02*
X191000000Y-50500000D01*
X225680000Y-66771000D02*
X225500000Y-66951000D01*
X227000000Y-82951000D02*
X219500000Y-82951000D01*
X261500000Y-95950000D02*
X261500000Y-98000000D01*
X218360000Y-105400000D02*
X218360000Y-105879000D01*
X202800000Y-97500000D02*
X202800000Y-98800000D01*
X211000000Y-138000000D02*
X211000000Y-138500000D01*
X186640000Y-89500000D02*
X186640000Y-90140000D01*
X167000000Y-74000000D02*
X167000000Y-71775000D01*
X218540000Y-129500000D02*
X218540000Y-130960000D01*
X263000000Y-78225000D02*
X261500000Y-79725000D01*
X169700000Y-107300000D02*
X169500000Y-107500000D01*
X231000000Y-128567100D02*
X231000000Y-130500000D01*
X218520000Y-121450000D02*
X218520000Y-122980000D01*
X195180000Y-81631000D02*
X196500000Y-82951000D01*
X195000000Y-91000000D02*
X202000000Y-91000000D01*
X186820000Y-81500000D02*
X186820000Y-82271000D01*
X261500000Y-88225000D02*
X263000000Y-86725000D01*
X202500000Y-41900000D02*
X202500000Y-43000000D01*
D34*
X164000000Y-107500000D02*
X167000000Y-104500000D01*
D33*
X198000000Y-42000000D02*
X198000000Y-41000000D01*
X233540000Y-73400000D02*
X233540000Y-73591000D01*
X218500000Y-115000000D02*
X218360000Y-114860000D01*
X210820000Y-90680000D02*
X210500000Y-91000000D01*
X256100000Y-81400000D02*
X256100000Y-82051000D01*
X225740000Y-49800000D02*
X225740000Y-50740000D01*
X170000000Y-99500000D02*
X162000000Y-99500000D01*
X177840000Y-113950000D02*
X177840000Y-115340000D01*
X248000000Y-74551000D02*
X240000000Y-74551000D01*
X158500000Y-88275000D02*
X158500000Y-89500000D01*
X178000000Y-99500000D02*
X170000000Y-99500000D01*
D34*
X158450000Y-80000000D02*
X158500000Y-80050000D01*
D33*
X223500000Y-43000000D02*
X224000000Y-42500000D01*
X226040000Y-122960000D02*
X226000000Y-123000000D01*
X199120000Y-41620000D02*
X198620000Y-41620000D01*
D34*
X156500000Y-53500000D02*
X159000000Y-53500000D01*
D33*
X195180000Y-81500000D02*
X195180000Y-81631000D01*
X233660000Y-98160000D02*
X234500000Y-99000000D01*
X167000000Y-106500000D02*
X167000000Y-104500000D01*
X239000000Y-120000000D02*
X240600000Y-118400000D01*
X186440000Y-65500000D02*
X186440000Y-66891000D01*
X225880000Y-114880000D02*
X226000000Y-115000000D01*
X202580000Y-74471000D02*
X202500000Y-74551000D01*
X186500000Y-121550000D02*
X186500000Y-123000000D01*
X199420000Y-136375000D02*
X197625000Y-136375000D01*
X218840000Y-139160000D02*
X218500000Y-139500000D01*
X226000000Y-115000000D02*
X233500000Y-115000000D01*
X261500000Y-81500000D02*
X260049000Y-82951000D01*
X219571000Y-58451000D02*
X218520000Y-57400000D01*
X226500000Y-134950000D02*
X225762000Y-134950000D01*
X218520000Y-57400000D02*
X216920000Y-59000000D01*
X203000000Y-99000000D02*
X195000000Y-99000000D01*
X199120000Y-41000000D02*
X199120000Y-41620000D01*
X238500000Y-58500000D02*
X238000000Y-59000000D01*
X240540000Y-66411000D02*
X240000000Y-66951000D01*
X199120000Y-41000000D02*
X199120000Y-41500000D01*
X187500000Y-82951000D02*
X179000000Y-82951000D01*
X193000000Y-131000000D02*
X191500000Y-129500000D01*
X210500000Y-51000000D02*
X218500000Y-51000000D01*
X186700000Y-97500000D02*
X186700000Y-98800000D01*
D34*
X156000000Y-89000000D02*
X157775000Y-89000000D01*
D33*
X177840000Y-115340000D02*
X178000000Y-115500000D01*
X226000000Y-123000000D02*
X233500000Y-123000000D01*
X218500000Y-131000000D02*
X209500000Y-131000000D01*
X167100000Y-73900000D02*
X169780000Y-73900000D01*
X186500000Y-115000000D02*
X195000000Y-115000000D01*
X176000000Y-75600000D02*
X176000000Y-75401000D01*
X195060000Y-97500000D02*
X195060000Y-98940000D01*
X218840000Y-138000000D02*
X218840000Y-139160000D01*
X186700000Y-98800000D02*
X186500000Y-99000000D01*
X240540000Y-65400000D02*
X240540000Y-66411000D01*
X211000000Y-138500000D02*
X210000000Y-139500000D01*
D34*
X162000000Y-70500000D02*
X163275000Y-71775000D01*
D33*
X263000000Y-94450000D02*
X261500000Y-95950000D01*
X241000000Y-115000000D02*
X245500000Y-115000000D01*
X203000000Y-106739000D02*
X195000000Y-106739000D01*
X226240000Y-97400000D02*
X226240000Y-98740000D01*
X248280000Y-90720000D02*
X248000000Y-91000000D01*
X186640000Y-90140000D02*
X187500000Y-91000000D01*
X226000000Y-91000000D02*
X233000000Y-91000000D01*
X241180000Y-82131000D02*
X242000000Y-82951000D01*
X249500000Y-82951000D02*
X242000000Y-82951000D01*
X210500000Y-74551000D02*
X202500000Y-74551000D01*
D34*
X166500000Y-59500000D02*
X160500000Y-59500000D01*
D33*
X202920000Y-81500000D02*
X202920000Y-82871000D01*
X234500000Y-99000000D02*
X226500000Y-99000000D01*
X248700000Y-82151000D02*
X249500000Y-82951000D01*
X224709000Y-58451000D02*
X219571000Y-58451000D01*
X194560000Y-50940000D02*
X194560000Y-49900000D01*
X252000000Y-107000000D02*
X251739000Y-106739000D01*
X174260000Y-112760000D02*
X177000000Y-115500000D01*
D34*
X155500000Y-68000000D02*
X152000000Y-64500000D01*
D33*
X226500000Y-99000000D02*
X219000000Y-99000000D01*
D34*
X188500000Y-128000000D02*
X191375000Y-128000000D01*
D33*
X226060000Y-130560000D02*
X226500000Y-131000000D01*
X234500000Y-74551000D02*
X226000000Y-74551000D01*
X227000000Y-59000000D02*
X225760000Y-57760000D01*
X158500000Y-97500000D02*
X160500000Y-99500000D01*
X199120000Y-41620000D02*
X199500000Y-42000000D01*
X210380000Y-49800000D02*
X210380000Y-50880000D01*
X255680000Y-89400000D02*
X255680000Y-90820000D01*
X247016450Y-111753550D02*
X248320000Y-110450000D01*
X253000000Y-107000000D02*
X252000000Y-107000000D01*
X182000000Y-115500000D02*
X182500000Y-115000000D01*
X248400000Y-74151000D02*
X248000000Y-74551000D01*
X234880000Y-59000000D02*
X233280000Y-57400000D01*
X211000000Y-99000000D02*
X203000000Y-99000000D01*
X195911000Y-58551000D02*
X194860000Y-57500000D01*
X194880000Y-129620000D02*
X193500000Y-131000000D01*
X200500000Y-43000000D02*
X202500000Y-43000000D01*
D34*
X169750000Y-62750000D02*
X171550000Y-64550000D01*
D33*
X202500000Y-51000000D02*
X210500000Y-51000000D01*
X239500000Y-54500000D02*
X238500000Y-55500000D01*
X202000000Y-66951000D02*
X195000000Y-66951000D01*
X210520000Y-106219000D02*
X210000000Y-106739000D01*
X198000000Y-42000000D02*
X198500000Y-42000000D01*
X226000000Y-51000000D02*
X231000000Y-51000000D01*
X241500000Y-99000000D02*
X234500000Y-99000000D01*
X241040000Y-89400000D02*
X241040000Y-90460000D01*
X218160000Y-66791000D02*
X218000000Y-66951000D01*
X233280000Y-57400000D02*
X233100000Y-57400000D01*
X210880000Y-97400000D02*
X210880000Y-98880000D01*
X255500000Y-91000000D02*
X260000000Y-91000000D01*
X210660000Y-74391000D02*
X210500000Y-74551000D01*
X202740000Y-89500000D02*
X202740000Y-90260000D01*
X210000000Y-139500000D02*
X202500000Y-139500000D01*
X253601000Y-71619000D02*
X253601000Y-74399000D01*
X186500000Y-66951000D02*
X178871000Y-66951000D01*
X209500000Y-131000000D02*
X202500000Y-131000000D01*
X233840000Y-82291000D02*
X234500000Y-82951000D01*
X233200000Y-126225000D02*
X233200000Y-126367100D01*
X245500000Y-66500000D02*
X245049000Y-66951000D01*
X260049000Y-82951000D02*
X257000000Y-82951000D01*
X202600000Y-121550000D02*
X200950000Y-121550000D01*
X177000000Y-115500000D02*
X178000000Y-115500000D01*
X233560000Y-121450000D02*
X233560000Y-122940000D01*
X209130000Y-123000000D02*
X218500000Y-123000000D01*
X218540000Y-130960000D02*
X218500000Y-131000000D01*
X177860000Y-107360000D02*
X178000000Y-107500000D01*
X194500000Y-51000000D02*
X194560000Y-50940000D01*
X171000000Y-82951000D02*
X162500000Y-82951000D01*
X202500000Y-43000000D02*
X208000000Y-43000000D01*
X218160000Y-65400000D02*
X218160000Y-66791000D01*
X178020000Y-89900000D02*
X178020000Y-91020000D01*
X224000000Y-42500000D02*
X224000000Y-39000000D01*
X186460000Y-114960000D02*
X186500000Y-115000000D01*
X218360000Y-105879000D02*
X217500000Y-106739000D01*
X202500000Y-139500000D02*
X200500000Y-139500000D01*
X248000000Y-91000000D02*
X255500000Y-91000000D01*
X241000000Y-98500000D02*
X241500000Y-99000000D01*
X210660000Y-73400000D02*
X210660000Y-74391000D01*
X169920000Y-99420000D02*
X170000000Y-99500000D01*
X186500000Y-99000000D02*
X183500000Y-99000000D01*
X218420000Y-42920000D02*
X218500000Y-43000000D01*
X230500000Y-131000000D02*
X226500000Y-131000000D01*
X226020000Y-74531000D02*
X226000000Y-74551000D01*
X176000000Y-75600000D02*
X167500000Y-75600000D01*
X162080000Y-99420000D02*
X162080000Y-97900000D01*
X202920000Y-82871000D02*
X203000000Y-82951000D01*
X238000000Y-123000000D02*
X239000000Y-122000000D01*
X177840000Y-74000000D02*
X177940000Y-73900000D01*
X184610000Y-57500000D02*
X182760000Y-55650000D01*
X178500000Y-54000000D02*
X180150000Y-55650000D01*
X240500000Y-91000000D02*
X248000000Y-91000000D01*
X195000000Y-115000000D02*
X202500000Y-115000000D01*
X194840000Y-106579000D02*
X195000000Y-106739000D01*
X231000000Y-51000000D02*
X231500000Y-50500000D01*
X225500000Y-66951000D02*
X218000000Y-66951000D01*
X261500000Y-89500000D02*
X261500000Y-88225000D01*
X247320000Y-62000000D02*
X245500000Y-63820000D01*
X158500000Y-82000000D02*
X158500000Y-80050000D01*
X240880000Y-73400000D02*
X240880000Y-73671000D01*
X240740000Y-106499000D02*
X240500000Y-106739000D01*
X256500000Y-98030000D02*
X255920000Y-97450000D01*
X184500000Y-73500000D02*
X186560000Y-73500000D01*
X225880000Y-105400000D02*
X225880000Y-106359000D01*
X218520000Y-122980000D02*
X218500000Y-123000000D01*
X226320000Y-82271000D02*
X227000000Y-82951000D01*
D34*
X158275000Y-96500000D02*
X158500000Y-96275000D01*
D33*
X202740000Y-90260000D02*
X202000000Y-91000000D01*
X183500000Y-99000000D02*
X183000000Y-99500000D01*
X178200000Y-81900000D02*
X178200000Y-82151000D01*
D34*
X163500000Y-100500000D02*
X164500000Y-101500000D01*
D33*
X225760000Y-57400000D02*
X224709000Y-58451000D01*
X187875000Y-48375000D02*
X186000000Y-46500000D01*
X233660000Y-97450000D02*
X233660000Y-98160000D01*
X202560000Y-114940000D02*
X202500000Y-115000000D01*
X208000000Y-43000000D02*
X210500000Y-43000000D01*
X158500000Y-97500000D02*
X158500000Y-96275000D01*
X186500000Y-123000000D02*
X196000000Y-123000000D01*
X169920000Y-97900000D02*
X169920000Y-99420000D01*
D34*
X168500000Y-112500000D02*
X174035000Y-112500000D01*
D33*
X225740000Y-50740000D02*
X226000000Y-51000000D01*
X225000000Y-138500000D02*
X224000000Y-139500000D01*
X178020000Y-91020000D02*
X178500000Y-91500000D01*
X239000000Y-122000000D02*
X239000000Y-120000000D01*
X218500000Y-91000000D02*
X226000000Y-91000000D01*
X210380000Y-50880000D02*
X210500000Y-51000000D01*
X202500000Y-131000000D02*
X195000000Y-131000000D01*
X260000000Y-91000000D02*
X261500000Y-89500000D01*
X232500000Y-106739000D02*
X225500000Y-106739000D01*
X210820000Y-89400000D02*
X210820000Y-90680000D01*
D34*
X171550000Y-64550000D02*
X174260000Y-64550000D01*
D33*
X233400000Y-105400000D02*
X233400000Y-105839000D01*
X233100000Y-57400000D02*
X231500000Y-59000000D01*
X204100000Y-59000000D02*
X202600000Y-57500000D01*
X246500000Y-113500000D02*
X246000000Y-113000000D01*
X199500000Y-42000000D02*
X200500000Y-43000000D01*
X234500000Y-82951000D02*
X227000000Y-82951000D01*
X201549000Y-58551000D02*
X195911000Y-58551000D01*
X194860000Y-121550000D02*
X194860000Y-121860000D01*
X211500000Y-82951000D02*
X203000000Y-82951000D01*
D34*
X152000000Y-64500000D02*
X152000000Y-58000000D01*
D33*
X202000000Y-91000000D02*
X210500000Y-91000000D01*
X159451000Y-82951000D02*
X158500000Y-82000000D01*
X218660000Y-89400000D02*
X218660000Y-90840000D01*
X210580000Y-41800000D02*
X210580000Y-42920000D01*
D34*
X156000000Y-80000000D02*
X158450000Y-80000000D01*
D33*
X218500000Y-51000000D02*
X226000000Y-51000000D01*
X186440000Y-66891000D02*
X186500000Y-66951000D01*
X225762000Y-134950000D02*
X225000000Y-135712000D01*
X210680000Y-121450000D02*
X209130000Y-123000000D01*
D34*
X155500000Y-100500000D02*
X163500000Y-100500000D01*
D33*
X245500000Y-63820000D02*
X245500000Y-66500000D01*
X210300000Y-66651000D02*
X210000000Y-66951000D01*
X210300000Y-65500000D02*
X210300000Y-66651000D01*
X212280000Y-59000000D02*
X210680000Y-57400000D01*
X171000000Y-91040000D02*
X171000000Y-91500000D01*
X196500000Y-82951000D02*
X187500000Y-82951000D01*
X208500000Y-42500000D02*
X208500000Y-42000000D01*
X194500000Y-51000000D02*
X202500000Y-51000000D01*
X253500000Y-74500000D02*
X253449000Y-74551000D01*
X184551000Y-74551000D02*
X184000000Y-74000000D01*
X202600000Y-57500000D02*
X201549000Y-58551000D01*
D34*
X156000000Y-68000000D02*
X155500000Y-68000000D01*
D33*
X218000000Y-74551000D02*
X210500000Y-74551000D01*
X226000000Y-74551000D02*
X218000000Y-74551000D01*
X253601000Y-74399000D02*
X253500000Y-74500000D01*
X195000000Y-106739000D02*
X187000000Y-106739000D01*
X158500000Y-89500000D02*
X159750000Y-90750000D01*
X217500000Y-106739000D02*
X210000000Y-106739000D01*
X248700000Y-81400000D02*
X248700000Y-82151000D01*
X233000000Y-91000000D02*
X240500000Y-91000000D01*
X178080000Y-97900000D02*
X178080000Y-99420000D01*
X210880000Y-98880000D02*
X211000000Y-99000000D01*
X231500000Y-47500000D02*
X232275000Y-46725000D01*
X210680000Y-57400000D02*
X209080000Y-59000000D01*
X233200000Y-66751000D02*
X233000000Y-66951000D01*
X257000000Y-82951000D02*
X249500000Y-82951000D01*
X245500000Y-115000000D02*
X246500000Y-114000000D01*
X218360000Y-114860000D02*
X218360000Y-113500000D01*
X194800000Y-66751000D02*
X195000000Y-66951000D01*
X187551000Y-58551000D02*
X186500000Y-57500000D01*
X226040000Y-121450000D02*
X226040000Y-122960000D01*
X186480000Y-106219000D02*
X187000000Y-106739000D01*
X248280000Y-89400000D02*
X248280000Y-90720000D01*
X210580000Y-42920000D02*
X210500000Y-43000000D01*
X202620000Y-129600000D02*
X202620000Y-130880000D01*
D34*
X181635000Y-121500000D02*
X183260000Y-119875000D01*
D33*
X238000000Y-59000000D02*
X234880000Y-59000000D01*
X241040000Y-90460000D02*
X240500000Y-91000000D01*
X202500000Y-115000000D02*
X210500000Y-115000000D01*
X184000000Y-76000000D02*
X183600000Y-75600000D01*
X177860000Y-105900000D02*
X177860000Y-107360000D01*
X246000000Y-112007100D02*
X246253550Y-111753550D01*
X182500000Y-115000000D02*
X186500000Y-115000000D01*
X255680000Y-90820000D02*
X255500000Y-91000000D01*
X254000000Y-103445000D02*
X254000000Y-106000000D01*
D34*
X161933607Y-73933607D02*
X156000000Y-68000000D01*
D33*
X209080000Y-59000000D02*
X204100000Y-59000000D01*
X233700000Y-89400000D02*
X233700000Y-90300000D01*
X210520000Y-105400000D02*
X210520000Y-106219000D01*
X218220000Y-49800000D02*
X218220000Y-50720000D01*
X191500000Y-51000000D02*
X194500000Y-51000000D01*
X225880000Y-113500000D02*
X225880000Y-114880000D01*
X240000000Y-74551000D02*
X234500000Y-74551000D01*
X210500000Y-115000000D02*
X218500000Y-115000000D01*
X168000000Y-107500000D02*
X167000000Y-106500000D01*
X240500000Y-106739000D02*
X232500000Y-106739000D01*
X246253550Y-111753550D02*
X247016450Y-111753550D01*
X162000000Y-99500000D02*
X160500000Y-99500000D01*
D34*
X157775000Y-89000000D02*
X158500000Y-88275000D01*
D33*
X174260000Y-112275000D02*
X174260000Y-112760000D01*
X194840000Y-105500000D02*
X194840000Y-106579000D01*
X202580000Y-73500000D02*
X202580000Y-74471000D01*
X248520000Y-97450000D02*
X248520000Y-98520000D01*
X226500000Y-131000000D02*
X218500000Y-131000000D01*
X202240000Y-66711000D02*
X202000000Y-66951000D01*
X162200000Y-81900000D02*
X162500000Y-82200000D01*
X231000000Y-130500000D02*
X230500000Y-131000000D01*
X176470000Y-64550000D02*
X177820000Y-65900000D01*
X203000000Y-82951000D02*
X196500000Y-82951000D01*
X196000000Y-39000000D02*
X197500000Y-40500000D01*
X218500000Y-43000000D02*
X223500000Y-43000000D01*
X218500000Y-123000000D02*
X226000000Y-123000000D01*
X233840000Y-81400000D02*
X233840000Y-82291000D01*
X248520000Y-98520000D02*
X249000000Y-99000000D01*
X224550000Y-38450000D02*
X226200000Y-38450000D01*
X202580000Y-106319000D02*
X203000000Y-106739000D01*
X233200000Y-65400000D02*
X233200000Y-66751000D01*
X241180000Y-81400000D02*
X241180000Y-82131000D01*
X200500000Y-139500000D02*
X199420000Y-138420000D01*
X218500000Y-115000000D02*
X226000000Y-115000000D01*
X218800000Y-82251000D02*
X219500000Y-82951000D01*
X202240000Y-65500000D02*
X202240000Y-66711000D01*
X231500000Y-59000000D02*
X227000000Y-59000000D01*
D34*
X177500000Y-121500000D02*
X181635000Y-121500000D01*
D33*
X210700000Y-129800000D02*
X209500000Y-131000000D01*
X202620000Y-130880000D02*
X202500000Y-131000000D01*
X233000000Y-66951000D02*
X225500000Y-66951000D01*
X174260000Y-64550000D02*
X176470000Y-64550000D01*
X202800000Y-98800000D02*
X203000000Y-99000000D01*
D34*
X160500000Y-59500000D02*
X159000000Y-58000000D01*
D33*
X195000000Y-99000000D02*
X186500000Y-99000000D01*
X218420000Y-41800000D02*
X218420000Y-42920000D01*
X176000000Y-74000000D02*
X177840000Y-74000000D01*
X240600000Y-118400000D02*
X240600000Y-118225000D01*
X233400000Y-113500000D02*
X233400000Y-114900000D01*
X225000000Y-135712000D02*
X225000000Y-138500000D01*
X198500000Y-42000000D02*
X198500000Y-41000000D01*
X162500000Y-82951000D02*
X159451000Y-82951000D01*
X240000000Y-66951000D02*
X233000000Y-66951000D01*
X186480000Y-105500000D02*
X186480000Y-106219000D01*
X185500000Y-123000000D02*
X186500000Y-123000000D01*
X255220000Y-102225000D02*
X254000000Y-103445000D01*
X211000000Y-81400000D02*
X211000000Y-82451000D01*
X256100000Y-82051000D02*
X257000000Y-82951000D01*
X224000000Y-139500000D02*
X218500000Y-139500000D01*
X260500000Y-99000000D02*
X256500000Y-99000000D01*
D34*
X164000000Y-108000000D02*
X164000000Y-107500000D01*
D33*
X208500000Y-42000000D02*
X208500000Y-41500000D01*
X248400000Y-73400000D02*
X248400000Y-74151000D01*
X219500000Y-82951000D02*
X211500000Y-82951000D01*
X198620000Y-41620000D02*
X197500000Y-40500000D01*
D34*
X197500000Y-40500000D02*
X198720000Y-40500000D01*
D33*
X186500000Y-57500000D02*
X184610000Y-57500000D01*
X202920000Y-139080000D02*
X202500000Y-139500000D01*
X246000000Y-113000000D02*
X246000000Y-112007100D01*
X169500000Y-107500000D02*
X168000000Y-107500000D01*
X160500000Y-91500000D02*
X171000000Y-91500000D01*
X256500000Y-99000000D02*
X256500000Y-98030000D01*
X248260000Y-106479000D02*
X248000000Y-106739000D01*
X199500000Y-123000000D02*
X209130000Y-123000000D01*
X248260000Y-105400000D02*
X248260000Y-106479000D01*
D34*
X156000000Y-96500000D02*
X158275000Y-96500000D01*
D33*
X218720000Y-98720000D02*
X219000000Y-99000000D01*
X179000000Y-82951000D02*
X171000000Y-82951000D01*
X186820000Y-82271000D02*
X187500000Y-82951000D01*
X226180000Y-89400000D02*
X226180000Y-90820000D01*
X218660000Y-90840000D02*
X218500000Y-91000000D01*
X233200000Y-126367100D02*
X231000000Y-128567100D01*
X233400000Y-105839000D02*
X232500000Y-106739000D01*
X226020000Y-73400000D02*
X226020000Y-74531000D01*
X208000000Y-43000000D02*
X208500000Y-42500000D01*
X170040000Y-81900000D02*
X170040000Y-81991000D01*
X218220000Y-50720000D02*
X218500000Y-51000000D01*
X162000000Y-99500000D02*
X162080000Y-99420000D01*
X171000000Y-91500000D02*
X178500000Y-91500000D01*
X233560000Y-122940000D02*
X233500000Y-123000000D01*
D34*
X159000000Y-58000000D02*
X159000000Y-53500000D01*
D33*
X202580000Y-105500000D02*
X202580000Y-106319000D01*
G04 #@! TO.N,/gp10*
X160600000Y-108400000D02*
X158600000Y-108400000D01*
X158400000Y-108400000D02*
X158500000Y-108500000D01*
X140760000Y-104260000D02*
X143580000Y-104260000D01*
X158600000Y-108400000D02*
X158500000Y-108500000D01*
X156500000Y-108400000D02*
X158400000Y-108400000D01*
X140500000Y-104000000D02*
X140760000Y-104260000D01*
D34*
G04 #@! TO.N,/gp16*
X157201000Y-77000000D02*
X157201000Y-71701000D01*
X187500000Y-39000000D02*
X191250000Y-39000000D01*
X153000000Y-93000000D02*
X156000000Y-93000000D01*
X157201000Y-71701000D02*
X156000000Y-70500000D01*
X191250000Y-39000000D02*
X191350000Y-39100000D01*
X156000000Y-93000000D02*
X157500000Y-91500000D01*
X124200000Y-89020000D02*
X120020000Y-89020000D01*
X120020000Y-89020000D02*
X120000000Y-89000000D01*
D33*
G04 #@! TO.N,/gp11*
X142220000Y-101720000D02*
X143580000Y-101720000D01*
X141000000Y-100500000D02*
X142220000Y-101720000D01*
X148500000Y-106500000D02*
X147500000Y-105500000D01*
X161301000Y-106601000D02*
X161251000Y-106651000D01*
X156450000Y-104200000D02*
X160550000Y-104200000D01*
X161301000Y-104951000D02*
X161301000Y-106601000D01*
X161251000Y-106651000D02*
X148651000Y-106651000D01*
X148651000Y-106651000D02*
X148500000Y-106500000D01*
X160550000Y-104200000D02*
X161301000Y-104951000D01*
X147500000Y-105500000D02*
X147500000Y-105000000D01*
G04 #@! TO.N,/gp13*
X155000000Y-115500000D02*
X158000000Y-115500000D01*
X146099000Y-99159000D02*
X146099000Y-112599000D01*
X156550000Y-112500000D02*
X156450000Y-112400000D01*
X148500000Y-115000000D02*
X149000000Y-115500000D01*
X158000000Y-112500000D02*
X156550000Y-112500000D01*
X146099000Y-112599000D02*
X148500000Y-115000000D01*
X149000000Y-115500000D02*
X155000000Y-115500000D01*
X160550000Y-112400000D02*
X158100000Y-112400000D01*
X143580000Y-96640000D02*
X146099000Y-99159000D01*
X158100000Y-112400000D02*
X158000000Y-112500000D01*
G04 #@! TO.N,/gp14*
X146500000Y-94480000D02*
X146500000Y-108850000D01*
X150600000Y-112400000D02*
X151000000Y-112000000D01*
X150050000Y-112400000D02*
X150600000Y-112400000D01*
X146500000Y-108850000D02*
X150050000Y-112400000D01*
X143580000Y-91560000D02*
X146500000Y-94480000D01*
G04 #@! TO.N,/gp15*
X150050000Y-104250000D02*
X154150000Y-104250000D01*
X150050000Y-92550000D02*
X150050000Y-104250000D01*
X146520000Y-89020000D02*
X150050000Y-92550000D01*
X143580000Y-89020000D02*
X146520000Y-89020000D01*
G04 #@! TO.N,/gp12*
X139500000Y-100000000D02*
X140320000Y-99180000D01*
X150050000Y-108400000D02*
X148100000Y-108400000D01*
X140320000Y-99180000D02*
X143580000Y-99180000D01*
X150050000Y-108400000D02*
X154150000Y-108400000D01*
X148100000Y-108400000D02*
X148000000Y-108500000D01*
G04 #@! TO.N,/LED Matrix/VSS-*
X168051000Y-99949000D02*
X173951000Y-99949000D01*
X215000000Y-131500000D02*
X223000000Y-131500000D01*
X181220000Y-85000000D02*
X181949000Y-85000000D01*
X232700000Y-48275000D02*
X233225000Y-48275000D01*
X229380000Y-84069000D02*
X230000000Y-83449000D01*
X181400000Y-77000000D02*
X183000000Y-77000000D01*
X248320000Y-112000000D02*
X248320000Y-113247100D01*
X204700000Y-51500000D02*
X205800000Y-52600000D01*
X205500000Y-34500000D02*
X206000000Y-34500000D01*
X259000000Y-83449000D02*
X261449000Y-83449000D01*
X206951000Y-51449000D02*
X212829000Y-51449000D01*
X227000000Y-39200000D02*
X226200000Y-40000000D01*
X214020000Y-84429000D02*
X215000000Y-83449000D01*
X206120000Y-76600000D02*
X206120000Y-76380000D01*
X207500000Y-91401000D02*
X215000000Y-91401000D01*
X205780000Y-68600000D02*
X206931000Y-67449000D01*
X236860000Y-92550000D02*
X236500000Y-92190000D01*
X168051000Y-67449000D02*
X167000000Y-68500000D01*
X248320000Y-112000000D02*
X248320000Y-111680000D01*
X251480000Y-83469000D02*
X251500000Y-83449000D01*
X230000000Y-83449000D02*
X236000000Y-83449000D01*
X198200000Y-84600000D02*
X198849000Y-84600000D01*
X183140000Y-108000000D02*
X182500000Y-108000000D01*
X183500000Y-100000000D02*
X184051000Y-99449000D01*
X221700000Y-68500000D02*
X222500000Y-67700000D01*
X191000000Y-91500000D02*
X191000000Y-91401000D01*
X191399000Y-126224000D02*
X191399000Y-124251057D01*
X213860000Y-68500000D02*
X213860000Y-68089000D01*
X229080000Y-107220000D02*
X229000000Y-107140000D01*
X228940000Y-44060000D02*
X229500000Y-43500000D01*
X205500000Y-45000000D02*
X207000000Y-43500000D01*
X214020000Y-84500000D02*
X214020000Y-84429000D01*
X222000000Y-91401000D02*
X229500000Y-91401000D01*
X213860000Y-68089000D02*
X214500000Y-67449000D01*
X214400000Y-124600000D02*
X215500000Y-123500000D01*
X198060000Y-116650000D02*
X198060000Y-115560000D01*
X189700000Y-116650000D02*
X189700000Y-115700000D01*
X191000000Y-44500000D02*
X191000000Y-46825000D01*
X158500000Y-86725000D02*
X158500000Y-85000000D01*
X227000000Y-35500000D02*
X227000000Y-39200000D01*
X240100000Y-56860000D02*
X243740000Y-60500000D01*
X166449000Y-85000000D02*
X168000000Y-83449000D01*
X244240000Y-84500000D02*
X244500000Y-84240000D01*
X158500000Y-78500000D02*
X158500000Y-77000000D01*
X263000000Y-97067100D02*
X258567100Y-101500000D01*
X198020000Y-108120000D02*
X199000000Y-107140000D01*
X206000000Y-92600000D02*
X206301000Y-92600000D01*
X213780000Y-36900000D02*
X213780000Y-35280000D01*
X181060000Y-101000000D02*
X182111000Y-99949000D01*
X226200000Y-41200000D02*
X228500000Y-43500000D01*
X251720000Y-91621000D02*
X251500000Y-91401000D01*
X205800000Y-115700000D02*
X206000000Y-115500000D01*
X199000000Y-67449000D02*
X189500000Y-67449000D01*
X206500000Y-123500000D02*
X215500000Y-123500000D01*
X241500000Y-54650000D02*
X240100000Y-56050000D01*
X244080000Y-68369000D02*
X245000000Y-67449000D01*
X213720000Y-99669000D02*
X213500000Y-99449000D01*
X251500000Y-99449000D02*
X255449000Y-99449000D01*
X190500000Y-99449000D02*
X198000000Y-99449000D01*
X191500000Y-126325000D02*
X191399000Y-126224000D01*
X189640000Y-60600000D02*
X189640000Y-59761000D01*
X214200000Y-75800000D02*
X215000000Y-75000000D01*
X165400000Y-75400000D02*
X165000000Y-75000000D01*
X244500000Y-83949000D02*
X244000000Y-83449000D01*
X192150057Y-123500000D02*
X199000000Y-123500000D01*
X175500000Y-83449000D02*
X183500000Y-83449000D01*
X198080000Y-124700000D02*
X198080000Y-124420000D01*
X199000000Y-75000000D02*
X207500000Y-75000000D01*
X184051000Y-99449000D02*
X190500000Y-99449000D01*
X236600000Y-99549000D02*
X236600000Y-100500000D01*
X214500000Y-59401000D02*
X222000000Y-59401000D01*
X241792100Y-119775000D02*
X240600000Y-119775000D01*
X206500000Y-59540000D02*
X206500000Y-59401000D01*
X174000000Y-91949000D02*
X181500000Y-91949000D01*
X237040000Y-76500000D02*
X237040000Y-75040000D01*
X230500000Y-115500000D02*
X236500000Y-115500000D01*
X198160000Y-52500000D02*
X198060000Y-52600000D01*
X221620000Y-36900000D02*
X221620000Y-34620000D01*
X235429000Y-51449000D02*
X236480000Y-52500000D01*
X242000000Y-117500000D02*
X242000000Y-118375000D01*
X258567100Y-101500000D02*
X257000000Y-101500000D01*
X251500000Y-83449000D02*
X259000000Y-83449000D01*
X198040000Y-99489000D02*
X198000000Y-99449000D01*
X205780000Y-100600000D02*
X205780000Y-99669000D01*
X259120000Y-92550000D02*
X259120000Y-91521000D01*
X181140000Y-69000000D02*
X181140000Y-67589000D01*
X255220000Y-103775000D02*
X255220000Y-105575000D01*
X207500000Y-131820000D02*
X207500000Y-131500000D01*
X199120000Y-34880000D02*
X199500000Y-34500000D01*
X189900000Y-92600000D02*
X191000000Y-91500000D01*
X259300000Y-76500000D02*
X259300000Y-75300000D01*
X264500000Y-94500000D02*
X263000000Y-96000000D01*
X230011000Y-51449000D02*
X235000000Y-51449000D01*
X255500000Y-68500000D02*
X256000000Y-69000000D01*
X249000000Y-67449000D02*
X245000000Y-67449000D01*
X221500000Y-107140000D02*
X214000000Y-107140000D01*
X229220000Y-68500000D02*
X229220000Y-67729000D01*
X192400000Y-52600000D02*
X192500000Y-52500000D01*
X255220000Y-105575000D02*
X248795000Y-112000000D01*
X197760000Y-43740000D02*
X198000000Y-43500000D01*
X183500000Y-83449000D02*
X192500000Y-83449000D01*
X235000000Y-51449000D02*
X235429000Y-51449000D01*
X236600000Y-108600000D02*
X236600000Y-107240000D01*
X229440000Y-91461000D02*
X229500000Y-91401000D01*
X168000000Y-83449000D02*
X175500000Y-83449000D01*
X223500000Y-75000000D02*
X229500000Y-75000000D01*
X244380000Y-76500000D02*
X244380000Y-75120000D01*
X189500000Y-67449000D02*
X181000000Y-67449000D01*
X263000000Y-79775000D02*
X263000000Y-81898000D01*
X174500000Y-77000000D02*
X175000000Y-77500000D01*
X190000000Y-75000000D02*
X199000000Y-75000000D01*
X221720000Y-116550000D02*
X222770000Y-115500000D01*
X221720000Y-52500000D02*
X222771000Y-51449000D01*
X198000000Y-52540000D02*
X198060000Y-52600000D01*
X263000000Y-81898000D02*
X261449000Y-83449000D01*
X236500000Y-99449000D02*
X244000000Y-99449000D01*
X239000000Y-115500000D02*
X239500000Y-116000000D01*
X197760000Y-45000000D02*
X197760000Y-43740000D01*
X221860000Y-84500000D02*
X222449000Y-84500000D01*
X189680000Y-100269000D02*
X190500000Y-99449000D01*
X229440000Y-92500000D02*
X229440000Y-91461000D01*
X221920000Y-92500000D02*
X221920000Y-91481000D01*
X229080000Y-100500000D02*
X229080000Y-99529000D01*
X205800000Y-52600000D02*
X206951000Y-51449000D01*
X200000000Y-52500000D02*
X201000000Y-51500000D01*
X206500000Y-107140000D02*
X199000000Y-107140000D01*
X165220000Y-85000000D02*
X166449000Y-85000000D01*
X206000000Y-34500000D02*
X213000000Y-34500000D01*
X221560000Y-100500000D02*
X221560000Y-99509000D01*
X247140000Y-107140000D02*
X243500000Y-107140000D01*
X259000000Y-75000000D02*
X262500000Y-75000000D01*
X185500000Y-49000000D02*
X188000000Y-49000000D01*
X236401000Y-60500000D02*
X237500000Y-59401000D01*
X227000000Y-136500000D02*
X226500000Y-136500000D01*
X237040000Y-75040000D02*
X237000000Y-75000000D01*
X189700000Y-115700000D02*
X189500000Y-115500000D01*
X199000000Y-51500000D02*
X200000000Y-52500000D01*
X172900000Y-101000000D02*
X173951000Y-99949000D01*
X167000000Y-101000000D02*
X168051000Y-99949000D01*
X234500000Y-125500000D02*
X234500000Y-126500000D01*
X222040000Y-133100000D02*
X222040000Y-132460000D01*
X199420000Y-134825000D02*
X199420000Y-133580000D01*
X256000000Y-69000000D02*
X256000000Y-70770000D01*
X244200000Y-92550000D02*
X244200000Y-91601000D01*
X214200000Y-133100000D02*
X214200000Y-132300000D01*
X222900000Y-124600000D02*
X224000000Y-123500000D01*
X243940000Y-100500000D02*
X243940000Y-99509000D01*
X173500000Y-108500000D02*
X173500000Y-109500000D01*
X264500000Y-93500000D02*
X264500000Y-94500000D01*
X166331000Y-91949000D02*
X174000000Y-91949000D01*
X198849000Y-84600000D02*
X200000000Y-83449000D01*
X251900000Y-75400000D02*
X251500000Y-75000000D01*
X198260000Y-92600000D02*
X199459000Y-91401000D01*
X213880000Y-116550000D02*
X214930000Y-115500000D01*
X205760000Y-108650000D02*
X205760000Y-107880000D01*
X245000000Y-67449000D02*
X236500000Y-67449000D01*
X213780000Y-35280000D02*
X213000000Y-34500000D01*
X181020000Y-61000000D02*
X181020000Y-59921000D01*
X189700000Y-50700000D02*
X189700000Y-52600000D01*
X158500000Y-77000000D02*
X160500000Y-75000000D01*
X215000000Y-91580000D02*
X215000000Y-91401000D01*
X182760000Y-54100000D02*
X182760000Y-51740000D01*
X191000000Y-107140000D02*
X184000000Y-107140000D01*
X264000000Y-76500000D02*
X264000000Y-78775000D01*
X251720000Y-92550000D02*
X251720000Y-91621000D01*
X228880000Y-60500000D02*
X228901000Y-60500000D01*
X199120000Y-38550000D02*
X199120000Y-34880000D01*
X189680000Y-100600000D02*
X189680000Y-100269000D01*
X205820000Y-124700000D02*
X205820000Y-124180000D01*
X201000000Y-51500000D02*
X204700000Y-51500000D01*
X243940000Y-99509000D02*
X244000000Y-99449000D01*
X232700000Y-49149000D02*
X235000000Y-51449000D01*
X226000000Y-34500000D02*
X227000000Y-35500000D01*
X244000000Y-91401000D02*
X251500000Y-91401000D01*
X249500000Y-110500000D02*
X249500000Y-109500000D01*
X229260000Y-124600000D02*
X229900000Y-124600000D01*
X214500000Y-67449000D02*
X206931000Y-67449000D01*
X190020000Y-75020000D02*
X190000000Y-75000000D01*
X236500000Y-107140000D02*
X229000000Y-107140000D01*
X198380000Y-75620000D02*
X199000000Y-75000000D01*
X214200000Y-76500000D02*
X214200000Y-75800000D01*
X258000000Y-75000000D02*
X259000000Y-75000000D01*
X207000000Y-43500000D02*
X198000000Y-43500000D01*
X229500000Y-43500000D02*
X228500000Y-43500000D01*
X198040000Y-100600000D02*
X198040000Y-99489000D01*
X228960000Y-52500000D02*
X230011000Y-51449000D01*
X222449000Y-84500000D02*
X223500000Y-83449000D01*
X160051000Y-83449000D02*
X168000000Y-83449000D01*
X164000000Y-53500000D02*
X183000000Y-34500000D01*
X181450000Y-109050000D02*
X182500000Y-108000000D01*
X192000000Y-43500000D02*
X191000000Y-44500000D01*
X189700000Y-52600000D02*
X192400000Y-52600000D01*
X205700000Y-34700000D02*
X205500000Y-34500000D01*
X247320000Y-63550000D02*
X247320000Y-65769000D01*
X191000000Y-91401000D02*
X199459000Y-91401000D01*
X199000000Y-67640000D02*
X199000000Y-67449000D01*
X214500000Y-34500000D02*
X221500000Y-34500000D01*
X199000000Y-123500000D02*
X206500000Y-123500000D01*
X232700000Y-48275000D02*
X232700000Y-49149000D01*
X175000000Y-75000000D02*
X190000000Y-75000000D01*
X200000000Y-52500000D02*
X198160000Y-52500000D01*
X237000000Y-75000000D02*
X244500000Y-75000000D01*
X251460000Y-99489000D02*
X251500000Y-99449000D01*
X250549000Y-67449000D02*
X249000000Y-67449000D01*
X165000000Y-75000000D02*
X175000000Y-75000000D01*
X198000000Y-60600000D02*
X198000000Y-60401000D01*
X193500000Y-51500000D02*
X198000000Y-51500000D01*
X249500000Y-109500000D02*
X247140000Y-107140000D01*
X214931000Y-51449000D02*
X220669000Y-51449000D01*
X181500000Y-91949000D02*
X183618100Y-91949000D01*
X174260000Y-110260000D02*
X174260000Y-110725000D01*
X243500000Y-107140000D02*
X236500000Y-107140000D01*
X236760000Y-115760000D02*
X236500000Y-115500000D01*
X228901000Y-60500000D02*
X230000000Y-59401000D01*
X173949000Y-85000000D02*
X175500000Y-83449000D01*
X221920000Y-91481000D02*
X222000000Y-91401000D01*
X229500000Y-91401000D02*
X236500000Y-91401000D01*
X158500000Y-94725000D02*
X158500000Y-93500000D01*
X248320000Y-111680000D02*
X249500000Y-110500000D01*
X158500000Y-85000000D02*
X160051000Y-83449000D01*
X214930000Y-115500000D02*
X222770000Y-115500000D01*
X165280000Y-93000000D02*
X166331000Y-91949000D01*
X173240000Y-77000000D02*
X174500000Y-77000000D01*
X175901000Y-59401000D02*
X180500000Y-59401000D01*
X244500000Y-84240000D02*
X244500000Y-83949000D01*
X236740000Y-67689000D02*
X236500000Y-67449000D01*
X190000000Y-59401000D02*
X199000000Y-59401000D01*
X262500000Y-91500000D02*
X264500000Y-93500000D01*
X181949000Y-85000000D02*
X183500000Y-83449000D01*
X183260000Y-116240000D02*
X184000000Y-115500000D01*
X205800000Y-116650000D02*
X205800000Y-115700000D01*
X213900000Y-124600000D02*
X214400000Y-124600000D01*
X229080000Y-108600000D02*
X229080000Y-107220000D01*
X198040000Y-68600000D02*
X199000000Y-67640000D01*
X192500000Y-52500000D02*
X193500000Y-51500000D01*
X263000000Y-88275000D02*
X263000000Y-91000000D01*
X213880000Y-52500000D02*
X214931000Y-51449000D01*
X229500000Y-67449000D02*
X222500000Y-67449000D01*
X259000000Y-91401000D02*
X262401000Y-91401000D01*
X182500000Y-108000000D02*
X174000000Y-108000000D01*
X240600000Y-119775000D02*
X240600000Y-120967100D01*
X221360000Y-60041000D02*
X222000000Y-59401000D01*
X239500000Y-116000000D02*
X240500000Y-116000000D01*
X251600000Y-68500000D02*
X250549000Y-67449000D01*
X236500000Y-115500000D02*
X239000000Y-115500000D01*
X183449000Y-99949000D02*
X183500000Y-100000000D01*
X236000000Y-83449000D02*
X244000000Y-83449000D01*
X192500000Y-83449000D02*
X200000000Y-83449000D01*
X248000000Y-60500000D02*
X249000000Y-61500000D01*
X199500000Y-34500000D02*
X205500000Y-34500000D01*
X222000000Y-59401000D02*
X230000000Y-59401000D01*
X205440000Y-60600000D02*
X206500000Y-59540000D01*
X223500000Y-83449000D02*
X230000000Y-83449000D01*
X214080000Y-92500000D02*
X215000000Y-91580000D01*
X198000000Y-60401000D02*
X199000000Y-59401000D01*
X258880000Y-83569000D02*
X259000000Y-83449000D01*
X213580000Y-44900000D02*
X213580000Y-43920000D01*
X207500000Y-75000000D02*
X215000000Y-75000000D01*
X213000000Y-34500000D02*
X214500000Y-34500000D01*
X251480000Y-84500000D02*
X251480000Y-83469000D01*
X206120000Y-76380000D02*
X207500000Y-75000000D01*
X167000000Y-68500000D02*
X167000000Y-70225000D01*
X223000000Y-131500000D02*
X226000000Y-131500000D01*
X263000000Y-91000000D02*
X262500000Y-91500000D01*
X233200000Y-127775000D02*
X233200000Y-129800000D01*
X180500000Y-59401000D02*
X190000000Y-59401000D01*
X213840000Y-108550000D02*
X213840000Y-107300000D01*
X227500000Y-133000000D02*
X227500000Y-136000000D01*
X181040000Y-109050000D02*
X181450000Y-109050000D01*
X228500000Y-43500000D02*
X222000000Y-43500000D01*
X229520000Y-76500000D02*
X229520000Y-75020000D01*
X226200000Y-40000000D02*
X226200000Y-41200000D01*
X234000000Y-47500000D02*
X234000000Y-45500000D01*
X222500000Y-67700000D02*
X222500000Y-67449000D01*
X243940000Y-107580000D02*
X243500000Y-107140000D01*
X198020000Y-108650000D02*
X198020000Y-108120000D01*
X228940000Y-44900000D02*
X228940000Y-44060000D01*
X206500000Y-59401000D02*
X214500000Y-59401000D01*
X213720000Y-100500000D02*
X213720000Y-99669000D01*
X244000000Y-83449000D02*
X251500000Y-83449000D01*
X198000000Y-99449000D02*
X206000000Y-99449000D01*
X236900000Y-84500000D02*
X236900000Y-84349000D01*
X165400000Y-77000000D02*
X165400000Y-75400000D01*
X174260000Y-63000000D02*
X174260000Y-60240000D01*
X248320000Y-113247100D02*
X241792100Y-119775000D01*
X233200000Y-129800000D02*
X226500000Y-136500000D01*
X251460000Y-100500000D02*
X251460000Y-99489000D01*
X221360000Y-60500000D02*
X221360000Y-60041000D01*
X257000000Y-101500000D02*
X257000000Y-101995000D01*
X183618100Y-91949000D02*
X184166100Y-91401000D01*
X175500000Y-59000000D02*
X175901000Y-59401000D01*
X205780000Y-99669000D02*
X206000000Y-99449000D01*
X221740000Y-124600000D02*
X222900000Y-124600000D01*
X220669000Y-51449000D02*
X221720000Y-52500000D01*
X236900000Y-84349000D02*
X236000000Y-83449000D01*
X213840000Y-107300000D02*
X214000000Y-107140000D01*
X231000000Y-123500000D02*
X232500000Y-123500000D01*
X184166100Y-91401000D02*
X191000000Y-91401000D01*
X229080000Y-99529000D02*
X229000000Y-99449000D01*
X198000000Y-43500000D02*
X192000000Y-43500000D01*
X233225000Y-127775000D02*
X234500000Y-126500000D01*
X214200000Y-132300000D02*
X215000000Y-131500000D01*
X251900000Y-76500000D02*
X251900000Y-75400000D01*
X205700000Y-37000000D02*
X205700000Y-34800000D01*
X213500000Y-99449000D02*
X221500000Y-99449000D01*
X236500000Y-67449000D02*
X229500000Y-67449000D01*
X227909000Y-51449000D02*
X228960000Y-52500000D01*
X242641000Y-59401000D02*
X243740000Y-60500000D01*
X205760000Y-107880000D02*
X206500000Y-107140000D01*
X213780000Y-35220000D02*
X214500000Y-34500000D01*
X200000000Y-83449000D02*
X207091000Y-83449000D01*
X251500000Y-75000000D02*
X258000000Y-75000000D01*
X259120000Y-91521000D02*
X259000000Y-91401000D01*
X236480000Y-52500000D02*
X240500000Y-52500000D01*
X264000000Y-78775000D02*
X263000000Y-79775000D01*
X249000000Y-61870000D02*
X247320000Y-63550000D01*
X229450000Y-116550000D02*
X230500000Y-115500000D01*
X189760000Y-67709000D02*
X189500000Y-67449000D01*
X181000000Y-67449000D02*
X173000000Y-67449000D01*
X229220000Y-67729000D02*
X229500000Y-67449000D01*
X173000000Y-67449000D02*
X168051000Y-67449000D01*
X198000000Y-51500000D02*
X199000000Y-51500000D01*
X172980000Y-69000000D02*
X172980000Y-67469000D01*
X230000000Y-59401000D02*
X237500000Y-59401000D01*
X221500000Y-99449000D02*
X229000000Y-99449000D01*
X173060000Y-85000000D02*
X173949000Y-85000000D01*
X251600000Y-68500000D02*
X255500000Y-68500000D01*
X257000000Y-101000000D02*
X257000000Y-101500000D01*
X243940000Y-108600000D02*
X243940000Y-107580000D01*
X199000000Y-107140000D02*
X191000000Y-107140000D01*
X182760000Y-51740000D02*
X185500000Y-49000000D01*
X214000000Y-107140000D02*
X206500000Y-107140000D01*
X207500000Y-131500000D02*
X215000000Y-131500000D01*
X221560000Y-99509000D02*
X221500000Y-99449000D01*
X264500000Y-86775000D02*
X263000000Y-88275000D01*
X201500000Y-131500000D02*
X207500000Y-131500000D01*
X189760000Y-68600000D02*
X189760000Y-67709000D01*
X189640000Y-59761000D02*
X190000000Y-59401000D01*
X232500000Y-123500000D02*
X234500000Y-125500000D01*
X181280000Y-93000000D02*
X181280000Y-92169000D01*
X173120000Y-92829000D02*
X174000000Y-91949000D01*
X199420000Y-133580000D02*
X201500000Y-131500000D01*
X222770000Y-115500000D02*
X230500000Y-115500000D01*
X262401000Y-91401000D02*
X262500000Y-91500000D01*
X191399000Y-124251057D02*
X192150057Y-123500000D01*
X247320000Y-65769000D02*
X249000000Y-67449000D01*
X263000000Y-96000000D02*
X263000000Y-97067100D01*
X232000000Y-43500000D02*
X229500000Y-43500000D01*
X221560000Y-108600000D02*
X221560000Y-107200000D01*
X160051000Y-91949000D02*
X166331000Y-91949000D01*
X243740000Y-60500000D02*
X248000000Y-60500000D01*
X236500000Y-91401000D02*
X244000000Y-91401000D01*
X259300000Y-75300000D02*
X259000000Y-75000000D01*
X213500000Y-60600000D02*
X213500000Y-60401000D01*
X240500000Y-116000000D02*
X242000000Y-117500000D01*
X205700000Y-37000000D02*
X205700000Y-34700000D01*
X229900000Y-124600000D02*
X231000000Y-123500000D01*
X206120000Y-133200000D02*
X207500000Y-131820000D01*
X215000000Y-83449000D02*
X223500000Y-83449000D01*
X181020000Y-59921000D02*
X180500000Y-59401000D01*
X173951000Y-99949000D02*
X182111000Y-99949000D01*
X222500000Y-67449000D02*
X214500000Y-67449000D01*
X215000000Y-75000000D02*
X223500000Y-75000000D01*
X236500000Y-92190000D02*
X236500000Y-91401000D01*
X191349000Y-84600000D02*
X192500000Y-83449000D01*
X188000000Y-49000000D02*
X189700000Y-50700000D01*
X236500000Y-99449000D02*
X236600000Y-99549000D01*
X172980000Y-67469000D02*
X173000000Y-67449000D01*
X189660000Y-108650000D02*
X191000000Y-107310000D01*
X240100000Y-56050000D02*
X240100000Y-56860000D01*
X160500000Y-75000000D02*
X165000000Y-75000000D01*
X262500000Y-75000000D02*
X264000000Y-76500000D01*
X191000000Y-107310000D02*
X191000000Y-107140000D01*
X258880000Y-84500000D02*
X258880000Y-83569000D01*
X264500000Y-86500000D02*
X264500000Y-86775000D01*
X224000000Y-123500000D02*
X231000000Y-123500000D01*
X249000000Y-61500000D02*
X249000000Y-61870000D01*
X255449000Y-99449000D02*
X257000000Y-101000000D01*
X221560000Y-107200000D02*
X221500000Y-107140000D01*
X184000000Y-115500000D02*
X189500000Y-115500000D01*
X215500000Y-123500000D02*
X224000000Y-123500000D01*
X221620000Y-34620000D02*
X221500000Y-34500000D01*
X182111000Y-99949000D02*
X183449000Y-99949000D01*
X221420000Y-44900000D02*
X221420000Y-44080000D01*
X244200000Y-91601000D02*
X244000000Y-91401000D01*
X213780000Y-36900000D02*
X213780000Y-35220000D01*
X240600000Y-120967100D02*
X233792100Y-127775000D01*
X213500000Y-60401000D02*
X214500000Y-59401000D01*
X222000000Y-76500000D02*
X223500000Y-75000000D01*
X205700000Y-34800000D02*
X206000000Y-34500000D01*
X167000000Y-102950000D02*
X167000000Y-101000000D01*
X240500000Y-52500000D02*
X241500000Y-53500000D01*
X198000000Y-115500000D02*
X206000000Y-115500000D01*
X255220000Y-71550000D02*
X255220000Y-72220000D01*
X221500000Y-34500000D02*
X226000000Y-34500000D01*
X183260000Y-118325000D02*
X183260000Y-116240000D01*
X229240000Y-116550000D02*
X229450000Y-116550000D01*
X261449000Y-83449000D02*
X264500000Y-86500000D01*
X214000000Y-43500000D02*
X207000000Y-43500000D01*
X199459000Y-91401000D02*
X207500000Y-91401000D01*
X222000000Y-43500000D02*
X214000000Y-43500000D01*
X226000000Y-131500000D02*
X227500000Y-133000000D01*
X236740000Y-68500000D02*
X236740000Y-67689000D01*
X233225000Y-48275000D02*
X234000000Y-47500000D01*
X233200000Y-127775000D02*
X233225000Y-127775000D01*
X229000000Y-107140000D02*
X221500000Y-107140000D01*
X212829000Y-51449000D02*
X213880000Y-52500000D01*
X205940000Y-84600000D02*
X207091000Y-83449000D01*
X257000000Y-101995000D02*
X255220000Y-103775000D01*
X198060000Y-115560000D02*
X198000000Y-115500000D01*
X206931000Y-67449000D02*
X199000000Y-67449000D01*
X174260000Y-60240000D02*
X175500000Y-59000000D01*
X207091000Y-83449000D02*
X215000000Y-83449000D01*
X221420000Y-44080000D02*
X222000000Y-43500000D01*
X198080000Y-124420000D02*
X199000000Y-123500000D01*
X173500000Y-109500000D02*
X174260000Y-110260000D01*
X227500000Y-136000000D02*
X227000000Y-136500000D01*
X173120000Y-93000000D02*
X173120000Y-92829000D01*
X244380000Y-75120000D02*
X244500000Y-75000000D01*
X174000000Y-108000000D02*
X173500000Y-108500000D01*
X189500000Y-115500000D02*
X198000000Y-115500000D01*
X234000000Y-45500000D02*
X232000000Y-43500000D01*
X242000000Y-118375000D02*
X240600000Y-119775000D01*
X158500000Y-93500000D02*
X160051000Y-91949000D01*
X205820000Y-124180000D02*
X206500000Y-123500000D01*
X184000000Y-107140000D02*
X183140000Y-108000000D01*
X244500000Y-75000000D02*
X251500000Y-75000000D01*
X236400000Y-60500000D02*
X236401000Y-60500000D01*
X244000000Y-99449000D02*
X251500000Y-99449000D01*
X198380000Y-76600000D02*
X198380000Y-75620000D01*
X244080000Y-68500000D02*
X244080000Y-68369000D01*
X251500000Y-91401000D02*
X259000000Y-91401000D01*
X198000000Y-51500000D02*
X198000000Y-52540000D01*
X181140000Y-67589000D02*
X181000000Y-67449000D01*
X199000000Y-59401000D02*
X206500000Y-59401000D01*
X236600000Y-107240000D02*
X236500000Y-107140000D01*
X183000000Y-34500000D02*
X199500000Y-34500000D01*
X229000000Y-99449000D02*
X236500000Y-99449000D01*
X236760000Y-116550000D02*
X236760000Y-115760000D01*
X229500000Y-75000000D02*
X237000000Y-75000000D01*
X229520000Y-75020000D02*
X229500000Y-75000000D01*
X213580000Y-43920000D02*
X214000000Y-43500000D01*
X222771000Y-51449000D02*
X227909000Y-51449000D01*
X206000000Y-115500000D02*
X214930000Y-115500000D01*
X181280000Y-92169000D02*
X181500000Y-91949000D01*
X215000000Y-91401000D02*
X222000000Y-91401000D01*
X229380000Y-84500000D02*
X229380000Y-84069000D01*
X189840000Y-84600000D02*
X191349000Y-84600000D01*
X233792100Y-127775000D02*
X233200000Y-127775000D01*
X237500000Y-59401000D02*
X242641000Y-59401000D01*
X222040000Y-132460000D02*
X223000000Y-131500000D01*
X256000000Y-70770000D02*
X255220000Y-71550000D01*
X206000000Y-99449000D02*
X213500000Y-99449000D01*
X241500000Y-53500000D02*
X241500000Y-54650000D01*
X248795000Y-112000000D02*
X248320000Y-112000000D01*
X190020000Y-76600000D02*
X190020000Y-75020000D01*
X255220000Y-72220000D02*
X258000000Y-75000000D01*
X206301000Y-92600000D02*
X207500000Y-91401000D01*
G04 #@! TO.N,/gp1*
X138679000Y-130761000D02*
X117261000Y-130761000D01*
X117261000Y-130761000D02*
X116000000Y-129500000D01*
X142658000Y-134740000D02*
X138679000Y-130761000D01*
X143580000Y-134740000D02*
X142658000Y-134740000D01*
G04 #@! TD*
M02*
